<svg width="1160" height="408" viewBox="0 0 1160 408" fill="none" xmlns="http://www.w3.org/2000/svg">
<path d="M0 20C0 8.95432 8.95431 0 20 0H1140C1151.05 0 1160 8.95431 1160 20V388C1160 399.046 1151.05 408 1140 408H20C8.95428 408 0 399.046 0 388V20Z" fill="#132F95"/>
<path d="M473.336 107.832C473.336 108.045 473.251 108.237 473.08 108.408C472.952 108.536 472.781 108.6 472.568 108.6H454.84C454.627 108.6 454.52 108.707 454.52 108.92V120.952C454.52 121.165 454.627 121.272 454.84 121.272H466.232C466.445 121.272 466.616 121.357 466.744 121.528C466.915 121.656 467 121.827 467 122.04V126.904C467 127.117 466.915 127.309 466.744 127.48C466.616 127.608 466.445 127.672 466.232 127.672H454.84C454.627 127.672 454.52 127.779 454.52 127.992V146.232C454.52 146.445 454.435 146.637 454.264 146.808C454.136 146.936 453.965 147 453.752 147H447.864C447.651 147 447.459 146.936 447.288 146.808C447.16 146.637 447.096 146.445 447.096 146.232V102.968C447.096 102.755 447.16 102.584 447.288 102.456C447.459 102.285 447.651 102.2 447.864 102.2H472.568C472.781 102.2 472.952 102.285 473.08 102.456C473.251 102.584 473.336 102.755 473.336 102.968V107.832ZM517.705 147.512C514.931 147.512 512.478 146.936 510.344 145.784C508.211 144.632 506.547 143.011 505.352 140.92C504.2 138.787 503.624 136.333 503.624 133.56V102.968C503.624 102.755 503.688 102.584 503.816 102.456C503.987 102.285 504.179 102.2 504.392 102.2H510.28C510.494 102.2 510.664 102.285 510.792 102.456C510.963 102.584 511.048 102.755 511.048 102.968V133.944C511.048 136.077 511.646 137.805 512.84 139.128C514.078 140.451 515.699 141.112 517.705 141.112C519.71 141.112 521.331 140.451 522.568 139.128C523.806 137.805 524.424 136.077 524.424 133.944V102.968C524.424 102.755 524.488 102.584 524.616 102.456C524.787 102.285 524.979 102.2 525.192 102.2H531.08C531.294 102.2 531.464 102.285 531.593 102.456C531.763 102.584 531.848 102.755 531.848 102.968V133.56C531.848 136.333 531.251 138.787 530.056 140.92C528.905 143.011 527.262 144.632 525.128 145.784C522.995 146.936 520.52 147.512 517.705 147.512ZM591.409 102.2C591.623 102.2 591.793 102.285 591.921 102.456C592.092 102.584 592.177 102.755 592.177 102.968V107.896C592.177 108.109 592.092 108.301 591.921 108.472C591.793 108.6 591.623 108.664 591.409 108.664H581.489C581.276 108.664 581.169 108.771 581.169 108.984V146.232C581.169 146.445 581.084 146.637 580.913 146.808C580.785 146.936 580.615 147 580.401 147H574.513C574.3 147 574.108 146.936 573.937 146.808C573.809 146.637 573.745 146.445 573.745 146.232V108.984C573.745 108.771 573.639 108.664 573.425 108.664H563.889C563.676 108.664 563.484 108.6 563.313 108.472C563.185 108.301 563.121 108.109 563.121 107.896V102.968C563.121 102.755 563.185 102.584 563.313 102.456C563.484 102.285 563.676 102.2 563.889 102.2H591.409ZM637.53 147.512C634.756 147.512 632.303 146.936 630.17 145.784C628.036 144.632 626.372 143.011 625.178 140.92C624.026 138.787 623.45 136.333 623.45 133.56V102.968C623.45 102.755 623.514 102.584 623.642 102.456C623.812 102.285 624.004 102.2 624.218 102.2H630.106C630.319 102.2 630.49 102.285 630.618 102.456C630.788 102.584 630.874 102.755 630.874 102.968V133.944C630.874 136.077 631.471 137.805 632.666 139.128C633.903 140.451 635.524 141.112 637.53 141.112C639.535 141.112 641.156 140.451 642.394 139.128C643.631 137.805 644.25 136.077 644.25 133.944V102.968C644.25 102.755 644.314 102.584 644.442 102.456C644.612 102.285 644.804 102.2 645.018 102.2H650.906C651.119 102.2 651.29 102.285 651.418 102.456C651.588 102.584 651.674 102.755 651.674 102.968V133.56C651.674 136.333 651.076 138.787 649.882 140.92C648.73 143.011 647.087 144.632 644.954 145.784C642.82 146.936 640.346 147.512 637.53 147.512ZM706.434 147C705.965 147 705.666 146.787 705.538 146.36L698.626 127.992C698.541 127.821 698.434 127.736 698.306 127.736H692.802C692.589 127.736 692.482 127.843 692.482 128.056V146.232C692.482 146.445 692.397 146.637 692.226 146.808C692.098 146.936 691.928 147 691.714 147H685.826C685.613 147 685.421 146.936 685.25 146.808C685.122 146.637 685.058 146.445 685.058 146.232V102.968C685.058 102.755 685.122 102.584 685.25 102.456C685.421 102.285 685.613 102.2 685.826 102.2H700.61C703.042 102.2 705.197 102.755 707.074 103.864C708.952 104.931 710.402 106.467 711.426 108.472C712.45 110.435 712.962 112.696 712.962 115.256C712.962 118.029 712.322 120.44 711.042 122.488C709.762 124.536 708.013 125.987 705.794 126.84C705.581 126.925 705.517 127.075 705.602 127.288L713.154 146.104C713.197 146.189 713.218 146.317 713.218 146.488C713.218 146.829 713.005 147 712.578 147H706.434ZM692.802 108.6C692.589 108.6 692.482 108.707 692.482 108.92V121.656C692.482 121.869 692.589 121.976 692.802 121.976H699.522C701.314 121.976 702.765 121.379 703.874 120.184C704.984 118.947 705.538 117.325 705.538 115.32C705.538 113.272 704.984 111.651 703.874 110.456C702.765 109.219 701.314 108.6 699.522 108.6H692.802ZM758.282 147.576C755.466 147.576 752.97 147 750.794 145.848C748.66 144.696 746.996 143.075 745.802 140.984C744.65 138.851 744.074 136.397 744.074 133.624V115.576C744.074 112.845 744.65 110.435 745.802 108.344C746.996 106.211 748.66 104.568 750.794 103.416C752.97 102.264 755.466 101.688 758.282 101.688C761.14 101.688 763.636 102.264 765.77 103.416C767.946 104.568 769.631 106.211 770.826 108.344C772.02 110.435 772.618 112.845 772.618 115.576V133.624C772.618 136.397 772.02 138.851 770.826 140.984C769.631 143.075 767.946 144.696 765.77 145.848C763.636 147 761.14 147.576 758.282 147.576ZM758.282 141.176C760.372 141.176 762.036 140.515 763.274 139.192C764.554 137.827 765.194 136.077 765.194 133.944V115.384C765.194 113.208 764.554 111.459 763.274 110.136C762.036 108.771 760.372 108.088 758.282 108.088C756.234 108.088 754.591 108.771 753.354 110.136C752.116 111.459 751.498 113.208 751.498 115.384V133.944C751.498 136.077 752.116 137.827 753.354 139.192C754.591 140.515 756.234 141.176 758.282 141.176Z" fill="white"/>
<path d="M598.176 177.968C598.176 177.755 598.24 177.584 598.368 177.456C598.539 177.285 598.731 177.2 598.944 177.2H604.832C605.045 177.2 605.216 177.285 605.344 177.456C605.515 177.584 605.6 177.755 605.6 177.968V221.232C605.6 221.445 605.515 221.637 605.344 221.808C605.216 221.936 605.045 222 604.832 222H598.624C598.24 222 597.941 221.808 597.728 221.424L583.776 192.752C583.691 192.624 583.605 192.581 583.52 192.624C583.435 192.624 583.392 192.709 583.392 192.88L583.456 221.232C583.456 221.445 583.371 221.637 583.2 221.808C583.072 221.936 582.901 222 582.688 222H576.8C576.587 222 576.395 221.936 576.224 221.808C576.096 221.637 576.032 221.445 576.032 221.232V177.968C576.032 177.755 576.096 177.584 576.224 177.456C576.395 177.285 576.587 177.2 576.8 177.2H582.944C583.371 177.2 583.669 177.392 583.84 177.776L597.856 206.576C597.941 206.704 598.027 206.768 598.112 206.768C598.197 206.725 598.24 206.619 598.24 206.448L598.176 177.968Z" fill="white"/>
<path d="M631.12 189.16C630.267 189.16 629.513 189.007 628.86 188.7C628.22 188.38 627.72 187.94 627.36 187.38C627.013 186.82 626.84 186.167 626.84 185.42V184.88C626.84 184.747 626.907 184.68 627.04 184.68H628.52C628.653 184.68 628.72 184.747 628.72 184.88V185.32C628.72 185.973 628.94 186.5 629.38 186.9C629.833 187.3 630.44 187.5 631.2 187.5C631.88 187.5 632.413 187.32 632.8 186.96C633.2 186.587 633.4 186.1 633.4 185.5C633.4 185.1 633.3 184.753 633.1 184.46C632.9 184.167 632.607 183.893 632.22 183.64C631.847 183.387 631.3 183.067 630.58 182.68C629.767 182.253 629.113 181.873 628.62 181.54C628.14 181.207 627.74 180.787 627.42 180.28C627.1 179.773 626.94 179.16 626.94 178.44C626.94 177.32 627.307 176.44 628.04 175.8C628.773 175.16 629.747 174.84 630.96 174.84C631.8 174.84 632.54 175 633.18 175.32C633.82 175.64 634.313 176.093 634.66 176.68C635.02 177.253 635.2 177.92 635.2 178.68V179.14C635.2 179.273 635.133 179.34 635 179.34H633.5C633.367 179.34 633.3 179.273 633.3 179.14V178.72C633.3 178.067 633.087 177.533 632.66 177.12C632.233 176.707 631.653 176.5 630.92 176.5C630.267 176.5 629.753 176.667 629.38 177C629.02 177.333 628.84 177.807 628.84 178.42C628.84 178.82 628.927 179.16 629.1 179.44C629.287 179.72 629.567 179.987 629.94 180.24C630.313 180.48 630.867 180.787 631.6 181.16C632.52 181.68 633.213 182.107 633.68 182.44C634.16 182.773 634.547 183.18 634.84 183.66C635.147 184.14 635.3 184.72 635.3 185.4C635.3 186.547 634.92 187.46 634.16 188.14C633.413 188.82 632.4 189.16 631.12 189.16ZM645.518 176.46C645.518 176.593 645.451 176.66 645.318 176.66H639.518C639.465 176.66 639.438 176.687 639.438 176.74V181.06C639.438 181.113 639.465 181.14 639.518 181.14H643.338C643.471 181.14 643.538 181.207 643.538 181.34V182.6C643.538 182.733 643.471 182.8 643.338 182.8H639.518C639.465 182.8 639.438 182.827 639.438 182.88V187.26C639.438 187.313 639.465 187.34 639.518 187.34H645.318C645.451 187.34 645.518 187.407 645.518 187.54V188.8C645.518 188.933 645.451 189 645.318 189H637.718C637.585 189 637.518 188.933 637.518 188.8V175.2C637.518 175.067 637.585 175 637.718 175H645.318C645.451 175 645.518 175.067 645.518 175.2V176.46ZM655.451 175.14C655.518 175.047 655.598 175 655.691 175H657.211C657.344 175 657.411 175.067 657.411 175.2V188.8C657.411 188.933 657.344 189 657.211 189H655.691C655.558 189 655.491 188.933 655.491 188.8V178.72C655.491 178.68 655.478 178.66 655.451 178.66C655.424 178.647 655.404 178.66 655.391 178.7L653.011 182.64C652.944 182.733 652.864 182.78 652.771 182.78H652.451C652.358 182.78 652.278 182.733 652.211 182.64L649.811 178.74C649.798 178.7 649.778 178.687 649.751 178.7C649.724 178.7 649.711 178.72 649.711 178.76V188.8C649.711 188.933 649.644 189 649.511 189H647.991C647.858 189 647.791 188.933 647.791 188.8V175.2C647.791 175.067 647.858 175 647.991 175H649.511C649.604 175 649.684 175.047 649.751 175.14L652.551 179.66C652.564 179.673 652.584 179.68 652.611 179.68C652.638 179.68 652.658 179.673 652.671 179.66L655.451 175.14ZM667.272 189C667.152 189 667.079 188.94 667.052 188.82L666.452 186.5C666.439 186.46 666.405 186.44 666.352 186.44H661.932C661.865 186.44 661.832 186.46 661.832 186.5L661.252 188.82C661.239 188.94 661.165 189 661.032 189H659.472C659.405 189 659.352 188.98 659.312 188.94C659.285 188.9 659.279 188.847 659.292 188.78L662.992 175.18C663.019 175.06 663.092 175 663.212 175H665.092C665.212 175 665.285 175.06 665.312 175.18L669.032 188.78L669.052 188.84C669.052 188.947 668.985 189 668.852 189H667.272ZM662.252 184.84C662.239 184.853 662.239 184.873 662.252 184.9C662.279 184.913 662.305 184.92 662.332 184.92H665.952C665.979 184.92 665.999 184.913 666.012 184.9C666.039 184.873 666.045 184.853 666.032 184.84L664.172 177.6C664.159 177.573 664.145 177.56 664.132 177.56C664.119 177.56 664.105 177.573 664.092 177.6L662.252 184.84ZM677.876 175.2C677.876 175.067 677.943 175 678.076 175H679.596C679.729 175 679.796 175.067 679.796 175.2V188.8C679.796 188.933 679.729 189 679.596 189H677.996C677.876 189 677.796 188.953 677.756 188.86L672.936 179.16C672.909 179.133 672.883 179.12 672.856 179.12C672.843 179.12 672.836 179.14 672.836 179.18L672.856 188.8C672.856 188.933 672.789 189 672.656 189H671.136C671.003 189 670.936 188.933 670.936 188.8V175.2C670.936 175.067 671.003 175 671.136 175H672.736C672.856 175 672.936 175.047 672.976 175.14L677.776 184.84C677.803 184.867 677.823 184.88 677.836 184.88C677.863 184.88 677.876 184.86 677.876 184.82V175.2ZM689.674 189C689.554 189 689.481 188.94 689.454 188.82L688.854 186.5C688.841 186.46 688.808 186.44 688.754 186.44H684.334C684.268 186.44 684.234 186.46 684.234 186.5L683.654 188.82C683.641 188.94 683.568 189 683.434 189H681.874C681.808 189 681.754 188.98 681.714 188.94C681.688 188.9 681.681 188.847 681.694 188.78L685.394 175.18C685.421 175.06 685.494 175 685.614 175H687.494C687.614 175 687.688 175.06 687.714 175.18L691.434 188.78L691.454 188.84C691.454 188.947 691.388 189 691.254 189H689.674ZM684.654 184.84C684.641 184.853 684.641 184.873 684.654 184.9C684.681 184.913 684.708 184.92 684.734 184.92H688.354C688.381 184.92 688.401 184.913 688.414 184.9C688.441 184.873 688.448 184.853 688.434 184.84L686.574 177.6C686.561 177.573 686.548 177.56 686.534 177.56C686.521 177.56 686.508 177.573 686.494 177.6L684.654 184.84ZM697.542 189C697.409 189 697.342 188.933 697.342 188.8V175.2C697.342 175.067 697.409 175 697.542 175H701.602C702.842 175 703.829 175.353 704.562 176.06C705.309 176.767 705.682 177.707 705.682 178.88V185.12C705.682 186.293 705.309 187.233 704.562 187.94C703.829 188.647 702.842 189 701.602 189H697.542ZM699.262 187.26C699.262 187.313 699.289 187.34 699.342 187.34L701.642 187.32C702.282 187.32 702.789 187.107 703.162 186.68C703.549 186.24 703.749 185.653 703.762 184.92V179.08C703.762 178.333 703.569 177.747 703.182 177.32C702.796 176.88 702.276 176.66 701.622 176.66H699.342C699.289 176.66 699.262 176.687 699.262 176.74V187.26ZM716.163 176.46C716.163 176.593 716.096 176.66 715.963 176.66H710.163C710.109 176.66 710.083 176.687 710.083 176.74V181.06C710.083 181.113 710.109 181.14 710.163 181.14H713.983C714.116 181.14 714.183 181.207 714.183 181.34V182.6C714.183 182.733 714.116 182.8 713.983 182.8H710.163C710.109 182.8 710.083 182.827 710.083 182.88V187.26C710.083 187.313 710.109 187.34 710.163 187.34H715.963C716.096 187.34 716.163 187.407 716.163 187.54V188.8C716.163 188.933 716.096 189 715.963 189H708.363C708.229 189 708.163 188.933 708.163 188.8V175.2C708.163 175.067 708.229 175 708.363 175H715.963C716.096 175 716.163 175.067 716.163 175.2V176.46ZM631.36 213.16C630.52 213.16 629.773 212.993 629.12 212.66C628.48 212.313 627.98 211.833 627.62 211.22C627.273 210.593 627.1 209.873 627.1 209.06V202.92C627.1 201.68 627.487 200.693 628.26 199.96C629.047 199.213 630.08 198.84 631.36 198.84C632.64 198.84 633.667 199.207 634.44 199.94C635.213 200.673 635.6 201.647 635.6 202.86V203.02C635.6 203.087 635.58 203.14 635.54 203.18C635.5 203.22 635.453 203.24 635.4 203.24L633.88 203.32C633.747 203.32 633.68 203.253 633.68 203.12V202.82C633.68 202.127 633.467 201.567 633.04 201.14C632.613 200.713 632.053 200.5 631.36 200.5C630.667 200.5 630.1 200.713 629.66 201.14C629.233 201.567 629.02 202.127 629.02 202.82V209.18C629.02 209.873 629.233 210.433 629.66 210.86C630.1 211.287 630.667 211.5 631.36 211.5C632.053 211.5 632.613 211.287 633.04 210.86C633.467 210.433 633.68 209.873 633.68 209.18V208.9C633.68 208.767 633.747 208.7 633.88 208.7L635.4 208.78C635.533 208.78 635.6 208.847 635.6 208.98V209.12C635.6 209.92 635.42 210.627 635.06 211.24C634.713 211.853 634.22 212.327 633.58 212.66C632.94 212.993 632.2 213.16 631.36 213.16ZM642.005 213.18C641.152 213.18 640.399 213.007 639.745 212.66C639.105 212.3 638.605 211.8 638.245 211.16C637.885 210.52 637.705 209.78 637.705 208.94V203.06C637.705 202.233 637.885 201.5 638.245 200.86C638.605 200.22 639.105 199.727 639.745 199.38C640.399 199.02 641.152 198.84 642.005 198.84C642.859 198.84 643.612 199.02 644.265 199.38C644.919 199.727 645.425 200.22 645.785 200.86C646.145 201.5 646.325 202.233 646.325 203.06V208.94C646.325 209.78 646.145 210.52 645.785 211.16C645.425 211.8 644.919 212.3 644.265 212.66C643.612 213.007 642.859 213.18 642.005 213.18ZM642.005 211.5C642.725 211.5 643.305 211.273 643.745 210.82C644.185 210.367 644.405 209.767 644.405 209.02V203.02C644.405 202.273 644.185 201.667 643.745 201.2C643.305 200.733 642.725 200.5 642.005 200.5C641.299 200.5 640.725 200.733 640.285 201.2C639.845 201.667 639.625 202.273 639.625 203.02V209.02C639.625 209.753 639.845 210.353 640.285 210.82C640.725 211.273 641.299 211.5 642.005 211.5ZM656.525 199.14C656.592 199.047 656.672 199 656.765 199H658.285C658.419 199 658.485 199.067 658.485 199.2V212.8C658.485 212.933 658.419 213 658.285 213H656.765C656.632 213 656.565 212.933 656.565 212.8V202.72C656.565 202.68 656.552 202.66 656.525 202.66C656.499 202.647 656.479 202.66 656.465 202.7L654.085 206.64C654.019 206.733 653.939 206.78 653.845 206.78H653.525C653.432 206.78 653.352 206.733 653.285 206.64L650.885 202.74C650.872 202.7 650.852 202.687 650.825 202.7C650.799 202.7 650.785 202.72 650.785 202.76V212.8C650.785 212.933 650.719 213 650.585 213H649.065C648.932 213 648.865 212.933 648.865 212.8V199.2C648.865 199.067 648.932 199 649.065 199H650.585C650.679 199 650.759 199.047 650.825 199.14L653.625 203.66C653.639 203.673 653.659 203.68 653.685 203.68C653.712 203.68 653.732 203.673 653.745 203.66L656.525 199.14ZM665.966 198.98C667.1 198.98 668.006 199.353 668.686 200.1C669.38 200.833 669.726 201.807 669.726 203.02C669.726 204.207 669.38 205.167 668.686 205.9C668.006 206.62 667.1 206.98 665.966 206.98H663.286C663.233 206.98 663.206 207.007 663.206 207.06V212.8C663.206 212.933 663.14 213 663.006 213H661.486C661.353 213 661.286 212.933 661.286 212.8V199.18C661.286 199.047 661.353 198.98 661.486 198.98H665.966ZM665.686 205.44C666.326 205.44 666.84 205.227 667.226 204.8C667.626 204.36 667.826 203.78 667.826 203.06C667.826 202.327 667.626 201.74 667.226 201.3C666.84 200.86 666.326 200.64 665.686 200.64H663.286C663.233 200.64 663.206 200.667 663.206 200.72V205.36C663.206 205.413 663.233 205.44 663.286 205.44H665.686ZM675.935 213.16C675.095 213.16 674.349 212.987 673.695 212.64C673.055 212.28 672.555 211.78 672.195 211.14C671.849 210.487 671.675 209.733 671.675 208.88V199.2C671.675 199.067 671.742 199 671.875 199H673.395C673.529 199 673.595 199.067 673.595 199.2V209C673.595 209.747 673.809 210.353 674.235 210.82C674.675 211.273 675.242 211.5 675.935 211.5C676.642 211.5 677.209 211.273 677.635 210.82C678.075 210.353 678.295 209.747 678.295 209V199.2C678.295 199.067 678.362 199 678.495 199H680.015C680.149 199 680.215 199.067 680.215 199.2V208.88C680.215 209.733 680.035 210.487 679.675 211.14C679.329 211.78 678.829 212.28 678.175 212.64C677.535 212.987 676.789 213.16 675.935 213.16ZM690.787 199C690.921 199 690.987 199.067 690.987 199.2V200.48C690.987 200.613 690.921 200.68 690.787 200.68H687.567C687.514 200.68 687.487 200.707 687.487 200.76V212.8C687.487 212.933 687.421 213 687.287 213H685.767C685.634 213 685.567 212.933 685.567 212.8V200.76C685.567 200.707 685.541 200.68 685.487 200.68H682.407C682.274 200.68 682.207 200.613 682.207 200.48V199.2C682.207 199.067 682.274 199 682.407 199H690.787ZM699.108 213C698.988 213 698.915 212.94 698.888 212.82L698.288 210.5C698.275 210.46 698.241 210.44 698.188 210.44H693.768C693.701 210.44 693.668 210.46 693.668 210.5L693.088 212.82C693.075 212.94 693.001 213 692.868 213H691.308C691.241 213 691.188 212.98 691.148 212.94C691.121 212.9 691.115 212.847 691.128 212.78L694.828 199.18C694.855 199.06 694.928 199 695.048 199H696.928C697.048 199 697.121 199.06 697.148 199.18L700.868 212.78L700.888 212.84C700.888 212.947 700.821 213 700.688 213H699.108ZM694.088 208.84C694.075 208.853 694.075 208.873 694.088 208.9C694.115 208.913 694.141 208.92 694.168 208.92H697.788C697.815 208.92 697.835 208.913 697.848 208.9C697.875 208.873 697.881 208.853 697.868 208.84L696.008 201.6C695.995 201.573 695.981 201.56 695.968 201.56C695.955 201.56 695.941 201.573 695.928 201.6L694.088 208.84ZM710.659 203.04C710.659 203.093 710.639 203.14 710.599 203.18C710.559 203.22 710.512 203.24 710.459 203.24L708.939 203.32C708.805 203.32 708.739 203.253 708.739 203.12V202.82C708.739 202.127 708.525 201.567 708.099 201.14C707.672 200.713 707.112 200.5 706.419 200.5C705.725 200.5 705.159 200.713 704.719 201.14C704.292 201.567 704.079 202.127 704.079 202.82V209.18C704.079 209.873 704.292 210.433 704.719 210.86C705.159 211.287 705.725 211.5 706.419 211.5C707.112 211.5 707.672 211.287 708.099 210.86C708.525 210.433 708.739 209.873 708.739 209.18V208.9C708.739 208.767 708.805 208.7 708.939 208.7L710.459 208.78C710.592 208.78 710.659 208.847 710.659 208.98V209.12C710.659 210.253 710.319 211.18 709.639 211.9C708.972 212.607 708.072 213.013 706.939 213.12C706.859 213.147 706.852 213.18 706.919 213.22C707.492 213.793 707.779 214.393 707.779 215.02C707.779 215.18 707.759 215.34 707.719 215.5C707.612 215.94 707.399 216.253 707.079 216.44C706.772 216.627 706.412 216.72 705.999 216.72C705.759 216.72 705.479 216.68 705.159 216.6C705.039 216.56 704.985 216.48 704.999 216.36L705.099 215.7C705.112 215.633 705.139 215.587 705.179 215.56C705.232 215.547 705.285 215.547 705.339 215.56C705.472 215.587 705.579 215.6 705.659 215.6C706.099 215.6 706.359 215.387 706.439 214.96C706.452 214.907 706.459 214.833 706.459 214.74C706.459 214.487 706.365 214.213 706.179 213.92C705.992 213.64 705.739 213.367 705.419 213.1C705.419 213.087 705.385 213.067 705.319 213.04C704.345 212.853 703.572 212.407 702.999 211.7C702.439 210.98 702.159 210.1 702.159 209.06V202.92C702.159 201.68 702.545 200.693 703.319 199.96C704.105 199.213 705.139 198.84 706.419 198.84C707.699 198.84 708.725 199.207 709.499 199.94C710.272 200.673 710.659 201.647 710.659 202.86V203.04ZM719.987 213C719.867 213 719.794 212.94 719.767 212.82L719.167 210.5C719.154 210.46 719.12 210.44 719.067 210.44H714.647C714.58 210.44 714.547 210.46 714.547 210.5L713.967 212.82C713.954 212.94 713.88 213 713.747 213H712.187C712.12 213 712.067 212.98 712.027 212.94C712 212.9 711.994 212.847 712.007 212.78L715.707 199.18C715.734 199.06 715.807 199 715.927 199H717.807C717.927 199 718 199.06 718.027 199.18L721.747 212.78L721.767 212.84C721.767 212.947 721.7 213 721.567 213H719.987ZM714.967 208.84C714.954 208.853 714.954 208.873 714.967 208.9C714.994 208.913 715.02 208.92 715.047 208.92H718.667C718.694 208.92 718.714 208.913 718.727 208.9C718.754 208.873 718.76 208.853 718.747 208.84L716.887 201.6C716.874 201.573 716.86 201.56 716.847 201.56C716.834 201.56 716.82 201.573 716.807 201.6L714.967 208.84ZM718.027 197.2C717.827 197.2 717.64 197.167 717.467 197.1C717.294 197.033 717.1 196.933 716.887 196.8C716.82 196.76 716.72 196.707 716.587 196.64C716.467 196.56 716.36 196.507 716.267 196.48C716.174 196.44 716.074 196.42 715.967 196.42C715.78 196.42 715.614 196.46 715.467 196.54C715.32 196.607 715.18 196.733 715.047 196.92C714.967 197.04 714.874 197.06 714.767 196.98L714.207 196.54C714.114 196.46 714.094 196.373 714.147 196.28C714.334 195.893 714.574 195.607 714.867 195.42C715.16 195.22 715.487 195.12 715.847 195.12C716.074 195.12 716.28 195.16 716.467 195.24C716.654 195.32 716.86 195.433 717.087 195.58C717.154 195.62 717.247 195.68 717.367 195.76C717.487 195.827 717.594 195.88 717.687 195.92C717.794 195.96 717.9 195.98 718.007 195.98C718.394 195.98 718.7 195.8 718.927 195.44C719.007 195.32 719.1 195.3 719.207 195.38L719.747 195.8C719.8 195.853 719.827 195.907 719.827 195.96C719.827 196.013 719.807 196.073 719.767 196.14C719.567 196.5 719.307 196.767 718.987 196.94C718.68 197.113 718.36 197.2 718.027 197.2ZM727.338 213.18C726.484 213.18 725.731 213.007 725.078 212.66C724.438 212.3 723.938 211.8 723.578 211.16C723.218 210.52 723.038 209.78 723.038 208.94V203.06C723.038 202.233 723.218 201.5 723.578 200.86C723.938 200.22 724.438 199.727 725.078 199.38C725.731 199.02 726.484 198.84 727.338 198.84C728.191 198.84 728.944 199.02 729.598 199.38C730.251 199.727 730.758 200.22 731.118 200.86C731.478 201.5 731.658 202.233 731.658 203.06V208.94C731.658 209.78 731.478 210.52 731.118 211.16C730.758 211.8 730.251 212.3 729.598 212.66C728.944 213.007 728.191 213.18 727.338 213.18ZM727.338 211.5C728.058 211.5 728.638 211.273 729.078 210.82C729.518 210.367 729.738 209.767 729.738 209.02V203.02C729.738 202.273 729.518 201.667 729.078 201.2C728.638 200.733 728.058 200.5 727.338 200.5C726.631 200.5 726.058 200.733 725.618 201.2C725.178 201.667 724.958 202.273 724.958 203.02V209.02C724.958 209.753 725.178 210.353 725.618 210.82C726.058 211.273 726.631 211.5 727.338 211.5ZM748.161 212.76C748.188 212.787 748.201 212.827 748.201 212.88C748.201 212.96 748.148 213 748.041 213H746.341C746.261 213 746.181 212.96 746.101 212.88L745.221 211.82C745.181 211.78 745.141 211.78 745.101 211.82C744.008 212.713 742.781 213.16 741.421 213.16C740.275 213.16 739.348 212.873 738.641 212.3C737.948 211.727 737.601 210.893 737.601 209.8C737.601 208.893 737.835 208.12 738.301 207.48C738.768 206.84 739.408 206.233 740.221 205.66C740.261 205.633 740.261 205.6 740.221 205.56C739.515 204.627 739.055 203.94 738.841 203.5C738.628 203.047 738.521 202.567 738.521 202.06C738.521 201.1 738.835 200.327 739.461 199.74C740.088 199.14 740.908 198.84 741.921 198.84C742.948 198.84 743.788 199.14 744.441 199.74C745.108 200.34 745.441 201.127 745.441 202.1C745.441 202.913 745.215 203.627 744.761 204.24C744.308 204.84 743.688 205.42 742.901 205.98C742.861 205.993 742.855 206.027 742.881 206.08L744.601 208.22L745.241 209.02C745.281 209.073 745.321 209.073 745.361 209.02C745.695 208.567 746.055 208.033 746.441 207.42C746.468 207.367 746.508 207.34 746.561 207.34C746.615 207.327 746.668 207.333 746.721 207.36L747.841 208C747.948 208.067 747.975 208.16 747.921 208.28C747.428 209.12 746.928 209.84 746.421 210.44C746.408 210.48 746.408 210.52 746.421 210.56C746.568 210.733 746.775 210.993 747.041 211.34C747.735 212.22 748.108 212.693 748.161 212.76ZM741.981 200.6C741.515 200.6 741.141 200.747 740.861 201.04C740.581 201.32 740.441 201.7 740.441 202.18C740.441 202.473 740.515 202.773 740.661 203.08C740.808 203.373 741.141 203.867 741.661 204.56C741.701 204.6 741.741 204.607 741.781 204.58C742.355 204.167 742.788 203.773 743.081 203.4C743.375 203.013 743.521 202.587 743.521 202.12C743.521 201.667 743.375 201.3 743.081 201.02C742.801 200.74 742.435 200.6 741.981 200.6ZM741.521 211.52C742.375 211.52 743.208 211.173 744.021 210.48C744.061 210.44 744.068 210.4 744.041 210.36L742.921 208.94L742.441 208.34L741.441 207.1C741.428 207.06 741.395 207.053 741.341 207.08C740.755 207.52 740.308 207.947 740.001 208.36C739.695 208.773 739.541 209.24 739.541 209.76C739.541 210.293 739.715 210.72 740.061 211.04C740.421 211.36 740.908 211.52 741.521 211.52ZM631.36 237.16C630.52 237.16 629.773 236.993 629.12 236.66C628.48 236.313 627.98 235.833 627.62 235.22C627.273 234.593 627.1 233.873 627.1 233.06V226.92C627.1 225.68 627.487 224.693 628.26 223.96C629.047 223.213 630.08 222.84 631.36 222.84C632.64 222.84 633.667 223.207 634.44 223.94C635.213 224.673 635.6 225.647 635.6 226.86V227.02C635.6 227.087 635.58 227.14 635.54 227.18C635.5 227.22 635.453 227.24 635.4 227.24L633.88 227.32C633.747 227.32 633.68 227.253 633.68 227.12V226.82C633.68 226.127 633.467 225.567 633.04 225.14C632.613 224.713 632.053 224.5 631.36 224.5C630.667 224.5 630.1 224.713 629.66 225.14C629.233 225.567 629.02 226.127 629.02 226.82V233.18C629.02 233.873 629.233 234.433 629.66 234.86C630.1 235.287 630.667 235.5 631.36 235.5C632.053 235.5 632.613 235.287 633.04 234.86C633.467 234.433 633.68 233.873 633.68 233.18V232.9C633.68 232.767 633.747 232.7 633.88 232.7L635.4 232.78C635.533 232.78 635.6 232.847 635.6 232.98V233.12C635.6 233.92 635.42 234.627 635.06 235.24C634.713 235.853 634.22 236.327 633.58 236.66C632.94 236.993 632.2 237.16 631.36 237.16ZM638.245 237C638.112 237 638.045 236.933 638.045 236.8V223.2C638.045 223.067 638.112 223 638.245 223H639.765C639.899 223 639.965 223.067 639.965 223.2V236.8C639.965 236.933 639.899 237 639.765 237H638.245ZM650.85 224.46C650.85 224.593 650.783 224.66 650.65 224.66H644.85C644.797 224.66 644.77 224.687 644.77 224.74V229.06C644.77 229.113 644.797 229.14 644.85 229.14H648.67C648.803 229.14 648.87 229.207 648.87 229.34V230.6C648.87 230.733 648.803 230.8 648.67 230.8H644.85C644.797 230.8 644.77 230.827 644.77 230.88V235.26C644.77 235.313 644.797 235.34 644.85 235.34H650.65C650.783 235.34 650.85 235.407 650.85 235.54V236.8C650.85 236.933 650.783 237 650.65 237H643.05C642.917 237 642.85 236.933 642.85 236.8V223.2C642.85 223.067 642.917 223 643.05 223H650.65C650.783 223 650.85 223.067 650.85 223.2V224.46ZM644.37 221.68C644.29 221.68 644.237 221.66 644.21 221.62C644.183 221.567 644.19 221.507 644.23 221.44L645.69 219.3C645.743 219.22 645.823 219.18 645.93 219.18H647.63C647.737 219.18 647.817 219.22 647.87 219.3L649.37 221.44C649.397 221.467 649.41 221.5 649.41 221.54C649.41 221.633 649.35 221.68 649.23 221.68H648.03C647.937 221.68 647.857 221.633 647.79 221.54L646.87 220.1C646.857 220.073 646.837 220.06 646.81 220.06C646.783 220.06 646.763 220.073 646.75 220.1L645.81 221.54C645.743 221.633 645.663 221.68 645.57 221.68H644.37ZM660.083 223.2C660.083 223.067 660.15 223 660.283 223H661.803C661.936 223 662.003 223.067 662.003 223.2V236.8C662.003 236.933 661.936 237 661.803 237H660.203C660.083 237 660.003 236.953 659.963 236.86L655.143 227.16C655.116 227.133 655.09 227.12 655.063 227.12C655.05 227.12 655.043 227.14 655.043 227.18L655.063 236.8C655.063 236.933 654.996 237 654.863 237H653.343C653.21 237 653.143 236.933 653.143 236.8V223.2C653.143 223.067 653.21 223 653.343 223H654.943C655.063 223 655.143 223.047 655.183 223.14L659.983 232.84C660.01 232.867 660.03 232.88 660.043 232.88C660.07 232.88 660.083 232.86 660.083 232.82V223.2ZM668.801 237.16C667.961 237.16 667.215 236.993 666.561 236.66C665.921 236.313 665.421 235.833 665.061 235.22C664.715 234.593 664.541 233.873 664.541 233.06V226.92C664.541 225.68 664.928 224.693 665.701 223.96C666.488 223.213 667.521 222.84 668.801 222.84C670.081 222.84 671.108 223.207 671.881 223.94C672.655 224.673 673.041 225.647 673.041 226.86V227.02C673.041 227.087 673.021 227.14 672.981 227.18C672.941 227.22 672.895 227.24 672.841 227.24L671.321 227.32C671.188 227.32 671.121 227.253 671.121 227.12V226.82C671.121 226.127 670.908 225.567 670.481 225.14C670.055 224.713 669.495 224.5 668.801 224.5C668.108 224.5 667.541 224.713 667.101 225.14C666.675 225.567 666.461 226.127 666.461 226.82V233.18C666.461 233.873 666.675 234.433 667.101 234.86C667.541 235.287 668.108 235.5 668.801 235.5C669.495 235.5 670.055 235.287 670.481 234.86C670.908 234.433 671.121 233.873 671.121 233.18V232.9C671.121 232.767 671.188 232.7 671.321 232.7L672.841 232.78C672.975 232.78 673.041 232.847 673.041 232.98V233.12C673.041 233.92 672.861 234.627 672.501 235.24C672.155 235.853 671.661 236.327 671.021 236.66C670.381 236.993 669.641 237.16 668.801 237.16ZM682.37 237C682.25 237 682.176 236.94 682.15 236.82L681.55 234.5C681.536 234.46 681.503 234.44 681.45 234.44H677.03C676.963 234.44 676.93 234.46 676.93 234.5L676.35 236.82C676.336 236.94 676.263 237 676.13 237H674.57C674.503 237 674.45 236.98 674.41 236.94C674.383 236.9 674.376 236.847 674.39 236.78L678.09 223.18C678.116 223.06 678.19 223 678.31 223H680.19C680.31 223 680.383 223.06 680.41 223.18L684.13 236.78L684.15 236.84C684.15 236.947 684.083 237 683.95 237H682.37ZM677.35 232.84C677.336 232.853 677.336 232.873 677.35 232.9C677.376 232.913 677.403 232.92 677.43 232.92H681.05C681.076 232.92 681.096 232.913 681.11 232.9C681.136 232.873 681.143 232.853 681.13 232.84L679.27 225.6C679.256 225.573 679.243 225.56 679.23 225.56C679.216 225.56 679.203 225.573 679.19 225.6L677.35 232.84ZM689.108 237.16C688.255 237.16 687.502 237.007 686.848 236.7C686.208 236.38 685.708 235.94 685.348 235.38C685.002 234.82 684.828 234.167 684.828 233.42V232.88C684.828 232.747 684.895 232.68 685.028 232.68H686.508C686.642 232.68 686.708 232.747 686.708 232.88V233.32C686.708 233.973 686.928 234.5 687.368 234.9C687.822 235.3 688.428 235.5 689.188 235.5C689.868 235.5 690.402 235.32 690.788 234.96C691.188 234.587 691.388 234.1 691.388 233.5C691.388 233.1 691.288 232.753 691.088 232.46C690.888 232.167 690.595 231.893 690.208 231.64C689.835 231.387 689.288 231.067 688.568 230.68C687.755 230.253 687.102 229.873 686.608 229.54C686.128 229.207 685.728 228.787 685.408 228.28C685.088 227.773 684.928 227.16 684.928 226.44C684.928 225.32 685.295 224.44 686.028 223.8C686.762 223.16 687.735 222.84 688.948 222.84C689.788 222.84 690.528 223 691.168 223.32C691.808 223.64 692.302 224.093 692.648 224.68C693.008 225.253 693.188 225.92 693.188 226.68V227.14C693.188 227.273 693.122 227.34 692.988 227.34H691.488C691.355 227.34 691.288 227.273 691.288 227.14V226.72C691.288 226.067 691.075 225.533 690.648 225.12C690.222 224.707 689.642 224.5 688.908 224.5C688.255 224.5 687.742 224.667 687.368 225C687.008 225.333 686.828 225.807 686.828 226.42C686.828 226.82 686.915 227.16 687.088 227.44C687.275 227.72 687.555 227.987 687.928 228.24C688.302 228.48 688.855 228.787 689.588 229.16C690.508 229.68 691.202 230.107 691.668 230.44C692.148 230.773 692.535 231.18 692.828 231.66C693.135 232.14 693.288 232.72 693.288 233.4C693.288 234.547 692.908 235.46 692.148 236.14C691.402 236.82 690.388 237.16 689.108 237.16ZM706.009 223.2C706.009 223.067 706.076 223 706.209 223H707.729C707.862 223 707.929 223.067 707.929 223.2V236.8C707.929 236.933 707.862 237 707.729 237H706.209C706.076 237 706.009 236.933 706.009 236.8V230.88C706.009 230.827 705.982 230.8 705.929 230.8H701.569C701.516 230.8 701.489 230.827 701.489 230.88V236.8C701.489 236.933 701.422 237 701.289 237H699.769C699.636 237 699.569 236.933 699.569 236.8V223.2C699.569 223.067 699.636 223 699.769 223H701.289C701.422 223 701.489 223.067 701.489 223.2V229.06C701.489 229.113 701.516 229.14 701.569 229.14H705.929C705.982 229.14 706.009 229.113 706.009 229.06V223.2ZM714.9 237.16C714.06 237.16 713.314 236.987 712.66 236.64C712.02 236.28 711.52 235.78 711.16 235.14C710.814 234.487 710.64 233.733 710.64 232.88V223.2C710.64 223.067 710.707 223 710.84 223H712.36C712.494 223 712.56 223.067 712.56 223.2V233C712.56 233.747 712.774 234.353 713.2 234.82C713.64 235.273 714.207 235.5 714.9 235.5C715.607 235.5 716.174 235.273 716.6 234.82C717.04 234.353 717.26 233.747 717.26 233V223.2C717.26 223.067 717.327 223 717.46 223H718.98C719.114 223 719.18 223.067 719.18 223.2V232.88C719.18 233.733 719 234.487 718.64 235.14C718.294 235.78 717.794 236.28 717.14 236.64C716.5 236.987 715.754 237.16 714.9 237.16ZM729.572 223.14C729.639 223.047 729.719 223 729.812 223H731.332C731.466 223 731.532 223.067 731.532 223.2V236.8C731.532 236.933 731.466 237 731.332 237H729.812C729.679 237 729.612 236.933 729.612 236.8V226.72C729.612 226.68 729.599 226.66 729.572 226.66C729.546 226.647 729.526 226.66 729.512 226.7L727.132 230.64C727.066 230.733 726.986 230.78 726.892 230.78H726.572C726.479 230.78 726.399 230.733 726.332 230.64L723.932 226.74C723.919 226.7 723.899 226.687 723.872 226.7C723.846 226.7 723.832 226.72 723.832 226.76V236.8C723.832 236.933 723.766 237 723.632 237H722.112C721.979 237 721.912 236.933 721.912 236.8V223.2C721.912 223.067 721.979 223 722.112 223H723.632C723.726 223 723.806 223.047 723.872 223.14L726.672 227.66C726.686 227.673 726.706 227.68 726.732 227.68C726.759 227.68 726.779 227.673 726.792 227.66L729.572 223.14ZM741.393 237C741.273 237 741.2 236.94 741.173 236.82L740.573 234.5C740.56 234.46 740.526 234.44 740.473 234.44H736.053C735.986 234.44 735.953 234.46 735.953 234.5L735.373 236.82C735.36 236.94 735.286 237 735.153 237H733.593C733.526 237 733.473 236.98 733.433 236.94C733.406 236.9 733.4 236.847 733.413 236.78L737.113 223.18C737.14 223.06 737.213 223 737.333 223H739.213C739.333 223 739.406 223.06 739.433 223.18L743.153 236.78L743.173 236.84C743.173 236.947 743.106 237 742.973 237H741.393ZM736.373 232.84C736.36 232.853 736.36 232.873 736.373 232.9C736.4 232.913 736.426 232.92 736.453 232.92H740.073C740.1 232.92 740.12 232.913 740.133 232.9C740.16 232.873 740.166 232.853 740.153 232.84L738.293 225.6C738.28 225.573 738.266 225.56 738.253 225.56C738.24 225.56 738.226 225.573 738.213 225.6L736.373 232.84ZM751.997 223.2C751.997 223.067 752.064 223 752.197 223H753.717C753.851 223 753.917 223.067 753.917 223.2V236.8C753.917 236.933 753.851 237 753.717 237H752.117C751.997 237 751.917 236.953 751.877 236.86L747.057 227.16C747.031 227.133 747.004 227.12 746.977 227.12C746.964 227.12 746.957 227.14 746.957 227.18L746.977 236.8C746.977 236.933 746.911 237 746.777 237H745.257C745.124 237 745.057 236.933 745.057 236.8V223.2C745.057 223.067 745.124 223 745.257 223H746.857C746.977 223 747.057 223.047 747.097 223.14L751.897 232.84C751.924 232.867 751.944 232.88 751.957 232.88C751.984 232.88 751.997 232.86 751.997 232.82V223.2ZM763.795 237C763.675 237 763.602 236.94 763.575 236.82L762.975 234.5C762.962 234.46 762.929 234.44 762.875 234.44H758.455C758.389 234.44 758.355 234.46 758.355 234.5L757.775 236.82C757.762 236.94 757.689 237 757.555 237H755.995C755.929 237 755.875 236.98 755.835 236.94C755.809 236.9 755.802 236.847 755.815 236.78L759.515 223.18C759.542 223.06 759.615 223 759.735 223H761.615C761.735 223 761.809 223.06 761.835 223.18L765.555 236.78L765.575 236.84C765.575 236.947 765.509 237 765.375 237H763.795ZM758.775 232.84C758.762 232.853 758.762 232.873 758.775 232.9C758.802 232.913 758.829 232.92 758.855 232.92H762.475C762.502 232.92 762.522 232.913 762.535 232.9C762.562 232.873 762.569 232.853 762.555 232.84L760.695 225.6C760.682 225.573 760.669 225.56 760.655 225.56C760.642 225.56 760.629 225.573 760.615 225.6L758.775 232.84ZM770.534 237.16C769.681 237.16 768.927 237.007 768.274 236.7C767.634 236.38 767.134 235.94 766.774 235.38C766.427 234.82 766.254 234.167 766.254 233.42V232.88C766.254 232.747 766.321 232.68 766.454 232.68H767.934C768.067 232.68 768.134 232.747 768.134 232.88V233.32C768.134 233.973 768.354 234.5 768.794 234.9C769.247 235.3 769.854 235.5 770.614 235.5C771.294 235.5 771.827 235.32 772.214 234.96C772.614 234.587 772.814 234.1 772.814 233.5C772.814 233.1 772.714 232.753 772.514 232.46C772.314 232.167 772.021 231.893 771.634 231.64C771.261 231.387 770.714 231.067 769.994 230.68C769.181 230.253 768.527 229.873 768.034 229.54C767.554 229.207 767.154 228.787 766.834 228.28C766.514 227.773 766.354 227.16 766.354 226.44C766.354 225.32 766.721 224.44 767.454 223.8C768.187 223.16 769.161 222.84 770.374 222.84C771.214 222.84 771.954 223 772.594 223.32C773.234 223.64 773.727 224.093 774.074 224.68C774.434 225.253 774.614 225.92 774.614 226.68V227.14C774.614 227.273 774.547 227.34 774.414 227.34H772.914C772.781 227.34 772.714 227.273 772.714 227.14V226.72C772.714 226.067 772.501 225.533 772.074 225.12C771.647 224.707 771.067 224.5 770.334 224.5C769.681 224.5 769.167 224.667 768.794 225C768.434 225.333 768.254 225.807 768.254 226.42C768.254 226.82 768.341 227.16 768.514 227.44C768.701 227.72 768.981 227.987 769.354 228.24C769.727 228.48 770.281 228.787 771.014 229.16C771.934 229.68 772.627 230.107 773.094 230.44C773.574 230.773 773.961 231.18 774.254 231.66C774.561 232.14 774.714 232.72 774.714 233.4C774.714 234.547 774.334 235.46 773.574 236.14C772.827 236.82 771.814 237.16 770.534 237.16Z" fill="white"/>
<path d="M490.64 321C490.507 321 490.44 320.933 490.44 320.8V307.2C490.44 307.067 490.507 307 490.64 307H494.7C495.94 307 496.927 307.353 497.66 308.06C498.407 308.767 498.78 309.707 498.78 310.88V317.12C498.78 318.293 498.407 319.233 497.66 319.94C496.927 320.647 495.94 321 494.7 321H490.64ZM492.36 319.26C492.36 319.313 492.387 319.34 492.44 319.34L494.74 319.32C495.38 319.32 495.887 319.107 496.26 318.68C496.647 318.24 496.847 317.653 496.86 316.92V311.08C496.86 310.333 496.667 309.747 496.28 309.32C495.893 308.88 495.373 308.66 494.72 308.66H492.44C492.387 308.66 492.36 308.687 492.36 308.74V319.26ZM513.26 308.46C513.26 308.593 513.194 308.66 513.06 308.66H507.26C507.207 308.66 507.18 308.687 507.18 308.74V313.06C507.18 313.113 507.207 313.14 507.26 313.14H511.08C511.214 313.14 511.28 313.207 511.28 313.34V314.6C511.28 314.733 511.214 314.8 511.08 314.8H507.26C507.207 314.8 507.18 314.827 507.18 314.88V319.26C507.18 319.313 507.207 319.34 507.26 319.34H513.06C513.194 319.34 513.26 319.407 513.26 319.54V320.8C513.26 320.933 513.194 321 513.06 321H505.46C505.327 321 505.26 320.933 505.26 320.8V307.2C505.26 307.067 505.327 307 505.46 307H513.06C513.194 307 513.26 307.067 513.26 307.2V308.46ZM535.197 307.14C535.264 307.047 535.344 307 535.437 307H536.957C537.091 307 537.157 307.067 537.157 307.2V320.8C537.157 320.933 537.091 321 536.957 321H535.437C535.304 321 535.237 320.933 535.237 320.8V310.72C535.237 310.68 535.224 310.66 535.197 310.66C535.171 310.647 535.151 310.66 535.137 310.7L532.757 314.64C532.691 314.733 532.611 314.78 532.517 314.78H532.197C532.104 314.78 532.024 314.733 531.957 314.64L529.557 310.74C529.544 310.7 529.524 310.687 529.497 310.7C529.471 310.7 529.457 310.72 529.457 310.76V320.8C529.457 320.933 529.391 321 529.257 321H527.737C527.604 321 527.537 320.933 527.537 320.8V307.2C527.537 307.067 527.604 307 527.737 307H529.257C529.351 307 529.431 307.047 529.497 307.14L532.297 311.66C532.311 311.673 532.331 311.68 532.357 311.68C532.384 311.68 532.404 311.673 532.417 311.66L535.197 307.14ZM551.018 321C550.898 321 550.825 320.94 550.798 320.82L550.198 318.5C550.185 318.46 550.151 318.44 550.098 318.44H545.678C545.611 318.44 545.578 318.46 545.578 318.5L544.998 320.82C544.985 320.94 544.911 321 544.778 321H543.218C543.151 321 543.098 320.98 543.058 320.94C543.031 320.9 543.025 320.847 543.038 320.78L546.738 307.18C546.765 307.06 546.838 307 546.958 307H548.838C548.958 307 549.031 307.06 549.058 307.18L552.778 320.78L552.798 320.84C552.798 320.947 552.731 321 552.598 321H551.018ZM545.998 316.84C545.985 316.853 545.985 316.873 545.998 316.9C546.025 316.913 546.051 316.92 546.078 316.92H549.698C549.725 316.92 549.745 316.913 549.758 316.9C549.785 316.873 549.791 316.853 549.778 316.84L547.918 309.6C547.905 309.573 547.891 309.56 547.878 309.56C547.865 309.56 547.851 309.573 547.838 309.6L545.998 316.84ZM547.058 305.72C546.978 305.72 546.925 305.7 546.898 305.66C546.871 305.607 546.878 305.547 546.918 305.48L548.098 303.32C548.138 303.227 548.218 303.18 548.338 303.18H549.618C549.698 303.18 549.751 303.207 549.778 303.26C549.805 303.3 549.798 303.353 549.758 303.42L548.318 305.6C548.251 305.68 548.171 305.72 548.078 305.72H547.058ZM558.141 321C558.074 321 558.027 320.98 558.001 320.94C557.974 320.887 557.974 320.827 558.001 320.76L561.461 314.06C561.487 314.02 561.487 313.98 561.461 313.94L558.001 307.24C557.987 307.213 557.981 307.18 557.981 307.14C557.981 307.047 558.034 307 558.141 307H559.761C559.881 307 559.961 307.047 560.001 307.14L562.521 312.2C562.534 312.227 562.554 312.24 562.581 312.24C562.607 312.24 562.627 312.227 562.641 312.2L565.121 307.14C565.161 307.047 565.241 307 565.361 307H566.981C567.047 307 567.094 307.027 567.121 307.08C567.147 307.12 567.147 307.173 567.121 307.24L563.661 313.96C563.647 314 563.647 314.04 563.661 314.08L567.121 320.76C567.134 320.787 567.141 320.82 567.141 320.86C567.141 320.953 567.087 321 566.981 321H565.381C565.261 321 565.181 320.953 565.141 320.86L562.641 315.8C562.627 315.773 562.607 315.76 562.581 315.76C562.554 315.76 562.534 315.773 562.521 315.8L560.001 320.86C559.961 320.953 559.881 321 559.761 321H558.141ZM573.468 321C573.335 321 573.268 320.933 573.268 320.8V307.2C573.268 307.067 573.335 307 573.468 307H574.988C575.121 307 575.188 307.067 575.188 307.2V320.8C575.188 320.933 575.121 321 574.988 321H573.468ZM589.713 307.14C589.779 307.047 589.859 307 589.953 307H591.473C591.606 307 591.673 307.067 591.673 307.2V320.8C591.673 320.933 591.606 321 591.473 321H589.953C589.819 321 589.753 320.933 589.753 320.8V310.72C589.753 310.68 589.739 310.66 589.713 310.66C589.686 310.647 589.666 310.66 589.653 310.7L587.273 314.64C587.206 314.733 587.126 314.78 587.033 314.78H586.713C586.619 314.78 586.539 314.733 586.473 314.64L584.073 310.74C584.059 310.7 584.039 310.687 584.013 310.7C583.986 310.7 583.973 310.72 583.973 310.76V320.8C583.973 320.933 583.906 321 583.773 321H582.253C582.119 321 582.053 320.933 582.053 320.8V307.2C582.053 307.067 582.119 307 582.253 307H583.773C583.866 307 583.946 307.047 584.013 307.14L586.813 311.66C586.826 311.673 586.846 311.68 586.873 311.68C586.899 311.68 586.919 311.673 586.933 311.66L589.713 307.14ZM605.534 321C605.414 321 605.34 320.94 605.314 320.82L604.714 318.5C604.7 318.46 604.667 318.44 604.614 318.44H600.194C600.127 318.44 600.094 318.46 600.094 318.5L599.514 320.82C599.5 320.94 599.427 321 599.294 321H597.734C597.667 321 597.614 320.98 597.574 320.94C597.547 320.9 597.54 320.847 597.554 320.78L601.254 307.18C601.28 307.06 601.354 307 601.474 307H603.354C603.474 307 603.547 307.06 603.574 307.18L607.294 320.78L607.314 320.84C607.314 320.947 607.247 321 607.114 321H605.534ZM600.514 316.84C600.5 316.853 600.5 316.873 600.514 316.9C600.54 316.913 600.567 316.92 600.594 316.92H604.214C604.24 316.92 604.26 316.913 604.274 316.9C604.3 316.873 604.307 316.853 604.294 316.84L602.434 309.6C602.42 309.573 602.407 309.56 602.394 309.56C602.38 309.56 602.367 309.573 602.354 309.6L600.514 316.84ZM624.922 306.84C625.748 306.84 626.475 307.02 627.102 307.38C627.728 307.727 628.215 308.22 628.562 308.86C628.908 309.5 629.082 310.233 629.082 311.06V317C629.082 318.053 628.802 318.947 628.242 319.68C627.682 320.4 626.922 320.86 625.962 321.06C625.908 321.073 625.882 321.107 625.882 321.16V322.98C625.882 323.113 625.815 323.18 625.682 323.18H624.162C624.028 323.18 623.962 323.113 623.962 322.98V321.16C623.962 321.107 623.935 321.073 623.882 321.06C622.922 320.86 622.162 320.4 621.602 319.68C621.042 318.947 620.762 318.053 620.762 317V311.06C620.762 310.233 620.935 309.5 621.282 308.86C621.628 308.22 622.115 307.727 622.742 307.38C623.382 307.02 624.108 306.84 624.922 306.84ZM627.162 310.92C627.162 310.2 626.955 309.62 626.542 309.18C626.128 308.727 625.588 308.5 624.922 308.5C624.255 308.5 623.715 308.727 623.302 309.18C622.888 309.62 622.682 310.2 622.682 310.92V317.08C622.682 317.8 622.888 318.387 623.302 318.84C623.715 319.28 624.255 319.5 624.922 319.5C625.588 319.5 626.128 319.28 626.542 318.84C626.955 318.387 627.162 317.8 627.162 317.08V310.92ZM639.654 321.16C638.814 321.16 638.068 320.987 637.414 320.64C636.774 320.28 636.274 319.78 635.914 319.14C635.568 318.487 635.394 317.733 635.394 316.88V307.2C635.394 307.067 635.461 307 635.594 307H637.114C637.248 307 637.314 307.067 637.314 307.2V317C637.314 317.747 637.528 318.353 637.954 318.82C638.394 319.273 638.961 319.5 639.654 319.5C640.361 319.5 640.928 319.273 641.354 318.82C641.794 318.353 642.014 317.747 642.014 317V307.2C642.014 307.067 642.081 307 642.214 307H643.734C643.868 307 643.934 307.067 643.934 307.2V316.88C643.934 317.733 643.754 318.487 643.394 319.14C643.048 319.78 642.548 320.28 641.894 320.64C641.254 320.987 640.508 321.16 639.654 321.16ZM657.491 321C657.371 321 657.297 320.94 657.271 320.82L656.671 318.5C656.657 318.46 656.624 318.44 656.571 318.44H652.151C652.084 318.44 652.051 318.46 652.051 318.5L651.471 320.82C651.457 320.94 651.384 321 651.251 321H649.691C649.624 321 649.571 320.98 649.531 320.94C649.504 320.9 649.497 320.847 649.511 320.78L653.211 307.18C653.237 307.06 653.311 307 653.431 307H655.311C655.431 307 655.504 307.06 655.531 307.18L659.251 320.78L659.271 320.84C659.271 320.947 659.204 321 659.071 321H657.491ZM652.471 316.84C652.457 316.853 652.457 316.873 652.471 316.9C652.497 316.913 652.524 316.92 652.551 316.92H656.171C656.197 316.92 656.217 316.913 656.231 316.9C656.257 316.873 656.264 316.853 656.251 316.84L654.391 309.6C654.377 309.573 654.364 309.56 654.351 309.56C654.337 309.56 654.324 309.573 654.311 309.6L652.471 316.84ZM665.355 321C665.222 321 665.155 320.933 665.155 320.8V307.2C665.155 307.067 665.222 307 665.355 307H666.875C667.008 307 667.075 307.067 667.075 307.2V319.26C667.075 319.313 667.102 319.34 667.155 319.34H672.835C672.968 319.34 673.035 319.407 673.035 319.54V320.8C673.035 320.933 672.968 321 672.835 321H665.355ZM679.12 321C678.987 321 678.92 320.933 678.92 320.8V307.2C678.92 307.067 678.987 307 679.12 307H680.64C680.774 307 680.84 307.067 680.84 307.2V320.8C680.84 320.933 680.774 321 680.64 321H679.12ZM687.925 321C687.792 321 687.725 320.933 687.725 320.8V307.2C687.725 307.067 687.792 307 687.925 307H691.985C693.225 307 694.212 307.353 694.945 308.06C695.692 308.767 696.065 309.707 696.065 310.88V317.12C696.065 318.293 695.692 319.233 694.945 319.94C694.212 320.647 693.225 321 691.985 321H687.925ZM689.645 319.26C689.645 319.313 689.672 319.34 689.725 319.34L692.025 319.32C692.665 319.32 693.172 319.107 693.545 318.68C693.932 318.24 694.132 317.653 694.145 316.92V311.08C694.145 310.333 693.952 309.747 693.565 309.32C693.178 308.88 692.658 308.66 692.005 308.66H689.725C689.672 308.66 689.645 308.687 689.645 308.74V319.26ZM709.096 321C708.976 321 708.903 320.94 708.876 320.82L708.276 318.5C708.263 318.46 708.23 318.44 708.176 318.44H703.756C703.69 318.44 703.656 318.46 703.656 318.5L703.076 320.82C703.063 320.94 702.99 321 702.856 321H701.296C701.23 321 701.176 320.98 701.136 320.94C701.11 320.9 701.103 320.847 701.116 320.78L704.816 307.18C704.843 307.06 704.916 307 705.036 307H706.916C707.036 307 707.11 307.06 707.136 307.18L710.856 320.78L710.876 320.84C710.876 320.947 710.81 321 710.676 321H709.096ZM704.076 316.84C704.063 316.853 704.063 316.873 704.076 316.9C704.103 316.913 704.13 316.92 704.156 316.92H707.776C707.803 316.92 707.823 316.913 707.836 316.9C707.863 316.873 707.87 316.853 707.856 316.84L705.996 309.6C705.983 309.573 705.97 309.56 705.956 309.56C705.943 309.56 705.93 309.573 705.916 309.6L704.076 316.84ZM716.96 321C716.827 321 716.76 320.933 716.76 320.8V307.2C716.76 307.067 716.827 307 716.96 307H721.02C722.26 307 723.247 307.353 723.98 308.06C724.727 308.767 725.1 309.707 725.1 310.88V317.12C725.1 318.293 724.727 319.233 723.98 319.94C723.247 320.647 722.26 321 721.02 321H716.96ZM718.68 319.26C718.68 319.313 718.707 319.34 718.76 319.34L721.06 319.32C721.7 319.32 722.207 319.107 722.58 318.68C722.967 318.24 723.167 317.653 723.18 316.92V311.08C723.18 310.333 722.987 309.747 722.6 309.32C722.214 308.88 721.694 308.66 721.04 308.66H718.76C718.707 308.66 718.68 308.687 718.68 308.74V319.26ZM739.581 308.46C739.581 308.593 739.514 308.66 739.381 308.66H733.581C733.527 308.66 733.501 308.687 733.501 308.74V313.06C733.501 313.113 733.527 313.14 733.581 313.14H737.401C737.534 313.14 737.601 313.207 737.601 313.34V314.6C737.601 314.733 737.534 314.8 737.401 314.8H733.581C733.527 314.8 733.501 314.827 733.501 314.88V319.26C733.501 319.313 733.527 319.34 733.581 319.34H739.381C739.514 319.34 739.581 319.407 739.581 319.54V320.8C739.581 320.933 739.514 321 739.381 321H731.781C731.647 321 731.581 320.933 731.581 320.8V307.2C731.581 307.067 731.647 307 731.781 307H739.381C739.514 307 739.581 307.067 739.581 307.2V308.46Z" fill="white"/>
<rect x="434.5" y="167.5" width="122" height="58" rx="29" stroke="white"/>
<ellipse cx="529" cy="196.5" rx="28" ry="29.5" fill="white"/>
<rect x="429" y="254" width="347" height="40" rx="10" fill="#1A44DF"/>
<path d="M538.544 286.256C536.517 286.256 534.885 285.669 533.648 284.496C532.411 283.301 531.792 281.733 531.792 279.792V269.808C531.792 267.867 532.411 266.309 533.648 265.136C534.885 263.941 536.517 263.344 538.544 263.344C539.888 263.344 541.072 263.611 542.096 264.144C543.12 264.656 543.909 265.392 544.464 266.352C545.04 267.312 545.328 268.4 545.328 269.616V270.48C545.328 270.693 545.221 270.8 545.008 270.8H542.576C542.363 270.8 542.256 270.693 542.256 270.48V269.616C542.256 268.549 541.915 267.685 541.232 267.024C540.571 266.341 539.675 266 538.544 266C537.435 266 536.539 266.352 535.856 267.056C535.173 267.739 534.832 268.635 534.832 269.744V279.856C534.832 280.965 535.173 281.872 535.856 282.576C536.56 283.259 537.477 283.6 538.608 283.6C539.717 283.6 540.603 283.28 541.264 282.64C541.925 282 542.256 281.136 542.256 280.048V277.072C542.256 276.987 542.213 276.944 542.128 276.944H538.768C538.555 276.944 538.448 276.837 538.448 276.624V274.64C538.448 274.427 538.555 274.32 538.768 274.32H545.008C545.221 274.32 545.328 274.427 545.328 274.64V279.632C545.328 281.701 544.709 283.323 543.472 284.496C542.256 285.669 540.613 286.256 538.544 286.256ZM560.245 286C560.074 286 559.957 285.915 559.893 285.744L556.181 276.208C556.16 276.144 556.117 276.112 556.053 276.112H552.629C552.544 276.112 552.501 276.155 552.501 276.24V285.68C552.501 285.893 552.394 286 552.181 286H549.749C549.536 286 549.429 285.893 549.429 285.68V263.92C549.429 263.707 549.536 263.6 549.749 263.6H556.917C558.709 263.6 560.149 264.187 561.237 265.36C562.325 266.533 562.869 268.069 562.869 269.968C562.869 271.397 562.538 272.624 561.877 273.648C561.216 274.672 560.309 275.376 559.157 275.76C559.093 275.781 559.072 275.835 559.093 275.92L562.997 285.616L563.029 285.744C563.029 285.915 562.933 286 562.741 286H560.245ZM552.629 266.256C552.544 266.256 552.501 266.299 552.501 266.384V273.552C552.501 273.637 552.544 273.68 552.629 273.68H556.501C557.482 273.68 558.272 273.349 558.869 272.688C559.488 272.005 559.797 271.109 559.797 270C559.797 268.869 559.498 267.963 558.901 267.28C558.304 266.597 557.504 266.256 556.501 266.256H552.629ZM578.317 286C578.125 286 578.007 285.904 577.965 285.712L577.005 282C576.983 281.936 576.93 281.904 576.845 281.904H569.773C569.666 281.904 569.613 281.936 569.613 282L568.685 285.712C568.663 285.904 568.546 286 568.333 286H565.837C565.73 286 565.645 285.968 565.581 285.904C565.538 285.84 565.527 285.755 565.549 285.648L571.469 263.888C571.511 263.696 571.629 263.6 571.821 263.6H574.829C575.021 263.6 575.138 263.696 575.181 263.888L581.133 285.648L581.165 285.744C581.165 285.915 581.058 286 580.845 286H578.317ZM570.285 279.344C570.263 279.365 570.263 279.397 570.285 279.44C570.327 279.461 570.37 279.472 570.413 279.472H576.205C576.247 279.472 576.279 279.461 576.301 279.44C576.343 279.397 576.354 279.365 576.333 279.344L573.357 267.76C573.335 267.717 573.314 267.696 573.293 267.696C573.271 267.696 573.25 267.717 573.229 267.76L570.285 279.344ZM584.499 286C584.286 286 584.179 285.893 584.179 285.68V263.92C584.179 263.707 584.286 263.6 584.499 263.6H590.995C592.979 263.6 594.558 264.165 595.731 265.296C596.926 266.427 597.523 267.931 597.523 269.808V279.792C597.523 281.669 596.926 283.173 595.731 284.304C594.558 285.435 592.979 286 590.995 286H584.499ZM587.251 283.216C587.251 283.301 587.294 283.344 587.379 283.344L591.059 283.312C592.083 283.312 592.894 282.971 593.491 282.288C594.11 281.584 594.43 280.645 594.451 279.472V270.128C594.451 268.933 594.142 267.995 593.523 267.312C592.904 266.608 592.072 266.256 591.027 266.256H587.379C587.294 266.256 587.251 266.299 587.251 266.384V283.216ZM608.209 286.256C606.865 286.256 605.671 285.979 604.625 285.424C603.601 284.848 602.801 284.048 602.225 283.024C601.671 281.979 601.393 280.773 601.393 279.408V263.92C601.393 263.707 601.5 263.6 601.713 263.6H604.145C604.359 263.6 604.465 263.707 604.465 263.92V279.6C604.465 280.795 604.807 281.765 605.489 282.512C606.193 283.237 607.1 283.6 608.209 283.6C609.34 283.6 610.247 283.237 610.929 282.512C611.633 281.765 611.985 280.795 611.985 279.6V263.92C611.985 263.707 612.092 263.6 612.305 263.6H614.737C614.951 263.6 615.057 263.707 615.057 263.92V279.408C615.057 280.773 614.769 281.979 614.193 283.024C613.639 284.048 612.839 284.848 611.793 285.424C610.769 285.979 609.575 286.256 608.209 286.256ZM630.348 286C630.156 286 630.038 285.904 629.996 285.712L629.036 282C629.014 281.936 628.961 281.904 628.876 281.904H621.804C621.697 281.904 621.644 281.936 621.644 282L620.716 285.712C620.694 285.904 620.577 286 620.364 286H617.868C617.761 286 617.676 285.968 617.612 285.904C617.569 285.84 617.558 285.755 617.58 285.648L623.5 263.888C623.542 263.696 623.66 263.6 623.852 263.6H626.86C627.052 263.6 627.169 263.696 627.212 263.888L633.164 285.648L633.196 285.744C633.196 285.915 633.089 286 632.876 286H630.348ZM622.316 279.344C622.294 279.365 622.294 279.397 622.316 279.44C622.358 279.461 622.401 279.472 622.444 279.472H628.236C628.278 279.472 628.31 279.461 628.332 279.44C628.374 279.397 628.385 279.365 628.364 279.344L625.388 267.76C625.366 267.717 625.345 267.696 625.324 267.696C625.302 267.696 625.281 267.717 625.26 267.76L622.316 279.344ZM648.829 270.064C648.829 270.149 648.797 270.224 648.733 270.288C648.669 270.352 648.594 270.384 648.509 270.384L646.077 270.512C645.863 270.512 645.757 270.405 645.757 270.192V269.712C645.757 268.603 645.415 267.707 644.733 267.024C644.05 266.341 643.154 266 642.045 266C640.935 266 640.029 266.341 639.325 267.024C638.642 267.707 638.301 268.603 638.301 269.712V279.888C638.301 280.997 638.642 281.893 639.325 282.576C640.029 283.259 640.935 283.6 642.045 283.6C643.154 283.6 644.05 283.259 644.733 282.576C645.415 281.893 645.757 280.997 645.757 279.888V279.44C645.757 279.227 645.863 279.12 646.077 279.12L648.509 279.248C648.722 279.248 648.829 279.355 648.829 279.568V279.792C648.829 281.605 648.285 283.088 647.197 284.24C646.13 285.371 644.69 286.021 642.877 286.192C642.749 286.235 642.738 286.288 642.845 286.352C643.762 287.269 644.221 288.229 644.221 289.232C644.221 289.488 644.189 289.744 644.125 290C643.954 290.704 643.613 291.205 643.101 291.504C642.61 291.803 642.034 291.952 641.373 291.952C640.989 291.952 640.541 291.888 640.029 291.76C639.837 291.696 639.751 291.568 639.773 291.376L639.933 290.32C639.954 290.213 639.997 290.139 640.061 290.096C640.146 290.075 640.231 290.075 640.317 290.096C640.53 290.139 640.701 290.16 640.829 290.16C641.533 290.16 641.949 289.819 642.077 289.136C642.098 289.051 642.109 288.933 642.109 288.784C642.109 288.379 641.959 287.941 641.661 287.472C641.362 287.024 640.957 286.587 640.445 286.16C640.445 286.139 640.391 286.107 640.285 286.064C638.727 285.765 637.49 285.051 636.573 283.92C635.677 282.768 635.229 281.36 635.229 279.696V269.872C635.229 267.888 635.847 266.309 637.085 265.136C638.343 263.941 639.997 263.344 642.045 263.344C644.093 263.344 645.735 263.931 646.973 265.104C648.21 266.277 648.829 267.835 648.829 269.776V270.064ZM663.754 286C663.562 286 663.445 285.904 663.402 285.712L662.442 282C662.421 281.936 662.367 281.904 662.282 281.904H655.21C655.103 281.904 655.05 281.936 655.05 282L654.122 285.712C654.101 285.904 653.983 286 653.77 286H651.274C651.167 286 651.082 285.968 651.018 285.904C650.975 285.84 650.965 285.755 650.986 285.648L656.906 263.888C656.949 263.696 657.066 263.6 657.258 263.6H660.266C660.458 263.6 660.575 263.696 660.618 263.888L666.57 285.648L666.602 285.744C666.602 285.915 666.495 286 666.282 286H663.754ZM655.722 279.344C655.701 279.365 655.701 279.397 655.722 279.44C655.765 279.461 655.807 279.472 655.85 279.472H661.642C661.685 279.472 661.717 279.461 661.738 279.44C661.781 279.397 661.791 279.365 661.77 279.344L658.794 267.76C658.773 267.717 658.751 267.696 658.73 267.696C658.709 267.696 658.687 267.717 658.666 267.76L655.722 279.344ZM660.618 260.72C660.298 260.72 659.999 260.667 659.722 260.56C659.445 260.453 659.135 260.293 658.794 260.08C658.687 260.016 658.527 259.931 658.314 259.824C658.122 259.696 657.951 259.611 657.802 259.568C657.653 259.504 657.493 259.472 657.322 259.472C657.023 259.472 656.757 259.536 656.522 259.664C656.287 259.771 656.063 259.973 655.85 260.272C655.722 260.464 655.573 260.496 655.402 260.368L654.506 259.664C654.357 259.536 654.325 259.397 654.41 259.248C654.709 258.629 655.093 258.171 655.562 257.872C656.031 257.552 656.554 257.392 657.13 257.392C657.493 257.392 657.823 257.456 658.122 257.584C658.421 257.712 658.751 257.893 659.114 258.128C659.221 258.192 659.37 258.288 659.562 258.416C659.754 258.523 659.925 258.608 660.074 258.672C660.245 258.736 660.415 258.768 660.586 258.768C661.205 258.768 661.695 258.48 662.058 257.904C662.186 257.712 662.335 257.68 662.506 257.808L663.37 258.48C663.455 258.565 663.498 258.651 663.498 258.736C663.498 258.821 663.466 258.917 663.402 259.024C663.082 259.6 662.666 260.027 662.154 260.304C661.663 260.581 661.151 260.72 660.618 260.72ZM675.515 286.288C674.15 286.288 672.944 286.011 671.899 285.456C670.875 284.88 670.075 284.08 669.499 283.056C668.923 282.032 668.635 280.848 668.635 279.504V270.096C668.635 268.773 668.923 267.6 669.499 266.576C670.075 265.552 670.875 264.763 671.899 264.208C672.944 263.632 674.15 263.344 675.515 263.344C676.88 263.344 678.086 263.632 679.131 264.208C680.176 264.763 680.987 265.552 681.563 266.576C682.139 267.6 682.427 268.773 682.427 270.096V279.504C682.427 280.848 682.139 282.032 681.563 283.056C680.987 284.08 680.176 284.88 679.131 285.456C678.086 286.011 676.88 286.288 675.515 286.288ZM675.515 283.6C676.667 283.6 677.595 283.237 678.299 282.512C679.003 281.787 679.355 280.827 679.355 279.632V270.032C679.355 268.837 679.003 267.867 678.299 267.12C677.595 266.373 676.667 266 675.515 266C674.384 266 673.467 266.373 672.763 267.12C672.059 267.867 671.707 268.837 671.707 270.032V279.632C671.707 280.805 672.059 281.765 672.763 282.512C673.467 283.237 674.384 283.6 675.515 283.6Z" fill="white"/>
</svg>
