<svg width="1160" height="408" viewBox="0 0 1160 408" fill="none" xmlns="http://www.w3.org/2000/svg">
<mask id="path-1-inside-1_78_122" fill="white">
<path d="M0 20C0 8.9543 8.95431 0 20 0H1140C1151.05 0 1160 8.95431 1160 20V384C1160 395.046 1151.05 404 1140 404H20C8.95428 404 0 395.046 0 384V20Z"/>
</mask>
<path d="M0 20C0 8.9543 8.95431 0 20 0H1140C1151.05 0 1160 8.95431 1160 20V384C1160 395.046 1151.05 404 1140 404H20C8.95428 404 0 395.046 0 384V20Z" fill="#1A44DF"/>
<path d="M0 0H1160H0ZM1160 384C1160 450.274 1106.27 504 1040 504H120C53.7258 504 0 450.274 0 384V304C0 304 8.95431 304 20 304H1140C1151.05 304 1160 304 1160 304V384ZM0 404V0V404ZM1160 0V404V0Z" fill="#1A44DF" mask="url(#path-1-inside-1_78_122)"/>
<g filter="url(#filter0_d_78_122)">
<rect x="775" y="107" width="222" height="35" fill="#132F95"/>
<rect x="775.5" y="107.5" width="221" height="34" stroke="black"/>
</g>
<g filter="url(#filter1_d_78_122)">
<rect x="848" y="139" width="222" height="35" fill="#132F95"/>
<rect x="848.5" y="139.5" width="221" height="34" stroke="black"/>
</g>
<g filter="url(#filter2_d_78_122)">
<rect x="775" y="171" width="245" height="98" fill="#132F95"/>
<rect x="775.5" y="171.5" width="244" height="97" stroke="black"/>
</g>
<g filter="url(#filter3_d_78_122)">
<rect x="822" y="266" width="164" height="35" fill="#132F95"/>
<rect x="822.5" y="266.5" width="163" height="34" stroke="black"/>
</g>
<path d="M839.056 278.44C839.056 278.28 839.136 278.2 839.296 278.2H841.12C841.28 278.2 841.36 278.28 841.36 278.44V294.76C841.36 294.92 841.28 295 841.12 295H839.2C839.056 295 838.96 294.944 838.912 294.832L833.128 283.192C833.096 283.16 833.064 283.144 833.032 283.144C833.016 283.144 833.008 283.168 833.008 283.216L833.032 294.76C833.032 294.92 832.952 295 832.792 295H830.968C830.808 295 830.728 294.92 830.728 294.76V278.44C830.728 278.28 830.808 278.2 830.968 278.2H832.888C833.032 278.2 833.128 278.256 833.176 278.368L838.936 290.008C838.968 290.04 838.992 290.056 839.008 290.056C839.04 290.056 839.056 290.032 839.056 289.984V278.44ZM849.566 295.216C848.542 295.216 847.638 295.008 846.854 294.592C846.086 294.16 845.486 293.56 845.054 292.792C844.622 292.024 844.406 291.136 844.406 290.128V283.072C844.406 282.08 844.622 281.2 845.054 280.432C845.486 279.664 846.086 279.072 846.854 278.656C847.638 278.224 848.542 278.008 849.566 278.008C850.59 278.008 851.494 278.224 852.278 278.656C853.062 279.072 853.67 279.664 854.102 280.432C854.534 281.2 854.75 282.08 854.75 283.072V290.128C854.75 291.136 854.534 292.024 854.102 292.792C853.67 293.56 853.062 294.16 852.278 294.592C851.494 295.008 850.59 295.216 849.566 295.216ZM849.566 293.2C850.43 293.2 851.126 292.928 851.654 292.384C852.182 291.84 852.446 291.12 852.446 290.224V283.024C852.446 282.128 852.182 281.4 851.654 280.84C851.126 280.28 850.43 280 849.566 280C848.718 280 848.03 280.28 847.502 280.84C846.974 281.4 846.71 282.128 846.71 283.024V290.224C846.71 291.104 846.974 291.824 847.502 292.384C848.03 292.928 848.718 293.2 849.566 293.2ZM867.33 295.192C866.322 295.192 865.426 294.992 864.642 294.592C863.874 294.176 863.274 293.6 862.842 292.864C862.426 292.112 862.218 291.248 862.218 290.272V282.904C862.218 281.416 862.682 280.232 863.61 279.352C864.554 278.456 865.794 278.008 867.33 278.008C868.866 278.008 870.098 278.448 871.026 279.328C871.954 280.208 872.418 281.376 872.418 282.832V283.024C872.418 283.104 872.394 283.168 872.346 283.216C872.298 283.264 872.242 283.288 872.178 283.288L870.354 283.384C870.194 283.384 870.114 283.304 870.114 283.144V282.784C870.114 281.952 869.858 281.28 869.346 280.768C868.834 280.256 868.162 280 867.33 280C866.498 280 865.818 280.256 865.29 280.768C864.778 281.28 864.522 281.952 864.522 282.784V290.416C864.522 291.248 864.778 291.92 865.29 292.432C865.818 292.944 866.498 293.2 867.33 293.2C868.162 293.2 868.834 292.944 869.346 292.432C869.858 291.92 870.114 291.248 870.114 290.416V290.08C870.114 289.92 870.194 289.84 870.354 289.84L872.178 289.936C872.338 289.936 872.418 290.016 872.418 290.176V290.344C872.418 291.304 872.202 292.152 871.77 292.888C871.354 293.624 870.762 294.192 869.994 294.592C869.226 294.992 868.338 295.192 867.33 295.192ZM880.321 295.192C879.313 295.192 878.417 294.984 877.633 294.568C876.865 294.136 876.265 293.536 875.833 292.768C875.417 291.984 875.209 291.08 875.209 290.056V278.44C875.209 278.28 875.289 278.2 875.449 278.2H877.273C877.433 278.2 877.513 278.28 877.513 278.44V290.2C877.513 291.096 877.769 291.824 878.281 292.384C878.809 292.928 879.489 293.2 880.321 293.2C881.169 293.2 881.849 292.928 882.361 292.384C882.889 291.824 883.153 291.096 883.153 290.2V278.44C883.153 278.28 883.233 278.2 883.393 278.2H885.217C885.377 278.2 885.457 278.28 885.457 278.44V290.056C885.457 291.08 885.241 291.984 884.809 292.768C884.393 293.536 883.793 294.136 883.009 294.568C882.241 294.984 881.345 295.192 880.321 295.192ZM896.871 295C896.743 295 896.655 294.936 896.607 294.808L893.823 287.656C893.807 287.608 893.775 287.584 893.727 287.584H891.159C891.095 287.584 891.063 287.616 891.063 287.68V294.76C891.063 294.92 890.983 295 890.823 295H888.999C888.839 295 888.759 294.92 888.759 294.76V278.44C888.759 278.28 888.839 278.2 888.999 278.2H894.375C895.719 278.2 896.799 278.64 897.615 279.52C898.431 280.4 898.839 281.552 898.839 282.976C898.839 284.048 898.591 284.968 898.095 285.736C897.599 286.504 896.919 287.032 896.055 287.32C896.007 287.336 895.991 287.376 896.007 287.44L898.935 294.712L898.959 294.808C898.959 294.936 898.887 295 898.743 295H896.871ZM891.159 280.192C891.095 280.192 891.063 280.224 891.063 280.288V285.664C891.063 285.728 891.095 285.76 891.159 285.76H894.063C894.799 285.76 895.391 285.512 895.839 285.016C896.303 284.504 896.535 283.832 896.535 283C896.535 282.152 896.311 281.472 895.863 280.96C895.415 280.448 894.815 280.192 894.063 280.192H891.159ZM906.042 295.192C905.018 295.192 904.114 295.008 903.33 294.64C902.562 294.256 901.962 293.728 901.53 293.056C901.114 292.384 900.906 291.6 900.906 290.704V290.056C900.906 289.896 900.986 289.816 901.146 289.816H902.922C903.082 289.816 903.162 289.896 903.162 290.056V290.584C903.162 291.368 903.426 292 903.954 292.48C904.498 292.96 905.226 293.2 906.138 293.2C906.954 293.2 907.594 292.984 908.058 292.552C908.538 292.104 908.778 291.52 908.778 290.8C908.778 290.32 908.658 289.904 908.418 289.552C908.178 289.2 907.826 288.872 907.362 288.568C906.914 288.264 906.258 287.88 905.394 287.416C904.418 286.904 903.634 286.448 903.042 286.048C902.466 285.648 901.986 285.144 901.602 284.536C901.218 283.928 901.026 283.192 901.026 282.328C901.026 280.984 901.466 279.928 902.346 279.16C903.226 278.392 904.394 278.008 905.85 278.008C906.858 278.008 907.746 278.2 908.514 278.584C909.282 278.968 909.874 279.512 910.29 280.216C910.722 280.904 910.938 281.704 910.938 282.616V283.168C910.938 283.328 910.858 283.408 910.698 283.408H908.898C908.738 283.408 908.658 283.328 908.658 283.168V282.664C908.658 281.88 908.402 281.24 907.89 280.744C907.378 280.248 906.682 280 905.802 280C905.018 280 904.402 280.2 903.954 280.6C903.522 281 903.306 281.568 903.306 282.304C903.306 282.784 903.41 283.192 903.618 283.528C903.842 283.864 904.178 284.184 904.626 284.488C905.074 284.776 905.738 285.144 906.618 285.592C907.722 286.216 908.554 286.728 909.114 287.128C909.69 287.528 910.154 288.016 910.506 288.592C910.874 289.168 911.058 289.864 911.058 290.68C911.058 292.056 910.602 293.152 909.69 293.968C908.794 294.784 907.578 295.192 906.042 295.192ZM918.543 295.216C917.519 295.216 916.615 295.008 915.831 294.592C915.063 294.16 914.463 293.56 914.031 292.792C913.599 292.024 913.383 291.136 913.383 290.128V283.072C913.383 282.08 913.599 281.2 914.031 280.432C914.463 279.664 915.063 279.072 915.831 278.656C916.615 278.224 917.519 278.008 918.543 278.008C919.567 278.008 920.471 278.224 921.255 278.656C922.039 279.072 922.647 279.664 923.079 280.432C923.511 281.2 923.727 282.08 923.727 283.072V290.128C923.727 291.136 923.511 292.024 923.079 292.792C922.647 293.56 922.039 294.16 921.255 294.592C920.471 295.008 919.567 295.216 918.543 295.216ZM918.543 293.2C919.407 293.2 920.103 292.928 920.631 292.384C921.159 291.84 921.423 291.12 921.423 290.224V283.024C921.423 282.128 921.159 281.4 920.631 280.84C920.103 280.28 919.407 280 918.543 280C917.695 280 917.007 280.28 916.479 280.84C915.951 281.4 915.687 282.128 915.687 283.024V290.224C915.687 291.104 915.951 291.824 916.479 292.384C917.007 292.928 917.695 293.2 918.543 293.2ZM940.987 278.2C941.147 278.2 941.227 278.28 941.227 278.44V279.976C941.227 280.136 941.147 280.216 940.987 280.216H937.123C937.059 280.216 937.027 280.248 937.027 280.312V294.76C937.027 294.92 936.947 295 936.787 295H934.963C934.803 295 934.723 294.92 934.723 294.76V280.312C934.723 280.248 934.691 280.216 934.627 280.216H930.931C930.771 280.216 930.691 280.136 930.691 279.976V278.44C930.691 278.28 930.771 278.2 930.931 278.2H940.987ZM947.699 295.216C946.675 295.216 945.771 295.008 944.987 294.592C944.219 294.16 943.619 293.56 943.187 292.792C942.755 292.024 942.539 291.136 942.539 290.128V283.072C942.539 282.08 942.755 281.2 943.187 280.432C943.619 279.664 944.219 279.072 944.987 278.656C945.771 278.224 946.675 278.008 947.699 278.008C948.723 278.008 949.627 278.224 950.411 278.656C951.195 279.072 951.803 279.664 952.235 280.432C952.667 281.2 952.883 282.08 952.883 283.072V290.128C952.883 291.136 952.667 292.024 952.235 292.792C951.803 293.56 951.195 294.16 950.411 294.592C949.627 295.008 948.723 295.216 947.699 295.216ZM947.699 293.2C948.563 293.2 949.259 292.928 949.787 292.384C950.315 291.84 950.579 291.12 950.579 290.224V283.024C950.579 282.128 950.315 281.4 949.787 280.84C949.259 280.28 948.563 280 947.699 280C946.851 280 946.163 280.28 945.635 280.84C945.107 281.4 944.843 282.128 944.843 283.024V290.224C944.843 291.104 945.107 291.824 945.635 292.384C946.163 292.928 946.851 293.2 947.699 293.2ZM956.195 295C956.035 295 955.955 294.92 955.955 294.76V278.44C955.955 278.28 956.035 278.2 956.195 278.2H961.067C962.555 278.2 963.739 278.624 964.619 279.472C965.515 280.32 965.963 281.448 965.963 282.856V290.344C965.963 291.752 965.515 292.88 964.619 293.728C963.739 294.576 962.555 295 961.067 295H956.195ZM958.259 292.912C958.259 292.976 958.291 293.008 958.355 293.008L961.115 292.984C961.883 292.984 962.491 292.728 962.939 292.216C963.403 291.688 963.643 290.984 963.659 290.104V283.096C963.659 282.2 963.427 281.496 962.963 280.984C962.499 280.456 961.875 280.192 961.091 280.192H958.355C958.291 280.192 958.259 280.224 958.259 280.288V292.912ZM973.738 295.216C972.714 295.216 971.81 295.008 971.026 294.592C970.258 294.16 969.658 293.56 969.226 292.792C968.794 292.024 968.578 291.136 968.578 290.128V283.072C968.578 282.08 968.794 281.2 969.226 280.432C969.658 279.664 970.258 279.072 971.026 278.656C971.81 278.224 972.714 278.008 973.738 278.008C974.762 278.008 975.666 278.224 976.45 278.656C977.234 279.072 977.842 279.664 978.274 280.432C978.706 281.2 978.922 282.08 978.922 283.072V290.128C978.922 291.136 978.706 292.024 978.274 292.792C977.842 293.56 977.234 294.16 976.45 294.592C975.666 295.008 974.762 295.216 973.738 295.216ZM973.738 293.2C974.602 293.2 975.298 292.928 975.826 292.384C976.354 291.84 976.618 291.12 976.618 290.224V283.024C976.618 282.128 976.354 281.4 975.826 280.84C975.298 280.28 974.602 280 973.738 280C972.89 280 972.202 280.28 971.674 280.84C971.146 281.4 970.882 282.128 970.882 283.024V290.224C970.882 291.104 971.146 291.824 971.674 292.384C972.202 292.928 972.89 293.2 973.738 293.2Z" fill="white"/>
<path d="M801.84 209C801.712 209 801.624 208.936 801.576 208.808L798.792 201.656C798.776 201.608 798.744 201.584 798.696 201.584H796.128C796.064 201.584 796.032 201.616 796.032 201.68V208.76C796.032 208.92 795.952 209 795.792 209H793.968C793.808 209 793.728 208.92 793.728 208.76V192.44C793.728 192.28 793.808 192.2 793.968 192.2H799.344C800.688 192.2 801.768 192.64 802.584 193.52C803.4 194.4 803.808 195.552 803.808 196.976C803.808 198.048 803.56 198.968 803.064 199.736C802.568 200.504 801.888 201.032 801.024 201.32C800.976 201.336 800.96 201.376 800.976 201.44L803.904 208.712L803.928 208.808C803.928 208.936 803.856 209 803.712 209H801.84ZM796.128 194.192C796.064 194.192 796.032 194.224 796.032 194.288V199.664C796.032 199.728 796.064 199.76 796.128 199.76H799.032C799.768 199.76 800.36 199.512 800.808 199.016C801.272 198.504 801.504 197.832 801.504 197C801.504 196.152 801.28 195.472 800.832 194.96C800.384 194.448 799.784 194.192 799.032 194.192H796.128ZM815.717 204.68C815.717 205.896 815.365 206.896 814.661 207.68C813.957 208.464 813.005 208.944 811.805 209.12C811.741 209.136 811.709 209.176 811.709 209.24L811.733 210.872C811.733 211.032 811.653 211.112 811.493 211.112H810.077C809.917 211.112 809.837 211.032 809.837 210.872L809.861 209.216C809.861 209.152 809.829 209.112 809.765 209.096C808.533 208.92 807.565 208.44 806.861 207.656C806.157 206.872 805.805 205.888 805.805 204.704V204.056C805.805 203.896 805.885 203.816 806.045 203.816H807.773C807.933 203.816 808.013 203.896 808.013 204.056V204.584C808.013 205.368 808.269 206 808.781 206.48C809.309 206.96 810.013 207.2 810.893 207.2C811.709 207.2 812.341 206.984 812.789 206.552C813.253 206.104 813.485 205.52 813.485 204.8C813.485 204.32 813.365 203.904 813.125 203.552C812.901 203.2 812.565 202.872 812.117 202.568C811.669 202.264 811.021 201.88 810.173 201.416C809.213 200.904 808.453 200.448 807.893 200.048C807.333 199.648 806.861 199.144 806.477 198.536C806.109 197.928 805.925 197.192 805.925 196.328C805.925 195.144 806.261 194.184 806.933 193.448C807.605 192.696 808.525 192.232 809.693 192.056C809.757 192.056 809.789 192.024 809.789 191.96L809.765 190.184C809.765 190.024 809.845 189.944 810.005 189.944H811.421C811.581 189.944 811.661 190.024 811.661 190.184L811.613 191.984C811.613 192.048 811.645 192.088 811.709 192.104C812.909 192.296 813.853 192.792 814.541 193.592C815.245 194.392 815.597 195.4 815.597 196.616V197.168C815.597 197.328 815.517 197.408 815.357 197.408H813.605C813.445 197.408 813.365 197.328 813.365 197.168V196.664C813.365 195.88 813.117 195.24 812.621 194.744C812.125 194.248 811.445 194 810.581 194C809.829 194 809.229 194.2 808.781 194.6C808.349 195 808.133 195.568 808.133 196.304C808.133 196.784 808.237 197.192 808.445 197.528C808.669 197.864 808.997 198.176 809.429 198.464C809.861 198.752 810.509 199.128 811.373 199.592C812.445 200.216 813.261 200.728 813.821 201.128C814.381 201.528 814.837 202.016 815.189 202.592C815.541 203.168 815.717 203.864 815.717 204.68Z" fill="white"/>
<path d="M914.128 166C913.984 166 913.896 165.928 913.864 165.784L913.144 163C913.128 162.952 913.088 162.928 913.024 162.928H907.72C907.64 162.928 907.6 162.952 907.6 163L906.904 165.784C906.888 165.928 906.8 166 906.64 166H904.768C904.688 166 904.624 165.976 904.576 165.928C904.544 165.88 904.536 165.816 904.552 165.736L908.992 149.416C909.024 149.272 909.112 149.2 909.256 149.2H911.512C911.656 149.2 911.744 149.272 911.776 149.416L916.24 165.736L916.264 165.808C916.264 165.936 916.184 166 916.024 166H914.128ZM908.104 161.008C908.088 161.024 908.088 161.048 908.104 161.08C908.136 161.096 908.168 161.104 908.2 161.104H912.544C912.576 161.104 912.6 161.096 912.616 161.08C912.648 161.048 912.656 161.024 912.64 161.008L910.408 152.32C910.392 152.288 910.376 152.272 910.36 152.272C910.344 152.272 910.328 152.288 910.312 152.32L908.104 161.008ZM928.874 149.176C930.234 149.176 931.322 149.624 932.138 150.52C932.97 151.4 933.386 152.568 933.386 154.024C933.386 155.448 932.97 156.6 932.138 157.48C931.322 158.344 930.234 158.776 928.874 158.776H925.658C925.594 158.776 925.562 158.808 925.562 158.872V165.76C925.562 165.92 925.482 166 925.322 166H923.498C923.338 166 923.258 165.92 923.258 165.76V149.416C923.258 149.256 923.338 149.176 923.498 149.176H928.874ZM928.538 156.928C929.306 156.928 929.922 156.672 930.386 156.16C930.866 155.632 931.106 154.936 931.106 154.072C931.106 153.192 930.866 152.488 930.386 151.96C929.922 151.432 929.306 151.168 928.538 151.168H925.658C925.594 151.168 925.562 151.2 925.562 151.264V156.832C925.562 156.896 925.594 156.928 925.658 156.928H928.538ZM943.495 166C943.351 166 943.263 165.928 943.231 165.784L942.511 163C942.495 162.952 942.455 162.928 942.391 162.928H937.087C937.007 162.928 936.967 162.952 936.967 163L936.271 165.784C936.255 165.928 936.167 166 936.007 166H934.135C934.055 166 933.991 165.976 933.943 165.928C933.911 165.88 933.903 165.816 933.919 165.736L938.359 149.416C938.391 149.272 938.479 149.2 938.623 149.2H940.879C941.023 149.2 941.111 149.272 941.143 149.416L945.607 165.736L945.631 165.808C945.631 165.936 945.551 166 945.391 166H943.495ZM937.471 161.008C937.455 161.024 937.455 161.048 937.471 161.08C937.503 161.096 937.535 161.104 937.567 161.104H941.911C941.943 161.104 941.967 161.096 941.983 161.08C942.015 161.048 942.023 161.024 942.007 161.008L939.775 152.32C939.759 152.288 939.743 152.272 939.727 152.272C939.711 152.272 939.695 152.288 939.679 152.32L937.471 161.008ZM956.004 166C955.876 166 955.788 165.936 955.74 165.808L952.956 158.656C952.94 158.608 952.908 158.584 952.86 158.584H950.292C950.228 158.584 950.196 158.616 950.196 158.68V165.76C950.196 165.92 950.116 166 949.956 166H948.132C947.972 166 947.892 165.92 947.892 165.76V149.44C947.892 149.28 947.972 149.2 948.132 149.2H953.508C954.852 149.2 955.932 149.64 956.748 150.52C957.564 151.4 957.972 152.552 957.972 153.976C957.972 155.048 957.724 155.968 957.228 156.736C956.732 157.504 956.052 158.032 955.188 158.32C955.14 158.336 955.124 158.376 955.14 158.44L958.068 165.712L958.092 165.808C958.092 165.936 958.02 166 957.876 166H956.004ZM950.292 151.192C950.228 151.192 950.196 151.224 950.196 151.288V156.664C950.196 156.728 950.228 156.76 950.292 156.76H953.196C953.932 156.76 954.524 156.512 954.972 156.016C955.436 155.504 955.668 154.832 955.668 154C955.668 153.152 955.444 152.472 954.996 151.96C954.548 151.448 953.948 151.192 953.196 151.192H950.292ZM970.073 149.2C970.233 149.2 970.313 149.28 970.313 149.44V150.976C970.313 151.136 970.233 151.216 970.073 151.216H966.209C966.145 151.216 966.113 151.248 966.113 151.312V165.76C966.113 165.92 966.033 166 965.873 166H964.049C963.889 166 963.809 165.92 963.809 165.76V151.312C963.809 151.248 963.777 151.216 963.713 151.216H960.017C959.857 151.216 959.777 151.136 959.777 150.976V149.44C959.777 149.28 959.857 149.2 960.017 149.2H970.073ZM973.093 166C972.933 166 972.853 165.92 972.853 165.76V149.44C972.853 149.28 972.933 149.2 973.093 149.2H974.917C975.077 149.2 975.157 149.28 975.157 149.44V165.76C975.157 165.92 975.077 166 974.917 166H973.093ZM986.731 166C986.603 166 986.515 165.936 986.467 165.808L983.683 158.656C983.667 158.608 983.635 158.584 983.587 158.584H981.019C980.955 158.584 980.923 158.616 980.923 158.68V165.76C980.923 165.92 980.843 166 980.683 166H978.859C978.699 166 978.619 165.92 978.619 165.76V149.44C978.619 149.28 978.699 149.2 978.859 149.2H984.235C985.579 149.2 986.659 149.64 987.475 150.52C988.291 151.4 988.699 152.552 988.699 153.976C988.699 155.048 988.451 155.968 987.955 156.736C987.459 157.504 986.779 158.032 985.915 158.32C985.867 158.336 985.851 158.376 985.867 158.44L988.795 165.712L988.819 165.808C988.819 165.936 988.747 166 988.603 166H986.731ZM981.019 151.192C980.955 151.192 980.923 151.224 980.923 151.288V156.664C980.923 156.728 980.955 156.76 981.019 156.76H983.923C984.659 156.76 985.251 156.512 985.699 156.016C986.163 155.504 986.395 154.832 986.395 154C986.395 153.152 986.171 152.472 985.723 151.96C985.275 151.448 984.675 151.192 983.923 151.192H981.019ZM996.46 166C996.3 166 996.22 165.92 996.22 165.76V149.44C996.22 149.28 996.3 149.2 996.46 149.2H1001.33C1002.82 149.2 1004 149.624 1004.88 150.472C1005.78 151.32 1006.23 152.448 1006.23 153.856V161.344C1006.23 162.752 1005.78 163.88 1004.88 164.728C1004 165.576 1002.82 166 1001.33 166H996.46ZM998.524 163.912C998.524 163.976 998.556 164.008 998.62 164.008L1001.38 163.984C1002.15 163.984 1002.76 163.728 1003.2 163.216C1003.67 162.688 1003.91 161.984 1003.92 161.104V154.096C1003.92 153.2 1003.69 152.496 1003.23 151.984C1002.76 151.456 1002.14 151.192 1001.36 151.192H998.62C998.556 151.192 998.524 151.224 998.524 151.288V163.912ZM1018.8 150.952C1018.8 151.112 1018.72 151.192 1018.56 151.192H1011.6C1011.54 151.192 1011.51 151.224 1011.51 151.288V156.472C1011.51 156.536 1011.54 156.568 1011.6 156.568H1016.19C1016.35 156.568 1016.43 156.648 1016.43 156.808V158.32C1016.43 158.48 1016.35 158.56 1016.19 158.56H1011.6C1011.54 158.56 1011.51 158.592 1011.51 158.656V163.912C1011.51 163.976 1011.54 164.008 1011.6 164.008H1018.56C1018.72 164.008 1018.8 164.088 1018.8 164.248V165.76C1018.8 165.92 1018.72 166 1018.56 166H1009.44C1009.28 166 1009.2 165.92 1009.2 165.76V149.44C1009.2 149.28 1009.28 149.2 1009.44 149.2H1018.56C1018.72 149.2 1018.8 149.28 1018.8 149.44V150.952Z" fill="white"/>
<path d="M827.896 117.368C827.976 117.256 828.072 117.2 828.184 117.2H830.008C830.168 117.2 830.248 117.28 830.248 117.44V133.76C830.248 133.92 830.168 134 830.008 134H828.184C828.024 134 827.944 133.92 827.944 133.76V121.664C827.944 121.616 827.928 121.592 827.896 121.592C827.864 121.576 827.84 121.592 827.824 121.64L824.968 126.368C824.888 126.48 824.792 126.536 824.68 126.536H824.296C824.184 126.536 824.088 126.48 824.008 126.368L821.128 121.688C821.112 121.64 821.088 121.624 821.056 121.64C821.024 121.64 821.008 121.664 821.008 121.712V133.76C821.008 133.92 820.928 134 820.768 134H818.944C818.784 134 818.704 133.92 818.704 133.76V117.44C818.704 117.28 818.784 117.2 818.944 117.2H820.768C820.88 117.2 820.976 117.256 821.056 117.368L824.416 122.792C824.432 122.808 824.456 122.816 824.488 122.816C824.52 122.816 824.544 122.808 824.56 122.792L827.896 117.368ZM843.281 118.952C843.281 119.112 843.201 119.192 843.041 119.192H836.081C836.017 119.192 835.985 119.224 835.985 119.288V124.472C835.985 124.536 836.017 124.568 836.081 124.568H840.665C840.825 124.568 840.905 124.648 840.905 124.808V126.32C840.905 126.48 840.825 126.56 840.665 126.56H836.081C836.017 126.56 835.985 126.592 835.985 126.656V131.912C835.985 131.976 836.017 132.008 836.081 132.008H843.041C843.201 132.008 843.281 132.088 843.281 132.248V133.76C843.281 133.92 843.201 134 843.041 134H833.921C833.761 134 833.681 133.92 833.681 133.76V117.44C833.681 117.28 833.761 117.2 833.921 117.2H843.041C843.201 117.2 843.281 117.28 843.281 117.44V118.952ZM854.361 117.44C854.361 117.28 854.441 117.2 854.601 117.2H856.425C856.585 117.2 856.665 117.28 856.665 117.44V133.76C856.665 133.92 856.585 134 856.425 134H854.505C854.361 134 854.265 133.944 854.217 133.832L848.433 122.192C848.401 122.16 848.369 122.144 848.337 122.144C848.321 122.144 848.313 122.168 848.313 122.216L848.337 133.76C848.337 133.92 848.257 134 848.097 134H846.273C846.113 134 846.033 133.92 846.033 133.76V117.44C846.033 117.28 846.113 117.2 846.273 117.2H848.193C848.337 117.2 848.433 117.256 848.481 117.368L854.241 129.008C854.273 129.04 854.297 129.056 854.313 129.056C854.345 129.056 854.361 129.032 854.361 128.984V117.44ZM864.535 134.192C863.511 134.192 862.607 134.008 861.823 133.64C861.055 133.256 860.455 132.728 860.023 132.056C859.607 131.384 859.399 130.6 859.399 129.704V129.056C859.399 128.896 859.479 128.816 859.639 128.816H861.415C861.575 128.816 861.655 128.896 861.655 129.056V129.584C861.655 130.368 861.919 131 862.447 131.48C862.991 131.96 863.719 132.2 864.631 132.2C865.447 132.2 866.087 131.984 866.551 131.552C867.031 131.104 867.271 130.52 867.271 129.8C867.271 129.32 867.151 128.904 866.911 128.552C866.671 128.2 866.319 127.872 865.855 127.568C865.407 127.264 864.751 126.88 863.887 126.416C862.911 125.904 862.127 125.448 861.535 125.048C860.959 124.648 860.479 124.144 860.095 123.536C859.711 122.928 859.519 122.192 859.519 121.328C859.519 119.984 859.959 118.928 860.839 118.16C861.719 117.392 862.887 117.008 864.343 117.008C865.351 117.008 866.239 117.2 867.007 117.584C867.775 117.968 868.367 118.512 868.783 119.216C869.215 119.904 869.431 120.704 869.431 121.616V122.168C869.431 122.328 869.351 122.408 869.191 122.408H867.391C867.231 122.408 867.151 122.328 867.151 122.168V121.664C867.151 120.88 866.895 120.24 866.383 119.744C865.871 119.248 865.175 119 864.295 119C863.511 119 862.895 119.2 862.447 119.6C862.015 120 861.799 120.568 861.799 121.304C861.799 121.784 861.903 122.192 862.111 122.528C862.335 122.864 862.671 123.184 863.119 123.488C863.567 123.776 864.231 124.144 865.111 124.592C866.215 125.216 867.047 125.728 867.607 126.128C868.183 126.528 868.647 127.016 868.999 127.592C869.367 128.168 869.551 128.864 869.551 129.68C869.551 131.056 869.095 132.152 868.183 132.968C867.287 133.784 866.071 134.192 864.535 134.192ZM880.683 134C880.539 134 880.451 133.928 880.419 133.784L879.699 131C879.683 130.952 879.643 130.928 879.579 130.928H874.275C874.195 130.928 874.155 130.952 874.155 131L873.459 133.784C873.443 133.928 873.355 134 873.195 134H871.323C871.243 134 871.179 133.976 871.131 133.928C871.099 133.88 871.091 133.816 871.107 133.736L875.547 117.416C875.579 117.272 875.667 117.2 875.811 117.2H878.067C878.211 117.2 878.299 117.272 878.331 117.416L882.795 133.736L882.819 133.808C882.819 133.936 882.739 134 882.579 134H880.683ZM874.659 129.008C874.643 129.024 874.643 129.048 874.659 129.08C874.691 129.096 874.723 129.104 874.755 129.104H879.099C879.131 129.104 879.155 129.096 879.171 129.08C879.203 129.048 879.211 129.024 879.195 129.008L876.963 120.32C876.947 120.288 876.931 120.272 876.915 120.272C876.899 120.272 876.883 120.288 876.867 120.32L874.659 129.008ZM885.32 134C885.16 134 885.08 133.92 885.08 133.76V117.44C885.08 117.28 885.16 117.2 885.32 117.2H887.144C887.304 117.2 887.384 117.28 887.384 117.44V131.912C887.384 131.976 887.416 132.008 887.48 132.008H894.296C894.456 132.008 894.536 132.088 894.536 132.248V133.76C894.536 133.92 894.456 134 894.296 134H885.32ZM897.038 134C896.878 134 896.798 133.92 896.798 133.76V117.44C896.798 117.28 896.878 117.2 897.038 117.2H898.862C899.022 117.2 899.102 117.28 899.102 117.44V133.76C899.102 133.92 899.022 134 898.862 134H897.038ZM902.804 134C902.644 134 902.564 133.92 902.564 133.76V117.44C902.564 117.28 902.644 117.2 902.804 117.2H907.676C909.164 117.2 910.348 117.624 911.228 118.472C912.124 119.32 912.572 120.448 912.572 121.856V129.344C912.572 130.752 912.124 131.88 911.228 132.728C910.348 133.576 909.164 134 907.676 134H902.804ZM904.868 131.912C904.868 131.976 904.9 132.008 904.964 132.008L907.724 131.984C908.492 131.984 909.1 131.728 909.548 131.216C910.012 130.688 910.252 129.984 910.268 129.104V122.096C910.268 121.2 910.036 120.496 909.572 119.984C909.108 119.456 908.484 119.192 907.7 119.192H904.964C904.9 119.192 904.868 119.224 904.868 119.288V131.912ZM923.409 134C923.265 134 923.177 133.928 923.145 133.784L922.425 131C922.409 130.952 922.369 130.928 922.305 130.928H917.001C916.921 130.928 916.881 130.952 916.881 131L916.185 133.784C916.169 133.928 916.081 134 915.921 134H914.049C913.969 134 913.905 133.976 913.857 133.928C913.825 133.88 913.817 133.816 913.833 133.736L918.273 117.416C918.305 117.272 918.393 117.2 918.537 117.2H920.793C920.937 117.2 921.025 117.272 921.057 117.416L925.521 133.736L925.545 133.808C925.545 133.936 925.465 134 925.305 134H923.409ZM917.385 129.008C917.369 129.024 917.369 129.048 917.385 129.08C917.417 129.096 917.449 129.104 917.481 129.104H921.825C921.857 129.104 921.881 129.096 921.897 129.08C921.929 129.048 921.937 129.024 921.921 129.008L919.689 120.32C919.673 120.288 919.657 120.272 919.641 120.272C919.625 120.272 919.609 120.288 919.593 120.32L917.385 129.008ZM928.046 134C927.886 134 927.806 133.92 927.806 133.76V117.44C927.806 117.28 927.886 117.2 928.046 117.2H932.918C934.406 117.2 935.59 117.624 936.47 118.472C937.366 119.32 937.814 120.448 937.814 121.856V129.344C937.814 130.752 937.366 131.88 936.47 132.728C935.59 133.576 934.406 134 932.918 134H928.046ZM930.11 131.912C930.11 131.976 930.142 132.008 930.206 132.008L932.966 131.984C933.734 131.984 934.342 131.728 934.79 131.216C935.254 130.688 935.494 129.984 935.51 129.104V122.096C935.51 121.2 935.278 120.496 934.814 119.984C934.35 119.456 933.726 119.192 932.942 119.192H930.206C930.142 119.192 930.11 119.224 930.11 119.288V131.912ZM950.391 118.952C950.391 119.112 950.311 119.192 950.151 119.192H943.191C943.127 119.192 943.095 119.224 943.095 119.288V124.472C943.095 124.536 943.127 124.568 943.191 124.568H947.775C947.935 124.568 948.015 124.648 948.015 124.808V126.32C948.015 126.48 947.935 126.56 947.775 126.56H943.191C943.127 126.56 943.095 126.592 943.095 126.656V131.912C943.095 131.976 943.127 132.008 943.191 132.008H950.151C950.311 132.008 950.391 132.088 950.391 132.248V133.76C950.391 133.92 950.311 134 950.151 134H941.031C940.871 134 940.791 133.92 940.791 133.76V117.44C940.791 117.28 940.871 117.2 941.031 117.2H950.151C950.311 117.2 950.391 117.28 950.391 117.44V118.952ZM957.558 134.192C956.534 134.192 955.63 134.008 954.846 133.64C954.078 133.256 953.478 132.728 953.046 132.056C952.63 131.384 952.422 130.6 952.422 129.704V129.056C952.422 128.896 952.502 128.816 952.662 128.816H954.438C954.598 128.816 954.678 128.896 954.678 129.056V129.584C954.678 130.368 954.942 131 955.47 131.48C956.014 131.96 956.742 132.2 957.654 132.2C958.47 132.2 959.11 131.984 959.574 131.552C960.054 131.104 960.294 130.52 960.294 129.8C960.294 129.32 960.174 128.904 959.934 128.552C959.694 128.2 959.342 127.872 958.878 127.568C958.43 127.264 957.774 126.88 956.91 126.416C955.934 125.904 955.15 125.448 954.558 125.048C953.982 124.648 953.502 124.144 953.118 123.536C952.734 122.928 952.542 122.192 952.542 121.328C952.542 119.984 952.982 118.928 953.862 118.16C954.742 117.392 955.91 117.008 957.366 117.008C958.374 117.008 959.262 117.2 960.03 117.584C960.798 117.968 961.39 118.512 961.806 119.216C962.238 119.904 962.454 120.704 962.454 121.616V122.168C962.454 122.328 962.374 122.408 962.214 122.408H960.414C960.254 122.408 960.174 122.328 960.174 122.168V121.664C960.174 120.88 959.918 120.24 959.406 119.744C958.894 119.248 958.198 119 957.318 119C956.534 119 955.918 119.2 955.47 119.6C955.038 120 954.822 120.568 954.822 121.304C954.822 121.784 954.926 122.192 955.134 122.528C955.358 122.864 955.694 123.184 956.142 123.488C956.59 123.776 957.254 124.144 958.134 124.592C959.238 125.216 960.07 125.728 960.63 126.128C961.206 126.528 961.67 127.016 962.022 127.592C962.39 128.168 962.574 128.864 962.574 129.68C962.574 131.056 962.118 132.152 961.206 132.968C960.31 133.784 959.094 134.192 957.558 134.192Z" fill="white"/>
<path d="M885.84 239.552C885.648 239.872 885.712 240.032 886.032 240.032H911.472C912.112 240.032 912.432 240.352 912.432 240.992V247.04C912.432 247.68 912.112 248 911.472 248H875.28C874.64 248 874.32 247.68 874.32 247.04V240.896C874.32 240.448 874.448 240.064 874.704 239.744C882.96 229.12 889.392 220.576 894 214.112C898.928 207.264 901.392 201.792 901.392 197.696C901.392 194.752 900.56 192.416 898.896 190.688C897.232 188.896 895.024 188 892.272 188C889.584 188 887.408 188.896 885.744 190.688C884.144 192.416 883.376 194.72 883.44 197.6V200.96C883.44 201.6 883.12 201.92 882.48 201.92H875.088C874.448 201.92 874.128 201.6 874.128 200.96V196.832C874.256 191.776 876.016 187.712 879.408 184.64C882.864 181.568 887.216 180.032 892.464 180.032C896.112 180.032 899.312 180.8 902.064 182.336C904.816 183.808 906.928 185.888 908.4 188.576C909.936 191.264 910.704 194.304 910.704 197.696C910.704 203.392 908.144 209.856 903.024 217.088C900.08 221.248 895.28 227.552 888.624 236L885.84 239.552ZM953.853 191.744C955.069 194.432 955.677 197.632 955.677 201.344V231.776C955.677 236.96 954.013 241.088 950.685 244.16C947.357 247.232 943.005 248.768 937.629 248.768C932.445 248.768 928.253 247.232 925.053 244.16C921.853 241.088 920.253 237.056 920.253 232.064V230.048C920.253 229.408 920.573 229.088 921.213 229.088H928.509C929.149 229.088 929.469 229.408 929.469 230.048V231.392C929.469 234.144 930.237 236.384 931.773 238.112C933.309 239.84 935.261 240.704 937.629 240.704C940.253 240.704 942.365 239.84 943.965 238.112C945.629 236.32 946.461 233.984 946.461 231.104V218.912C946.461 218.784 946.397 218.688 946.269 218.624C946.205 218.56 946.109 218.592 945.981 218.72C943.485 221.664 940.157 223.136 935.997 223.136C932.093 223.136 928.829 222.112 926.205 220.064C923.581 218.016 921.693 215.2 920.541 211.616C919.517 208.992 919.005 205.664 919.005 201.632C919.005 198.048 919.357 195.168 920.061 192.992C921.085 188.832 923.069 185.632 926.013 183.392C928.957 181.152 932.701 180.032 937.245 180.032C941.405 180.032 944.925 181.056 947.805 183.104C950.685 185.088 952.701 187.968 953.853 191.744ZM937.341 215.456C939.453 215.456 941.181 214.912 942.525 213.824C943.933 212.672 944.925 211.072 945.501 209.024C946.141 207.04 946.461 204.608 946.461 201.728C946.461 199.104 946.237 196.896 945.789 195.104C945.213 192.864 944.189 191.136 942.717 189.92C941.309 188.704 939.517 188.096 937.341 188.096C935.229 188.096 933.437 188.736 931.965 190.016C930.493 191.232 929.469 193.024 928.893 195.392C928.445 197.504 928.221 199.648 928.221 201.824C928.221 204.576 928.541 207.008 929.181 209.12C930.525 213.344 933.245 215.456 937.341 215.456ZM998.291 191.744C999.507 194.432 1000.11 197.632 1000.11 201.344V231.776C1000.11 236.96 998.451 241.088 995.123 244.16C991.795 247.232 987.443 248.768 982.067 248.768C976.883 248.768 972.691 247.232 969.491 244.16C966.291 241.088 964.691 237.056 964.691 232.064V230.048C964.691 229.408 965.011 229.088 965.651 229.088H972.947C973.587 229.088 973.907 229.408 973.907 230.048V231.392C973.907 234.144 974.675 236.384 976.211 238.112C977.747 239.84 979.699 240.704 982.067 240.704C984.691 240.704 986.803 239.84 988.403 238.112C990.067 236.32 990.899 233.984 990.899 231.104V218.912C990.899 218.784 990.835 218.688 990.707 218.624C990.643 218.56 990.547 218.592 990.419 218.72C987.923 221.664 984.595 223.136 980.435 223.136C976.531 223.136 973.267 222.112 970.643 220.064C968.019 218.016 966.131 215.2 964.979 211.616C963.955 208.992 963.443 205.664 963.443 201.632C963.443 198.048 963.795 195.168 964.499 192.992C965.523 188.832 967.507 185.632 970.451 183.392C973.395 181.152 977.139 180.032 981.683 180.032C985.843 180.032 989.363 181.056 992.243 183.104C995.123 185.088 997.139 187.968 998.291 191.744ZM981.779 215.456C983.891 215.456 985.619 214.912 986.963 213.824C988.371 212.672 989.363 211.072 989.939 209.024C990.579 207.04 990.899 204.608 990.899 201.728C990.899 199.104 990.675 196.896 990.227 195.104C989.651 192.864 988.627 191.136 987.155 189.92C985.747 188.704 983.955 188.096 981.779 188.096C979.667 188.096 977.875 188.736 976.403 190.016C974.931 191.232 973.907 193.024 973.331 195.392C972.883 197.504 972.659 199.648 972.659 201.824C972.659 204.576 972.979 207.008 973.619 209.12C974.963 213.344 977.683 215.456 981.779 215.456Z" fill="white"/>
<path d="M0 20C0 8.9543 8.95431 0 20 0H585L591 101L576 201.336L591 304.329L583 404L20 404C8.95432 404 0 395.046 0 384V20Z" fill="#132F95"/>
<g filter="url(#filter4_d_78_122)">
<rect x="80" y="103" width="222" height="67" fill="#1A44DF"/>
<rect x="80.5" y="103.5" width="221" height="66" stroke="black"/>
</g>
<g filter="url(#filter5_d_78_122)">
<rect x="150" y="170" width="362" height="67" fill="#1A44DF"/>
<rect x="150.5" y="170.5" width="361" height="66" stroke="black"/>
</g>
<path d="M135.288 151.384C133.24 151.384 131.432 151.016 129.864 150.28C128.328 149.512 127.128 148.456 126.264 147.112C125.432 145.768 125.016 144.2 125.016 142.408V141.112C125.016 140.792 125.176 140.632 125.496 140.632H129.048C129.368 140.632 129.528 140.792 129.528 141.112V142.168C129.528 143.736 130.056 145 131.112 145.96C132.2 146.92 133.656 147.4 135.48 147.4C137.112 147.4 138.392 146.968 139.32 146.104C140.28 145.208 140.76 144.04 140.76 142.6C140.76 141.64 140.52 140.808 140.04 140.104C139.56 139.4 138.856 138.744 137.928 138.136C137.032 137.528 135.72 136.76 133.992 135.832C132.04 134.808 130.472 133.896 129.288 133.096C128.136 132.296 127.176 131.288 126.408 130.072C125.64 128.856 125.256 127.384 125.256 125.656C125.256 122.968 126.136 120.856 127.896 119.32C129.656 117.784 131.992 117.016 134.904 117.016C136.92 117.016 138.696 117.4 140.232 118.168C141.768 118.936 142.952 120.024 143.784 121.432C144.648 122.808 145.08 124.408 145.08 126.232V127.336C145.08 127.656 144.92 127.816 144.6 127.816H141C140.68 127.816 140.52 127.656 140.52 127.336V126.328C140.52 124.76 140.008 123.48 138.984 122.488C137.96 121.496 136.568 121 134.808 121C133.24 121 132.008 121.4 131.112 122.2C130.248 123 129.816 124.136 129.816 125.608C129.816 126.568 130.024 127.384 130.44 128.056C130.888 128.728 131.56 129.368 132.456 129.976C133.352 130.552 134.68 131.288 136.44 132.184C138.648 133.432 140.312 134.456 141.432 135.256C142.584 136.056 143.512 137.032 144.216 138.184C144.952 139.336 145.32 140.728 145.32 142.36C145.32 145.112 144.408 147.304 142.584 148.936C140.792 150.568 138.36 151.384 135.288 151.384ZM160.72 151.384C158.704 151.384 156.912 150.968 155.344 150.136C153.808 149.272 152.608 148.072 151.744 146.536C150.912 144.968 150.496 143.16 150.496 141.112V117.88C150.496 117.56 150.656 117.4 150.976 117.4H154.624C154.944 117.4 155.104 117.56 155.104 117.88V141.4C155.104 143.192 155.616 144.648 156.64 145.768C157.696 146.856 159.056 147.4 160.72 147.4C162.416 147.4 163.776 146.856 164.8 145.768C165.856 144.648 166.384 143.192 166.384 141.4V117.88C166.384 117.56 166.544 117.4 166.864 117.4H170.512C170.832 117.4 170.992 117.56 170.992 117.88V141.112C170.992 143.16 170.56 144.968 169.696 146.536C168.864 148.072 167.664 149.272 166.096 150.136C164.56 150.968 162.768 151.384 160.72 151.384ZM188.403 117.352C191.123 117.352 193.299 118.248 194.931 120.04C196.595 121.8 197.427 124.136 197.427 127.048C197.427 129.896 196.595 132.2 194.931 133.96C193.299 135.688 191.123 136.552 188.403 136.552H181.971C181.843 136.552 181.779 136.616 181.779 136.744V150.52C181.779 150.84 181.619 151 181.299 151H177.651C177.331 151 177.171 150.84 177.171 150.52V117.832C177.171 117.512 177.331 117.352 177.651 117.352H188.403ZM187.731 132.856C189.267 132.856 190.499 132.344 191.427 131.32C192.387 130.264 192.867 128.872 192.867 127.144C192.867 125.384 192.387 123.976 191.427 122.92C190.499 121.864 189.267 121.336 187.731 121.336H181.971C181.843 121.336 181.779 121.4 181.779 121.528V132.664C181.779 132.792 181.843 132.856 181.971 132.856H187.731ZM221.594 120.904C221.594 121.224 221.434 121.384 221.114 121.384H207.194C207.066 121.384 207.002 121.448 207.002 121.576V131.944C207.002 132.072 207.066 132.136 207.194 132.136H216.362C216.682 132.136 216.842 132.296 216.842 132.616V135.64C216.842 135.96 216.682 136.12 216.362 136.12H207.194C207.066 136.12 207.002 136.184 207.002 136.312V146.824C207.002 146.952 207.066 147.016 207.194 147.016H221.114C221.434 147.016 221.594 147.176 221.594 147.496V150.52C221.594 150.84 221.434 151 221.114 151H202.874C202.554 151 202.394 150.84 202.394 150.52V117.88C202.394 117.56 202.554 117.4 202.874 117.4H221.114C221.434 117.4 221.594 117.56 221.594 117.88V120.904ZM243.321 151C243.065 151 242.889 150.872 242.793 150.616L237.225 136.312C237.193 136.216 237.129 136.168 237.033 136.168H231.897C231.769 136.168 231.705 136.232 231.705 136.36V150.52C231.705 150.84 231.545 151 231.225 151H227.577C227.257 151 227.097 150.84 227.097 150.52V117.88C227.097 117.56 227.257 117.4 227.577 117.4H238.329C241.017 117.4 243.177 118.28 244.809 120.04C246.441 121.8 247.257 124.104 247.257 126.952C247.257 129.096 246.761 130.936 245.769 132.472C244.777 134.008 243.417 135.064 241.689 135.64C241.593 135.672 241.561 135.752 241.593 135.88L247.449 150.424L247.497 150.616C247.497 150.872 247.353 151 247.065 151H243.321ZM231.897 121.384C231.769 121.384 231.705 121.448 231.705 121.576V132.328C231.705 132.456 231.769 132.52 231.897 132.52H237.705C239.177 132.52 240.361 132.024 241.257 131.032C242.185 130.008 242.649 128.664 242.649 127C242.649 125.304 242.201 123.944 241.305 122.92C240.409 121.896 239.209 121.384 237.705 121.384H231.897Z" fill="white"/>
<path d="M180.8 215.36C179.093 215.36 177.587 215.013 176.28 214.32C175 213.6 174 212.6 173.28 211.32C172.56 210.04 172.2 208.56 172.2 206.88V195.12C172.2 193.467 172.56 192 173.28 190.72C174 189.44 175 188.453 176.28 187.76C177.587 187.04 179.093 186.68 180.8 186.68C182.507 186.68 184.013 187.04 185.32 187.76C186.627 188.453 187.64 189.44 188.36 190.72C189.08 192 189.44 193.467 189.44 195.12V206.88C189.44 208.56 189.08 210.04 188.36 211.32C187.64 212.6 186.627 213.6 185.32 214.32C184.013 215.013 182.507 215.36 180.8 215.36ZM180.8 212C182.24 212 183.4 211.547 184.28 210.64C185.16 209.733 185.6 208.533 185.6 207.04V195.04C185.6 193.547 185.16 192.333 184.28 191.4C183.4 190.467 182.24 190 180.8 190C179.387 190 178.24 190.467 177.36 191.4C176.48 192.333 176.04 193.547 176.04 195.04V207.04C176.04 208.507 176.48 209.707 177.36 210.64C178.24 211.547 179.387 212 180.8 212ZM203.8 186.96C206.066 186.96 207.88 187.707 209.24 189.2C210.626 190.667 211.32 192.613 211.32 195.04C211.32 197.413 210.626 199.333 209.24 200.8C207.88 202.24 206.066 202.96 203.8 202.96H198.44C198.333 202.96 198.28 203.013 198.28 203.12V214.6C198.28 214.867 198.146 215 197.88 215H194.84C194.573 215 194.44 214.867 194.44 214.6V187.36C194.44 187.093 194.573 186.96 194.84 186.96H203.8ZM203.24 199.88C204.52 199.88 205.546 199.453 206.32 198.6C207.12 197.72 207.52 196.56 207.52 195.12C207.52 193.653 207.12 192.48 206.32 191.6C205.546 190.72 204.52 190.28 203.24 190.28H198.44C198.333 190.28 198.28 190.333 198.28 190.44V199.72C198.28 199.827 198.333 199.88 198.44 199.88H203.24ZM223.378 215.36C221.671 215.36 220.165 215.013 218.858 214.32C217.578 213.6 216.578 212.6 215.858 211.32C215.138 210.04 214.778 208.56 214.778 206.88V195.12C214.778 193.467 215.138 192 215.858 190.72C216.578 189.44 217.578 188.453 218.858 187.76C220.165 187.04 221.671 186.68 223.378 186.68C225.085 186.68 226.591 187.04 227.898 187.76C229.205 188.453 230.218 189.44 230.938 190.72C231.658 192 232.018 193.467 232.018 195.12V206.88C232.018 208.56 231.658 210.04 230.938 211.32C230.218 212.6 229.205 213.6 227.898 214.32C226.591 215.013 225.085 215.36 223.378 215.36ZM223.378 212C224.818 212 225.978 211.547 226.858 210.64C227.738 209.733 228.178 208.533 228.178 207.04V195.04C228.178 193.547 227.738 192.333 226.858 191.4C225.978 190.467 224.818 190 223.378 190C221.965 190 220.818 190.467 219.938 191.4C219.058 192.333 218.618 193.547 218.618 195.04V207.04C218.618 208.507 219.058 209.707 219.938 210.64C220.818 211.547 221.965 212 223.378 212ZM250.658 215C250.444 215 250.298 214.893 250.218 214.68L245.578 202.76C245.551 202.68 245.498 202.64 245.418 202.64H241.138C241.031 202.64 240.978 202.693 240.978 202.8V214.6C240.978 214.867 240.844 215 240.578 215H237.538C237.271 215 237.138 214.867 237.138 214.6V187.4C237.138 187.133 237.271 187 237.538 187H246.498C248.738 187 250.538 187.733 251.898 189.2C253.258 190.667 253.938 192.587 253.938 194.96C253.938 196.747 253.524 198.28 252.698 199.56C251.871 200.84 250.738 201.72 249.298 202.2C249.218 202.227 249.191 202.293 249.218 202.4L254.098 214.52L254.138 214.68C254.138 214.893 254.018 215 253.778 215H250.658ZM241.138 190.32C241.031 190.32 240.978 190.373 240.978 190.48V199.44C240.978 199.547 241.031 199.6 241.138 199.6H245.978C247.204 199.6 248.191 199.187 248.938 198.36C249.711 197.507 250.098 196.387 250.098 195C250.098 193.587 249.724 192.453 248.978 191.6C248.231 190.747 247.231 190.32 245.978 190.32H241.138ZM274.106 187C274.373 187 274.506 187.133 274.506 187.4V189.96C274.506 190.227 274.373 190.36 274.106 190.36H267.666C267.559 190.36 267.506 190.413 267.506 190.52V214.6C267.506 214.867 267.373 215 267.106 215H264.066C263.799 215 263.666 214.867 263.666 214.6V190.52C263.666 190.413 263.613 190.36 263.506 190.36H257.346C257.079 190.36 256.946 190.227 256.946 189.96V187.4C256.946 187.133 257.079 187 257.346 187H274.106ZM287.019 215.32C285.339 215.32 283.846 214.973 282.539 214.28C281.259 213.56 280.259 212.56 279.539 211.28C278.846 209.973 278.499 208.467 278.499 206.76V187.4C278.499 187.133 278.633 187 278.899 187H281.939C282.206 187 282.339 187.133 282.339 187.4V207C282.339 208.493 282.766 209.707 283.619 210.64C284.499 211.547 285.633 212 287.019 212C288.433 212 289.566 211.547 290.419 210.64C291.299 209.707 291.739 208.493 291.739 207V187.4C291.739 187.133 291.873 187 292.139 187H295.179C295.446 187 295.579 187.133 295.579 187.4V206.76C295.579 208.467 295.219 209.973 294.499 211.28C293.806 212.56 292.806 213.56 291.499 214.28C290.219 214.973 288.726 215.32 287.019 215.32ZM314.729 187.4C314.729 187.133 314.862 187 315.129 187H318.169C318.435 187 318.569 187.133 318.569 187.4V214.6C318.569 214.867 318.435 215 318.169 215H314.969C314.729 215 314.569 214.907 314.489 214.72L304.849 195.32C304.795 195.267 304.742 195.24 304.689 195.24C304.662 195.24 304.649 195.28 304.649 195.36L304.689 214.6C304.689 214.867 304.555 215 304.289 215H301.249C300.982 215 300.849 214.867 300.849 214.6V187.4C300.849 187.133 300.982 187 301.249 187H304.449C304.689 187 304.849 187.093 304.929 187.28L314.529 206.68C314.582 206.733 314.622 206.76 314.649 206.76C314.702 206.76 314.729 206.72 314.729 206.64V187.4ZM324.725 215C324.459 215 324.325 214.867 324.325 214.6V187.4C324.325 187.133 324.459 187 324.725 187H327.765C328.032 187 328.165 187.133 328.165 187.4V214.6C328.165 214.867 328.032 215 327.765 215H324.725ZM334.335 215C334.068 215 333.935 214.867 333.935 214.6V187.4C333.935 187.133 334.068 187 334.335 187H342.455C344.935 187 346.908 187.707 348.375 189.12C349.868 190.533 350.615 192.413 350.615 194.76V207.24C350.615 209.587 349.868 211.467 348.375 212.88C346.908 214.293 344.935 215 342.455 215H334.335ZM337.775 211.52C337.775 211.627 337.828 211.68 337.935 211.68L342.535 211.64C343.815 211.64 344.828 211.213 345.575 210.36C346.348 209.48 346.748 208.307 346.775 206.84V195.16C346.775 193.667 346.388 192.493 345.615 191.64C344.841 190.76 343.801 190.32 342.495 190.32H337.935C337.828 190.32 337.775 190.373 337.775 190.48V211.52ZM368.677 215C368.437 215 368.29 214.88 368.237 214.64L367.037 210C367.01 209.92 366.944 209.88 366.837 209.88H357.997C357.864 209.88 357.797 209.92 357.797 210L356.637 214.64C356.61 214.88 356.464 215 356.197 215H353.077C352.944 215 352.837 214.96 352.757 214.88C352.704 214.8 352.69 214.693 352.717 214.56L360.117 187.36C360.17 187.12 360.317 187 360.557 187H364.317C364.557 187 364.704 187.12 364.757 187.36L372.197 214.56L372.237 214.68C372.237 214.893 372.104 215 371.837 215H368.677ZM358.637 206.68C358.61 206.707 358.61 206.747 358.637 206.8C358.69 206.827 358.744 206.84 358.797 206.84H366.037C366.09 206.84 366.13 206.827 366.157 206.8C366.21 206.747 366.224 206.707 366.197 206.68L362.477 192.2C362.45 192.147 362.424 192.12 362.397 192.12C362.37 192.12 362.344 192.147 362.317 192.2L358.637 206.68ZM376.405 215C376.138 215 376.005 214.867 376.005 214.6V187.4C376.005 187.133 376.138 187 376.405 187H384.525C387.005 187 388.978 187.707 390.445 189.12C391.938 190.533 392.685 192.413 392.685 194.76V207.24C392.685 209.587 391.938 211.467 390.445 212.88C388.978 214.293 387.005 215 384.525 215H376.405ZM379.845 211.52C379.845 211.627 379.898 211.68 380.005 211.68L384.605 211.64C385.885 211.64 386.898 211.213 387.645 210.36C388.418 209.48 388.818 208.307 388.845 206.84V195.16C388.845 193.667 388.458 192.493 387.685 191.64C386.912 190.76 385.872 190.32 384.565 190.32H380.005C379.898 190.32 379.845 190.373 379.845 190.48V211.52ZM413.646 189.92C413.646 190.187 413.512 190.32 413.246 190.32H401.646C401.539 190.32 401.486 190.373 401.486 190.48V199.12C401.486 199.227 401.539 199.28 401.646 199.28H409.286C409.552 199.28 409.686 199.413 409.686 199.68V202.2C409.686 202.467 409.552 202.6 409.286 202.6H401.646C401.539 202.6 401.486 202.653 401.486 202.76V211.52C401.486 211.627 401.539 211.68 401.646 211.68H413.246C413.512 211.68 413.646 211.813 413.646 212.08V214.6C413.646 214.867 413.512 215 413.246 215H398.046C397.779 215 397.646 214.867 397.646 214.6V187.4C397.646 187.133 397.779 187 398.046 187H413.246C413.512 187 413.646 187.133 413.646 187.4V189.92ZM442.239 189.92C442.239 190.187 442.106 190.32 441.839 190.32H430.239C430.133 190.32 430.079 190.373 430.079 190.48V199.12C430.079 199.227 430.133 199.28 430.239 199.28H437.879C438.146 199.28 438.279 199.413 438.279 199.68V202.2C438.279 202.467 438.146 202.6 437.879 202.6H430.239C430.133 202.6 430.079 202.653 430.079 202.76V211.52C430.079 211.627 430.133 211.68 430.239 211.68H441.839C442.106 211.68 442.239 211.813 442.239 212.08V214.6C442.239 214.867 442.106 215 441.839 215H426.639C426.373 215 426.239 214.867 426.239 214.6V187.4C426.239 187.133 426.373 187 426.639 187H441.839C442.106 187 442.239 187.133 442.239 187.4V189.92ZM461.255 215C461.015 215 460.868 214.88 460.815 214.64L459.615 210C459.588 209.92 459.522 209.88 459.415 209.88H450.575C450.442 209.88 450.375 209.92 450.375 210L449.215 214.64C449.188 214.88 449.042 215 448.775 215H445.655C445.522 215 445.415 214.96 445.335 214.88C445.282 214.8 445.268 214.693 445.295 214.56L452.695 187.36C452.748 187.12 452.895 187 453.135 187H456.895C457.135 187 457.282 187.12 457.335 187.36L464.775 214.56L464.815 214.68C464.815 214.893 464.682 215 464.415 215H461.255ZM451.215 206.68C451.188 206.707 451.188 206.747 451.215 206.8C451.268 206.827 451.322 206.84 451.375 206.84H458.615C458.668 206.84 458.708 206.827 458.735 206.8C458.788 206.747 458.802 206.707 458.775 206.68L455.055 192.2C455.028 192.147 455.002 192.12 454.975 192.12C454.948 192.12 454.922 192.147 454.895 192.2L451.215 206.68ZM468.983 215C468.716 215 468.583 214.867 468.583 214.6V187.4C468.583 187.133 468.716 187 468.983 187H477.103C479.583 187 481.556 187.707 483.023 189.12C484.516 190.533 485.263 192.413 485.263 194.76V207.24C485.263 209.587 484.516 211.467 483.023 212.88C481.556 214.293 479.583 215 477.103 215H468.983ZM472.423 211.52C472.423 211.627 472.476 211.68 472.583 211.68L477.183 211.64C478.463 211.64 479.476 211.213 480.223 210.36C480.996 209.48 481.396 208.307 481.423 206.84V195.16C481.423 193.667 481.036 192.493 480.263 191.64C479.49 190.76 478.45 190.32 477.143 190.32H472.583C472.476 190.32 472.423 190.373 472.423 190.48V211.52Z" fill="white"/>
<path d="M161.328 260.952C161.328 261.112 161.248 261.192 161.088 261.192H154.128C154.064 261.192 154.032 261.224 154.032 261.288V266.472C154.032 266.536 154.064 266.568 154.128 266.568H158.712C158.872 266.568 158.952 266.648 158.952 266.808V268.32C158.952 268.48 158.872 268.56 158.712 268.56H154.128C154.064 268.56 154.032 268.592 154.032 268.656V273.912C154.032 273.976 154.064 274.008 154.128 274.008H161.088C161.248 274.008 161.328 274.088 161.328 274.248V275.76C161.328 275.92 161.248 276 161.088 276H151.968C151.808 276 151.728 275.92 151.728 275.76V259.44C151.728 259.28 151.808 259.2 151.968 259.2H161.088C161.248 259.2 161.328 259.28 161.328 259.44V260.952ZM172.408 259.44C172.408 259.28 172.488 259.2 172.648 259.2H174.472C174.632 259.2 174.712 259.28 174.712 259.44V275.76C174.712 275.92 174.632 276 174.472 276H172.552C172.408 276 172.312 275.944 172.264 275.832L166.48 264.192C166.448 264.16 166.416 264.144 166.384 264.144C166.368 264.144 166.36 264.168 166.36 264.216L166.384 275.76C166.384 275.92 166.304 276 166.144 276H164.32C164.16 276 164.08 275.92 164.08 275.76V259.44C164.08 259.28 164.16 259.2 164.32 259.2H166.24C166.384 259.2 166.48 259.256 166.528 259.368L172.288 271.008C172.32 271.04 172.344 271.056 172.36 271.056C172.392 271.056 172.408 271.032 172.408 270.984V259.44ZM182.582 276.192C181.558 276.192 180.654 276.008 179.87 275.64C179.102 275.256 178.502 274.728 178.07 274.056C177.654 273.384 177.446 272.6 177.446 271.704V271.056C177.446 270.896 177.526 270.816 177.686 270.816H179.462C179.622 270.816 179.702 270.896 179.702 271.056V271.584C179.702 272.368 179.966 273 180.494 273.48C181.038 273.96 181.766 274.2 182.678 274.2C183.494 274.2 184.134 273.984 184.598 273.552C185.078 273.104 185.318 272.52 185.318 271.8C185.318 271.32 185.198 270.904 184.958 270.552C184.718 270.2 184.366 269.872 183.902 269.568C183.454 269.264 182.798 268.88 181.934 268.416C180.958 267.904 180.174 267.448 179.582 267.048C179.006 266.648 178.526 266.144 178.142 265.536C177.758 264.928 177.566 264.192 177.566 263.328C177.566 261.984 178.006 260.928 178.886 260.16C179.766 259.392 180.934 259.008 182.39 259.008C183.398 259.008 184.286 259.2 185.054 259.584C185.822 259.968 186.414 260.512 186.83 261.216C187.262 261.904 187.478 262.704 187.478 263.616V264.168C187.478 264.328 187.398 264.408 187.238 264.408H185.438C185.278 264.408 185.198 264.328 185.198 264.168V263.664C185.198 262.88 184.942 262.24 184.43 261.744C183.918 261.248 183.222 261 182.342 261C181.558 261 180.942 261.2 180.494 261.6C180.062 262 179.846 262.568 179.846 263.304C179.846 263.784 179.95 264.192 180.158 264.528C180.382 264.864 180.718 265.184 181.166 265.488C181.614 265.776 182.278 266.144 183.158 266.592C184.262 267.216 185.094 267.728 185.654 268.128C186.23 268.528 186.694 269.016 187.046 269.592C187.414 270.168 187.598 270.864 187.598 271.68C187.598 273.056 187.142 274.152 186.23 274.968C185.334 275.784 184.118 276.192 182.582 276.192ZM190.57 276C190.41 276 190.33 275.92 190.33 275.76V259.44C190.33 259.28 190.41 259.2 190.57 259.2H192.394C192.554 259.2 192.634 259.28 192.634 259.44V275.76C192.634 275.92 192.554 276 192.394 276H190.57ZM204.423 259.44C204.423 259.28 204.503 259.2 204.663 259.2H206.487C206.647 259.2 206.727 259.28 206.727 259.44V275.76C206.727 275.92 206.647 276 206.487 276H204.567C204.423 276 204.327 275.944 204.279 275.832L198.495 264.192C198.463 264.16 198.431 264.144 198.399 264.144C198.383 264.144 198.375 264.168 198.375 264.216L198.399 275.76C198.399 275.92 198.319 276 198.159 276H196.335C196.175 276 196.095 275.92 196.095 275.76V259.44C196.095 259.28 196.175 259.2 196.335 259.2H198.255C198.399 259.2 198.495 259.256 198.543 259.368L204.303 271.008C204.335 271.04 204.359 271.056 204.375 271.056C204.407 271.056 204.423 271.032 204.423 270.984V259.44ZM214.933 276.216C213.909 276.216 213.005 276.008 212.221 275.592C211.453 275.16 210.853 274.56 210.421 273.792C209.989 273.024 209.773 272.136 209.773 271.128V264.072C209.773 263.08 209.989 262.2 210.421 261.432C210.853 260.664 211.453 260.072 212.221 259.656C213.005 259.224 213.909 259.008 214.933 259.008C215.957 259.008 216.861 259.224 217.645 259.656C218.429 260.072 219.037 260.664 219.469 261.432C219.901 262.2 220.117 263.08 220.117 264.072V271.128C220.117 272.136 219.901 273.024 219.469 273.792C219.037 274.56 218.429 275.16 217.645 275.592C216.861 276.008 215.957 276.216 214.933 276.216ZM214.933 274.2C215.797 274.2 216.493 273.928 217.021 273.384C217.549 272.84 217.813 272.12 217.813 271.224V264.024C217.813 263.128 217.549 262.4 217.021 261.84C216.493 261.28 215.797 261 214.933 261C214.085 261 213.397 261.28 212.869 261.84C212.341 262.4 212.077 263.128 212.077 264.024V271.224C212.077 272.104 212.341 272.824 212.869 273.384C213.397 273.928 214.085 274.2 214.933 274.2ZM228.234 276C228.074 276 227.994 275.92 227.994 275.76V259.44C227.994 259.28 228.074 259.2 228.234 259.2H233.106C234.594 259.2 235.778 259.624 236.658 260.472C237.554 261.32 238.002 262.448 238.002 263.856V271.344C238.002 272.752 237.554 273.88 236.658 274.728C235.778 275.576 234.594 276 233.106 276H228.234ZM230.298 273.912C230.298 273.976 230.33 274.008 230.394 274.008L233.154 273.984C233.922 273.984 234.53 273.728 234.978 273.216C235.442 272.688 235.682 271.984 235.698 271.104V264.096C235.698 263.2 235.466 262.496 235.002 261.984C234.538 261.456 233.914 261.192 233.13 261.192H230.394C230.33 261.192 230.298 261.224 230.298 261.288V273.912ZM250.578 260.952C250.578 261.112 250.498 261.192 250.338 261.192H243.378C243.314 261.192 243.282 261.224 243.282 261.288V266.472C243.282 266.536 243.314 266.568 243.378 266.568H247.962C248.122 266.568 248.202 266.648 248.202 266.808V268.32C248.202 268.48 248.122 268.56 247.962 268.56H243.378C243.314 268.56 243.282 268.592 243.282 268.656V273.912C243.282 273.976 243.314 274.008 243.378 274.008H250.338C250.498 274.008 250.578 274.088 250.578 274.248V275.76C250.578 275.92 250.498 276 250.338 276H241.218C241.058 276 240.978 275.92 240.978 275.76V259.44C240.978 259.28 241.058 259.2 241.218 259.2H250.338C250.498 259.2 250.578 259.28 250.578 259.44V260.952ZM267.302 259.368C267.382 259.256 267.478 259.2 267.59 259.2H269.414C269.574 259.2 269.654 259.28 269.654 259.44V275.76C269.654 275.92 269.574 276 269.414 276H267.59C267.43 276 267.35 275.92 267.35 275.76V263.664C267.35 263.616 267.334 263.592 267.302 263.592C267.27 263.576 267.246 263.592 267.23 263.64L264.374 268.368C264.294 268.48 264.198 268.536 264.086 268.536H263.702C263.59 268.536 263.494 268.48 263.414 268.368L260.534 263.688C260.518 263.64 260.494 263.624 260.462 263.64C260.43 263.64 260.414 263.664 260.414 263.712V275.76C260.414 275.92 260.334 276 260.174 276H258.35C258.19 276 258.11 275.92 258.11 275.76V259.44C258.11 259.28 258.19 259.2 258.35 259.2H260.174C260.286 259.2 260.382 259.256 260.462 259.368L263.822 264.792C263.838 264.808 263.862 264.816 263.894 264.816C263.926 264.816 263.95 264.808 263.966 264.792L267.302 259.368ZM281.487 276C281.343 276 281.255 275.928 281.223 275.784L280.503 273C280.487 272.952 280.447 272.928 280.383 272.928H275.079C274.999 272.928 274.959 272.952 274.959 273L274.263 275.784C274.247 275.928 274.159 276 273.999 276H272.127C272.047 276 271.983 275.976 271.935 275.928C271.903 275.88 271.895 275.816 271.911 275.736L276.351 259.416C276.383 259.272 276.471 259.2 276.615 259.2H278.871C279.015 259.2 279.103 259.272 279.135 259.416L283.599 275.736L283.623 275.808C283.623 275.936 283.543 276 283.383 276H281.487ZM275.463 271.008C275.447 271.024 275.447 271.048 275.463 271.08C275.495 271.096 275.527 271.104 275.559 271.104H279.903C279.935 271.104 279.959 271.096 279.975 271.08C280.007 271.048 280.015 271.024 279.999 271.008L277.767 262.32C277.751 262.288 277.735 262.272 277.719 262.272C277.703 262.272 277.687 262.288 277.671 262.32L275.463 271.008ZM276.735 257.664C276.639 257.664 276.575 257.64 276.543 257.592C276.511 257.528 276.519 257.456 276.567 257.376L277.983 254.784C278.031 254.672 278.127 254.616 278.271 254.616H279.807C279.903 254.616 279.967 254.648 279.999 254.712C280.031 254.76 280.023 254.824 279.975 254.904L278.247 257.52C278.167 257.616 278.071 257.664 277.959 257.664H276.735ZM285.235 276C285.155 276 285.099 275.976 285.067 275.928C285.035 275.864 285.035 275.792 285.067 275.712L289.219 267.672C289.251 267.624 289.251 267.576 289.219 267.528L285.067 259.488C285.051 259.456 285.043 259.416 285.043 259.368C285.043 259.256 285.107 259.2 285.235 259.2H287.179C287.323 259.2 287.419 259.256 287.467 259.368L290.491 265.44C290.507 265.472 290.531 265.488 290.563 265.488C290.595 265.488 290.619 265.472 290.635 265.44L293.611 259.368C293.659 259.256 293.755 259.2 293.899 259.2H295.843C295.923 259.2 295.979 259.232 296.011 259.296C296.043 259.344 296.043 259.408 296.011 259.488L291.859 267.552C291.843 267.6 291.843 267.648 291.859 267.696L296.011 275.712C296.027 275.744 296.035 275.784 296.035 275.832C296.035 275.944 295.971 276 295.843 276H293.923C293.779 276 293.683 275.944 293.635 275.832L290.635 269.76C290.619 269.728 290.595 269.712 290.563 269.712C290.531 269.712 290.507 269.728 290.491 269.76L287.467 275.832C287.419 275.944 287.323 276 287.179 276H285.235ZM298.827 276C298.667 276 298.587 275.92 298.587 275.76V259.44C298.587 259.28 298.667 259.2 298.827 259.2H300.651C300.811 259.2 300.891 259.28 300.891 259.44V275.76C300.891 275.92 300.811 276 300.651 276H298.827ZM313.521 259.368C313.601 259.256 313.697 259.2 313.809 259.2H315.633C315.793 259.2 315.873 259.28 315.873 259.44V275.76C315.873 275.92 315.793 276 315.633 276H313.809C313.649 276 313.569 275.92 313.569 275.76V263.664C313.569 263.616 313.553 263.592 313.521 263.592C313.489 263.576 313.465 263.592 313.449 263.64L310.593 268.368C310.513 268.48 310.417 268.536 310.305 268.536H309.921C309.809 268.536 309.713 268.48 309.633 268.368L306.753 263.688C306.737 263.64 306.713 263.624 306.681 263.64C306.649 263.64 306.633 263.664 306.633 263.712V275.76C306.633 275.92 306.553 276 306.393 276H304.569C304.409 276 304.329 275.92 304.329 275.76V259.44C304.329 259.28 304.409 259.2 304.569 259.2H306.393C306.505 259.2 306.601 259.256 306.681 259.368L310.041 264.792C310.057 264.808 310.081 264.816 310.113 264.816C310.145 264.816 310.169 264.808 310.185 264.792L313.521 259.368ZM327.706 276C327.562 276 327.474 275.928 327.442 275.784L326.722 273C326.706 272.952 326.666 272.928 326.602 272.928H321.298C321.218 272.928 321.178 272.952 321.178 273L320.482 275.784C320.466 275.928 320.378 276 320.218 276H318.346C318.266 276 318.202 275.976 318.154 275.928C318.122 275.88 318.114 275.816 318.13 275.736L322.57 259.416C322.602 259.272 322.69 259.2 322.834 259.2H325.09C325.234 259.2 325.322 259.272 325.354 259.416L329.818 275.736L329.842 275.808C329.842 275.936 329.762 276 329.602 276H327.706ZM321.682 271.008C321.666 271.024 321.666 271.048 321.682 271.08C321.714 271.096 321.746 271.104 321.778 271.104H326.122C326.154 271.104 326.178 271.096 326.194 271.08C326.226 271.048 326.234 271.024 326.218 271.008L323.986 262.32C323.97 262.288 323.954 262.272 323.938 262.272C323.922 262.272 323.906 262.288 323.89 262.32L321.682 271.008ZM341.372 259.008C342.364 259.008 343.236 259.224 343.988 259.656C344.74 260.072 345.324 260.664 345.74 261.432C346.156 262.2 346.364 263.08 346.364 264.072V271.2C346.364 272.464 346.028 273.536 345.356 274.416C344.684 275.28 343.772 275.832 342.62 276.072C342.556 276.088 342.524 276.128 342.524 276.192V278.376C342.524 278.536 342.444 278.616 342.284 278.616H340.46C340.3 278.616 340.22 278.536 340.22 278.376V276.192C340.22 276.128 340.188 276.088 340.124 276.072C338.972 275.832 338.06 275.28 337.388 274.416C336.716 273.536 336.38 272.464 336.38 271.2V264.072C336.38 263.08 336.588 262.2 337.004 261.432C337.42 260.664 338.004 260.072 338.756 259.656C339.524 259.224 340.396 259.008 341.372 259.008ZM344.06 263.904C344.06 263.04 343.812 262.344 343.316 261.816C342.82 261.272 342.172 261 341.372 261C340.572 261 339.924 261.272 339.428 261.816C338.932 262.344 338.684 263.04 338.684 263.904V271.296C338.684 272.16 338.932 272.864 339.428 273.408C339.924 273.936 340.572 274.2 341.372 274.2C342.172 274.2 342.82 273.936 343.316 273.408C343.812 272.864 344.06 272.16 344.06 271.296V263.904ZM354.251 276.192C353.243 276.192 352.347 275.984 351.563 275.568C350.795 275.136 350.195 274.536 349.763 273.768C349.347 272.984 349.139 272.08 349.139 271.056V259.44C349.139 259.28 349.219 259.2 349.379 259.2H351.203C351.363 259.2 351.443 259.28 351.443 259.44V271.2C351.443 272.096 351.699 272.824 352.211 273.384C352.739 273.928 353.419 274.2 354.251 274.2C355.099 274.2 355.779 273.928 356.291 273.384C356.819 272.824 357.083 272.096 357.083 271.2V259.44C357.083 259.28 357.163 259.2 357.323 259.2H359.147C359.307 259.2 359.387 259.28 359.387 259.44V271.056C359.387 272.08 359.171 272.984 358.739 273.768C358.323 274.536 357.723 275.136 356.939 275.568C356.171 275.984 355.275 276.192 354.251 276.192ZM370.855 276C370.711 276 370.623 275.928 370.591 275.784L369.871 273C369.855 272.952 369.815 272.928 369.751 272.928H364.447C364.367 272.928 364.327 272.952 364.327 273L363.631 275.784C363.615 275.928 363.527 276 363.367 276H361.495C361.415 276 361.351 275.976 361.303 275.928C361.271 275.88 361.263 275.816 361.279 275.736L365.719 259.416C365.751 259.272 365.839 259.2 365.983 259.2H368.239C368.383 259.2 368.471 259.272 368.503 259.416L372.967 275.736L372.991 275.808C372.991 275.936 372.911 276 372.751 276H370.855ZM364.831 271.008C364.815 271.024 364.815 271.048 364.831 271.08C364.863 271.096 364.895 271.104 364.927 271.104H369.271C369.303 271.104 369.327 271.096 369.343 271.08C369.375 271.048 369.383 271.024 369.367 271.008L367.135 262.32C367.119 262.288 367.103 262.272 367.087 262.272C367.071 262.272 367.055 262.288 367.039 262.32L364.831 271.008ZM375.491 276C375.331 276 375.251 275.92 375.251 275.76V259.44C375.251 259.28 375.331 259.2 375.491 259.2H377.315C377.475 259.2 377.555 259.28 377.555 259.44V273.912C377.555 273.976 377.587 274.008 377.651 274.008H384.467C384.627 274.008 384.707 274.088 384.707 274.248V275.76C384.707 275.92 384.627 276 384.467 276H375.491ZM387.21 276C387.05 276 386.97 275.92 386.97 275.76V259.44C386.97 259.28 387.05 259.2 387.21 259.2H389.034C389.194 259.2 389.274 259.28 389.274 259.44V275.76C389.274 275.92 389.194 276 389.034 276H387.21ZM392.976 276C392.816 276 392.736 275.92 392.736 275.76V259.44C392.736 259.28 392.816 259.2 392.976 259.2H397.848C399.336 259.2 400.52 259.624 401.4 260.472C402.296 261.32 402.744 262.448 402.744 263.856V271.344C402.744 272.752 402.296 273.88 401.4 274.728C400.52 275.576 399.336 276 397.848 276H392.976ZM395.04 273.912C395.04 273.976 395.072 274.008 395.136 274.008L397.896 273.984C398.664 273.984 399.272 273.728 399.72 273.216C400.184 272.688 400.424 271.984 400.44 271.104V264.096C400.44 263.2 400.208 262.496 399.744 261.984C399.28 261.456 398.656 261.192 397.872 261.192H395.136C395.072 261.192 395.04 261.224 395.04 261.288V273.912ZM413.581 276C413.437 276 413.349 275.928 413.317 275.784L412.597 273C412.581 272.952 412.541 272.928 412.477 272.928H407.173C407.093 272.928 407.053 272.952 407.053 273L406.357 275.784C406.341 275.928 406.253 276 406.093 276H404.221C404.141 276 404.077 275.976 404.029 275.928C403.997 275.88 403.989 275.816 404.005 275.736L408.445 259.416C408.477 259.272 408.565 259.2 408.709 259.2H410.965C411.109 259.2 411.197 259.272 411.229 259.416L415.693 275.736L415.717 275.808C415.717 275.936 415.637 276 415.477 276H413.581ZM407.557 271.008C407.541 271.024 407.541 271.048 407.557 271.08C407.589 271.096 407.621 271.104 407.653 271.104H411.997C412.029 271.104 412.053 271.096 412.069 271.08C412.101 271.048 412.109 271.024 412.093 271.008L409.861 262.32C409.845 262.288 409.829 262.272 409.813 262.272C409.797 262.272 409.781 262.288 409.765 262.32L407.557 271.008ZM418.218 276C418.058 276 417.978 275.92 417.978 275.76V259.44C417.978 259.28 418.058 259.2 418.218 259.2H423.09C424.578 259.2 425.762 259.624 426.642 260.472C427.538 261.32 427.986 262.448 427.986 263.856V271.344C427.986 272.752 427.538 273.88 426.642 274.728C425.762 275.576 424.578 276 423.09 276H418.218ZM420.282 273.912C420.282 273.976 420.314 274.008 420.378 274.008L423.138 273.984C423.906 273.984 424.514 273.728 424.962 273.216C425.426 272.688 425.666 271.984 425.682 271.104V264.096C425.682 263.2 425.45 262.496 424.986 261.984C424.522 261.456 423.898 261.192 423.114 261.192H420.378C420.314 261.192 420.282 261.224 420.282 261.288V273.912ZM440.562 260.952C440.562 261.112 440.482 261.192 440.322 261.192H433.362C433.298 261.192 433.266 261.224 433.266 261.288V266.472C433.266 266.536 433.298 266.568 433.362 266.568H437.946C438.106 266.568 438.186 266.648 438.186 266.808V268.32C438.186 268.48 438.106 268.56 437.946 268.56H433.362C433.298 268.56 433.266 268.592 433.266 268.656V273.912C433.266 273.976 433.298 274.008 433.362 274.008H440.322C440.482 274.008 440.562 274.088 440.562 274.248V275.76C440.562 275.92 440.482 276 440.322 276H431.202C431.042 276 430.962 275.92 430.962 275.76V259.44C430.962 259.28 431.042 259.2 431.202 259.2H440.322C440.482 259.2 440.562 259.28 440.562 259.44V260.952ZM457.719 260.952C457.719 261.112 457.639 261.192 457.479 261.192H450.519C450.455 261.192 450.423 261.224 450.423 261.288V266.472C450.423 266.536 450.455 266.568 450.519 266.568H455.103C455.263 266.568 455.343 266.648 455.343 266.808V268.32C455.343 268.48 455.263 268.56 455.103 268.56H450.519C450.455 268.56 450.423 268.592 450.423 268.656V273.912C450.423 273.976 450.455 274.008 450.519 274.008H457.479C457.639 274.008 457.719 274.088 457.719 274.248V275.76C457.719 275.92 457.639 276 457.479 276H448.359C448.199 276 448.119 275.92 448.119 275.76V259.44C448.119 259.28 448.199 259.2 448.359 259.2H457.479C457.639 259.2 457.719 259.28 457.719 259.44V260.952ZM469.638 259.368C469.718 259.256 469.814 259.2 469.926 259.2H471.75C471.91 259.2 471.99 259.28 471.99 259.44V275.76C471.99 275.92 471.91 276 471.75 276H469.926C469.766 276 469.686 275.92 469.686 275.76V263.664C469.686 263.616 469.67 263.592 469.638 263.592C469.606 263.576 469.582 263.592 469.566 263.64L466.71 268.368C466.63 268.48 466.534 268.536 466.422 268.536H466.038C465.926 268.536 465.83 268.48 465.75 268.368L462.87 263.688C462.854 263.64 462.83 263.624 462.798 263.64C462.766 263.64 462.75 263.664 462.75 263.712V275.76C462.75 275.92 462.67 276 462.51 276H460.686C460.526 276 460.446 275.92 460.446 275.76V259.44C460.446 259.28 460.526 259.2 460.686 259.2H462.51C462.622 259.2 462.718 259.256 462.798 259.368L466.158 264.792C466.174 264.808 466.198 264.816 466.23 264.816C466.262 264.816 466.286 264.808 466.302 264.792L469.638 259.368ZM156.696 305.192C155.688 305.192 154.792 304.984 154.008 304.568C153.24 304.136 152.64 303.536 152.208 302.768C151.792 301.984 151.584 301.08 151.584 300.056V288.44C151.584 288.28 151.664 288.2 151.824 288.2H153.648C153.808 288.2 153.888 288.28 153.888 288.44V300.2C153.888 301.096 154.144 301.824 154.656 302.384C155.184 302.928 155.864 303.2 156.696 303.2C157.544 303.2 158.224 302.928 158.736 302.384C159.264 301.824 159.528 301.096 159.528 300.2V288.44C159.528 288.28 159.608 288.2 159.768 288.2H161.592C161.752 288.2 161.832 288.28 161.832 288.44V300.056C161.832 301.08 161.616 301.984 161.184 302.768C160.768 303.536 160.168 304.136 159.384 304.568C158.616 304.984 157.72 305.192 156.696 305.192ZM174.302 288.368C174.382 288.256 174.478 288.2 174.59 288.2H176.414C176.574 288.2 176.654 288.28 176.654 288.44V304.76C176.654 304.92 176.574 305 176.414 305H174.59C174.43 305 174.35 304.92 174.35 304.76V292.664C174.35 292.616 174.334 292.592 174.302 292.592C174.27 292.576 174.246 292.592 174.23 292.64L171.374 297.368C171.294 297.48 171.198 297.536 171.086 297.536H170.702C170.59 297.536 170.494 297.48 170.414 297.368L167.534 292.688C167.518 292.64 167.494 292.624 167.462 292.64C167.43 292.64 167.414 292.664 167.414 292.712V304.76C167.414 304.92 167.334 305 167.174 305H165.35C165.19 305 165.11 304.92 165.11 304.76V288.44C165.11 288.28 165.19 288.2 165.35 288.2H167.174C167.286 288.2 167.382 288.256 167.462 288.368L170.822 293.792C170.838 293.808 170.862 293.816 170.894 293.816C170.926 293.816 170.95 293.808 170.966 293.792L174.302 288.368ZM188.487 305C188.343 305 188.255 304.928 188.223 304.784L187.503 302C187.487 301.952 187.447 301.928 187.383 301.928H182.079C181.999 301.928 181.959 301.952 181.959 302L181.263 304.784C181.247 304.928 181.159 305 180.999 305H179.127C179.047 305 178.983 304.976 178.935 304.928C178.903 304.88 178.895 304.816 178.911 304.736L183.351 288.416C183.383 288.272 183.471 288.2 183.615 288.2H185.871C186.015 288.2 186.103 288.272 186.135 288.416L190.599 304.736L190.623 304.808C190.623 304.936 190.543 305 190.383 305H188.487ZM182.463 300.008C182.447 300.024 182.447 300.048 182.463 300.08C182.495 300.096 182.527 300.104 182.559 300.104H186.903C186.935 300.104 186.959 300.096 186.975 300.08C187.007 300.048 187.015 300.024 186.999 300.008L184.767 291.32C184.751 291.288 184.735 291.272 184.719 291.272C184.703 291.272 184.687 291.288 184.671 291.32L182.463 300.008ZM202.441 305.216C201.417 305.216 200.513 305.008 199.729 304.592C198.961 304.16 198.361 303.56 197.929 302.792C197.497 302.024 197.281 301.136 197.281 300.128V293.072C197.281 292.08 197.497 291.2 197.929 290.432C198.361 289.664 198.961 289.072 199.729 288.656C200.513 288.224 201.417 288.008 202.441 288.008C203.465 288.008 204.369 288.224 205.153 288.656C205.937 289.072 206.545 289.664 206.977 290.432C207.409 291.2 207.625 292.08 207.625 293.072V300.128C207.625 301.136 207.409 302.024 206.977 302.792C206.545 303.56 205.937 304.16 205.153 304.592C204.369 305.008 203.465 305.216 202.441 305.216ZM202.441 303.2C203.305 303.2 204.001 302.928 204.529 302.384C205.057 301.84 205.321 301.12 205.321 300.224V293.024C205.321 292.128 205.057 291.4 204.529 290.84C204.001 290.28 203.305 290 202.441 290C201.593 290 200.905 290.28 200.377 290.84C199.849 291.4 199.585 292.128 199.585 293.024V300.224C199.585 301.104 199.849 301.824 200.377 302.384C200.905 302.928 201.593 303.2 202.441 303.2ZM216.241 288.176C217.601 288.176 218.689 288.624 219.505 289.52C220.337 290.4 220.753 291.568 220.753 293.024C220.753 294.448 220.337 295.6 219.505 296.48C218.689 297.344 217.601 297.776 216.241 297.776H213.025C212.961 297.776 212.929 297.808 212.929 297.872V304.76C212.929 304.92 212.849 305 212.689 305H210.865C210.705 305 210.625 304.92 210.625 304.76V288.416C210.625 288.256 210.705 288.176 210.865 288.176H216.241ZM215.905 295.928C216.673 295.928 217.289 295.672 217.753 295.16C218.233 294.632 218.473 293.936 218.473 293.072C218.473 292.192 218.233 291.488 217.753 290.96C217.289 290.432 216.673 290.168 215.905 290.168H213.025C212.961 290.168 212.929 290.2 212.929 290.264V295.832C212.929 295.896 212.961 295.928 213.025 295.928H215.905ZM227.988 305.216C226.964 305.216 226.06 305.008 225.276 304.592C224.508 304.16 223.908 303.56 223.476 302.792C223.044 302.024 222.828 301.136 222.828 300.128V293.072C222.828 292.08 223.044 291.2 223.476 290.432C223.908 289.664 224.508 289.072 225.276 288.656C226.06 288.224 226.964 288.008 227.988 288.008C229.012 288.008 229.916 288.224 230.7 288.656C231.484 289.072 232.092 289.664 232.524 290.432C232.956 291.2 233.172 292.08 233.172 293.072V300.128C233.172 301.136 232.956 302.024 232.524 302.792C232.092 303.56 231.484 304.16 230.7 304.592C229.916 305.008 229.012 305.216 227.988 305.216ZM227.988 303.2C228.852 303.2 229.548 302.928 230.076 302.384C230.604 301.84 230.868 301.12 230.868 300.224V293.024C230.868 292.128 230.604 291.4 230.076 290.84C229.548 290.28 228.852 290 227.988 290C227.14 290 226.452 290.28 225.924 290.84C225.396 291.4 225.132 292.128 225.132 293.024V300.224C225.132 301.104 225.396 301.824 225.924 302.384C226.452 302.928 227.14 303.2 227.988 303.2ZM244.356 305C244.228 305 244.14 304.936 244.092 304.808L241.308 297.656C241.292 297.608 241.26 297.584 241.212 297.584H238.644C238.58 297.584 238.548 297.616 238.548 297.68V304.76C238.548 304.92 238.468 305 238.308 305H236.484C236.324 305 236.244 304.92 236.244 304.76V288.44C236.244 288.28 236.324 288.2 236.484 288.2H241.86C243.204 288.2 244.284 288.64 245.1 289.52C245.916 290.4 246.324 291.552 246.324 292.976C246.324 294.048 246.076 294.968 245.58 295.736C245.084 296.504 244.404 297.032 243.54 297.32C243.492 297.336 243.476 297.376 243.492 297.44L246.42 304.712L246.444 304.808C246.444 304.936 246.372 305 246.228 305H244.356ZM238.644 290.192C238.58 290.192 238.548 290.224 238.548 290.288V295.664C238.548 295.728 238.58 295.76 238.644 295.76H241.548C242.284 295.76 242.876 295.512 243.324 295.016C243.788 294.504 244.02 293.832 244.02 293C244.02 292.152 243.796 291.472 243.348 290.96C242.9 290.448 242.3 290.192 241.548 290.192H238.644ZM258.425 288.2C258.585 288.2 258.665 288.28 258.665 288.44V289.976C258.665 290.136 258.585 290.216 258.425 290.216H254.561C254.497 290.216 254.465 290.248 254.465 290.312V304.76C254.465 304.92 254.385 305 254.225 305H252.401C252.241 305 252.161 304.92 252.161 304.76V290.312C252.161 290.248 252.129 290.216 252.065 290.216H248.369C248.209 290.216 248.129 290.136 248.129 289.976V288.44C248.129 288.28 248.209 288.2 248.369 288.2H258.425ZM266.173 305.192C265.165 305.192 264.269 304.984 263.485 304.568C262.717 304.136 262.117 303.536 261.685 302.768C261.269 301.984 261.061 301.08 261.061 300.056V288.44C261.061 288.28 261.141 288.2 261.301 288.2H263.125C263.285 288.2 263.365 288.28 263.365 288.44V300.2C263.365 301.096 263.621 301.824 264.133 302.384C264.661 302.928 265.341 303.2 266.173 303.2C267.021 303.2 267.701 302.928 268.213 302.384C268.741 301.824 269.005 301.096 269.005 300.2V288.44C269.005 288.28 269.085 288.2 269.245 288.2H271.069C271.229 288.2 271.309 288.28 271.309 288.44V300.056C271.309 301.08 271.093 301.984 270.661 302.768C270.245 303.536 269.645 304.136 268.861 304.568C268.093 304.984 267.197 305.192 266.173 305.192ZM282.798 288.44C282.798 288.28 282.878 288.2 283.038 288.2H284.862C285.022 288.2 285.102 288.28 285.102 288.44V304.76C285.102 304.92 285.022 305 284.862 305H282.942C282.798 305 282.702 304.944 282.654 304.832L276.87 293.192C276.838 293.16 276.806 293.144 276.774 293.144C276.758 293.144 276.75 293.168 276.75 293.216L276.774 304.76C276.774 304.92 276.694 305 276.534 305H274.71C274.55 305 274.47 304.92 274.47 304.76V288.44C274.47 288.28 274.55 288.2 274.71 288.2H276.63C276.774 288.2 276.87 288.256 276.918 288.368L282.678 300.008C282.71 300.04 282.734 300.056 282.75 300.056C282.782 300.056 282.798 300.032 282.798 299.984V288.44ZM288.796 305C288.636 305 288.556 304.92 288.556 304.76V288.44C288.556 288.28 288.636 288.2 288.796 288.2H290.62C290.78 288.2 290.86 288.28 290.86 288.44V304.76C290.86 304.92 290.78 305 290.62 305H288.796ZM294.562 305C294.402 305 294.322 304.92 294.322 304.76V288.44C294.322 288.28 294.402 288.2 294.562 288.2H299.434C300.922 288.2 302.106 288.624 302.986 289.472C303.882 290.32 304.33 291.448 304.33 292.856V300.344C304.33 301.752 303.882 302.88 302.986 303.728C302.106 304.576 300.922 305 299.434 305H294.562ZM296.626 302.912C296.626 302.976 296.658 303.008 296.722 303.008L299.482 302.984C300.25 302.984 300.858 302.728 301.306 302.216C301.77 301.688 302.01 300.984 302.026 300.104V293.096C302.026 292.2 301.794 291.496 301.33 290.984C300.866 290.456 300.242 290.192 299.458 290.192H296.722C296.658 290.192 296.626 290.224 296.626 290.288V302.912ZM315.167 305C315.023 305 314.935 304.928 314.903 304.784L314.183 302C314.167 301.952 314.127 301.928 314.063 301.928H308.759C308.679 301.928 308.639 301.952 308.639 302L307.943 304.784C307.927 304.928 307.839 305 307.679 305H305.807C305.727 305 305.663 304.976 305.615 304.928C305.583 304.88 305.575 304.816 305.591 304.736L310.031 288.416C310.063 288.272 310.151 288.2 310.295 288.2H312.551C312.695 288.2 312.783 288.272 312.815 288.416L317.279 304.736L317.303 304.808C317.303 304.936 317.223 305 317.063 305H315.167ZM309.143 300.008C309.127 300.024 309.127 300.048 309.143 300.08C309.175 300.096 309.207 300.104 309.239 300.104H313.583C313.615 300.104 313.639 300.096 313.655 300.08C313.687 300.048 313.695 300.024 313.679 300.008L311.447 291.32C311.431 291.288 311.415 291.272 311.399 291.272C311.383 291.272 311.367 291.288 311.351 291.32L309.143 300.008ZM319.804 305C319.644 305 319.564 304.92 319.564 304.76V288.44C319.564 288.28 319.644 288.2 319.804 288.2H324.676C326.164 288.2 327.348 288.624 328.228 289.472C329.124 290.32 329.572 291.448 329.572 292.856V300.344C329.572 301.752 329.124 302.88 328.228 303.728C327.348 304.576 326.164 305 324.676 305H319.804ZM321.868 302.912C321.868 302.976 321.9 303.008 321.964 303.008L324.724 302.984C325.492 302.984 326.1 302.728 326.548 302.216C327.012 301.688 327.252 300.984 327.268 300.104V293.096C327.268 292.2 327.036 291.496 326.572 290.984C326.108 290.456 325.484 290.192 324.7 290.192H321.964C321.9 290.192 321.868 290.224 321.868 290.288V302.912ZM342.148 289.952C342.148 290.112 342.068 290.192 341.908 290.192H334.948C334.884 290.192 334.852 290.224 334.852 290.288V295.472C334.852 295.536 334.884 295.568 334.948 295.568H339.532C339.692 295.568 339.772 295.648 339.772 295.808V297.32C339.772 297.48 339.692 297.56 339.532 297.56H334.948C334.884 297.56 334.852 297.592 334.852 297.656V302.912C334.852 302.976 334.884 303.008 334.948 303.008H341.908C342.068 303.008 342.148 303.088 342.148 303.248V304.76C342.148 304.92 342.068 305 341.908 305H332.788C332.628 305 332.548 304.92 332.548 304.76V288.44C332.548 288.28 332.628 288.2 332.788 288.2H341.908C342.068 288.2 342.148 288.28 342.148 288.44V289.952ZM349.945 305C349.785 305 349.705 304.92 349.705 304.76V288.44C349.705 288.28 349.785 288.2 349.945 288.2H351.769C351.929 288.2 352.009 288.28 352.009 288.44V304.76C352.009 304.92 351.929 305 351.769 305H349.945ZM363.798 288.44C363.798 288.28 363.878 288.2 364.038 288.2H365.862C366.022 288.2 366.102 288.28 366.102 288.44V304.76C366.102 304.92 366.022 305 365.862 305H363.942C363.798 305 363.702 304.944 363.654 304.832L357.87 293.192C357.838 293.16 357.806 293.144 357.774 293.144C357.758 293.144 357.75 293.168 357.75 293.216L357.774 304.76C357.774 304.92 357.694 305 357.534 305H355.71C355.55 305 355.47 304.92 355.47 304.76V288.44C355.47 288.28 355.55 288.2 355.71 288.2H357.63C357.774 288.2 357.87 288.256 357.918 288.368L363.678 300.008C363.71 300.04 363.734 300.056 363.75 300.056C363.782 300.056 363.798 300.032 363.798 299.984V288.44ZM374.26 305.192C373.252 305.192 372.356 304.992 371.572 304.592C370.804 304.176 370.204 303.6 369.772 302.864C369.356 302.112 369.148 301.248 369.148 300.272V292.904C369.148 291.416 369.612 290.232 370.54 289.352C371.484 288.456 372.724 288.008 374.26 288.008C375.796 288.008 377.028 288.448 377.956 289.328C378.884 290.208 379.348 291.376 379.348 292.832V293.024C379.348 293.104 379.324 293.168 379.276 293.216C379.228 293.264 379.172 293.288 379.108 293.288L377.284 293.384C377.124 293.384 377.044 293.304 377.044 293.144V292.784C377.044 291.952 376.788 291.28 376.276 290.768C375.764 290.256 375.092 290 374.26 290C373.428 290 372.748 290.256 372.22 290.768C371.708 291.28 371.452 291.952 371.452 292.784V300.416C371.452 301.248 371.708 301.92 372.22 302.432C372.748 302.944 373.428 303.2 374.26 303.2C375.092 303.2 375.764 302.944 376.276 302.432C376.788 301.92 377.044 301.248 377.044 300.416V300.08C377.044 299.92 377.124 299.84 377.284 299.84L379.108 299.936C379.268 299.936 379.348 300.016 379.348 300.176V300.344C379.348 301.304 379.132 302.152 378.7 302.888C378.284 303.624 377.692 304.192 376.924 304.592C376.156 304.992 375.268 305.192 374.26 305.192ZM390.395 305C390.267 305 390.179 304.936 390.131 304.808L387.347 297.656C387.331 297.608 387.299 297.584 387.251 297.584H384.683C384.619 297.584 384.587 297.616 384.587 297.68V304.76C384.587 304.92 384.507 305 384.347 305H382.523C382.363 305 382.283 304.92 382.283 304.76V288.44C382.283 288.28 382.363 288.2 382.523 288.2H387.899C389.243 288.2 390.323 288.64 391.139 289.52C391.955 290.4 392.363 291.552 392.363 292.976C392.363 294.048 392.115 294.968 391.619 295.736C391.123 296.504 390.443 297.032 389.579 297.32C389.531 297.336 389.515 297.376 389.531 297.44L392.459 304.712L392.483 304.808C392.483 304.936 392.411 305 392.267 305H390.395ZM384.683 290.192C384.619 290.192 384.587 290.224 384.587 290.288V295.664C384.587 295.728 384.619 295.76 384.683 295.76H387.587C388.323 295.76 388.915 295.512 389.363 295.016C389.827 294.504 390.059 293.832 390.059 293C390.059 292.152 389.835 291.472 389.387 290.96C388.939 290.448 388.339 290.192 387.587 290.192H384.683ZM395.32 305C395.16 305 395.08 304.92 395.08 304.76V288.44C395.08 288.28 395.16 288.2 395.32 288.2H397.144C397.304 288.2 397.384 288.28 397.384 288.44V304.76C397.384 304.92 397.304 305 397.144 305H395.32ZM395.224 286.664C395.128 286.664 395.064 286.64 395.032 286.592C395 286.528 395.008 286.456 395.056 286.376L396.472 283.784C396.52 283.672 396.616 283.616 396.76 283.616H398.296C398.392 283.616 398.456 283.648 398.488 283.712C398.52 283.76 398.512 283.824 398.464 283.904L396.736 286.52C396.656 286.616 396.56 286.664 396.448 286.664H395.224ZM404.445 305C404.301 305 404.213 304.928 404.181 304.784L399.885 288.464L399.861 288.392C399.861 288.264 399.941 288.2 400.101 288.2H402.069C402.229 288.2 402.317 288.272 402.333 288.416L405.453 301.28C405.469 301.328 405.485 301.352 405.501 301.352C405.517 301.352 405.533 301.328 405.549 301.28L408.669 288.416C408.701 288.272 408.789 288.2 408.933 288.2H410.829C410.909 288.2 410.965 288.224 410.997 288.272C411.045 288.32 411.061 288.384 411.045 288.464L406.701 304.784C406.669 304.928 406.581 305 406.437 305H404.445ZM423.008 289.952C423.008 290.112 422.928 290.192 422.768 290.192H415.808C415.744 290.192 415.712 290.224 415.712 290.288V295.472C415.712 295.536 415.744 295.568 415.808 295.568H420.392C420.552 295.568 420.632 295.648 420.632 295.808V297.32C420.632 297.48 420.552 297.56 420.392 297.56H415.808C415.744 297.56 415.712 297.592 415.712 297.656V302.912C415.712 302.976 415.744 303.008 415.808 303.008H422.768C422.928 303.008 423.008 303.088 423.008 303.248V304.76C423.008 304.92 422.928 305 422.768 305H413.648C413.488 305 413.408 304.92 413.408 304.76V288.44C413.408 288.28 413.488 288.2 413.648 288.2H422.768C422.928 288.2 423.008 288.28 423.008 288.44V289.952ZM425.999 305C425.839 305 425.759 304.92 425.759 304.76V288.44C425.759 288.28 425.839 288.2 425.999 288.2H427.823C427.983 288.2 428.063 288.28 428.063 288.44V302.912C428.063 302.976 428.095 303.008 428.159 303.008H434.975C435.135 303.008 435.215 303.088 435.215 303.248V304.76C435.215 304.92 435.135 305 434.975 305H425.999Z" fill="white"/>
<defs>
<filter id="filter0_d_78_122" x="771" y="107" width="230" height="49" filterUnits="userSpaceOnUse" color-interpolation-filters="sRGB">
<feFlood flood-opacity="0" result="BackgroundImageFix"/>
<feColorMatrix in="SourceAlpha" type="matrix" values="0 0 0 0 0 0 0 0 0 0 0 0 0 0 0 0 0 0 127 0" result="hardAlpha"/>
<feOffset dy="10"/>
<feGaussianBlur stdDeviation="2"/>
<feComposite in2="hardAlpha" operator="out"/>
<feColorMatrix type="matrix" values="0 0 0 0 0 0 0 0 0 0 0 0 0 0 0 0 0 0 0.25 0"/>
<feBlend mode="normal" in2="BackgroundImageFix" result="effect1_dropShadow_78_122"/>
<feBlend mode="normal" in="SourceGraphic" in2="effect1_dropShadow_78_122" result="shape"/>
</filter>
<filter id="filter1_d_78_122" x="844" y="139" width="230" height="49" filterUnits="userSpaceOnUse" color-interpolation-filters="sRGB">
<feFlood flood-opacity="0" result="BackgroundImageFix"/>
<feColorMatrix in="SourceAlpha" type="matrix" values="0 0 0 0 0 0 0 0 0 0 0 0 0 0 0 0 0 0 127 0" result="hardAlpha"/>
<feOffset dy="10"/>
<feGaussianBlur stdDeviation="2"/>
<feComposite in2="hardAlpha" operator="out"/>
<feColorMatrix type="matrix" values="0 0 0 0 0 0 0 0 0 0 0 0 0 0 0 0 0 0 0.25 0"/>
<feBlend mode="normal" in2="BackgroundImageFix" result="effect1_dropShadow_78_122"/>
<feBlend mode="normal" in="SourceGraphic" in2="effect1_dropShadow_78_122" result="shape"/>
</filter>
<filter id="filter2_d_78_122" x="771" y="171" width="253" height="112" filterUnits="userSpaceOnUse" color-interpolation-filters="sRGB">
<feFlood flood-opacity="0" result="BackgroundImageFix"/>
<feColorMatrix in="SourceAlpha" type="matrix" values="0 0 0 0 0 0 0 0 0 0 0 0 0 0 0 0 0 0 127 0" result="hardAlpha"/>
<feOffset dy="10"/>
<feGaussianBlur stdDeviation="2"/>
<feComposite in2="hardAlpha" operator="out"/>
<feColorMatrix type="matrix" values="0 0 0 0 0 0 0 0 0 0 0 0 0 0 0 0 0 0 0.25 0"/>
<feBlend mode="normal" in2="BackgroundImageFix" result="effect1_dropShadow_78_122"/>
<feBlend mode="normal" in="SourceGraphic" in2="effect1_dropShadow_78_122" result="shape"/>
</filter>
<filter id="filter3_d_78_122" x="818" y="266" width="172" height="49" filterUnits="userSpaceOnUse" color-interpolation-filters="sRGB">
<feFlood flood-opacity="0" result="BackgroundImageFix"/>
<feColorMatrix in="SourceAlpha" type="matrix" values="0 0 0 0 0 0 0 0 0 0 0 0 0 0 0 0 0 0 127 0" result="hardAlpha"/>
<feOffset dy="10"/>
<feGaussianBlur stdDeviation="2"/>
<feComposite in2="hardAlpha" operator="out"/>
<feColorMatrix type="matrix" values="0 0 0 0 0 0 0 0 0 0 0 0 0 0 0 0 0 0 0.25 0"/>
<feBlend mode="normal" in2="BackgroundImageFix" result="effect1_dropShadow_78_122"/>
<feBlend mode="normal" in="SourceGraphic" in2="effect1_dropShadow_78_122" result="shape"/>
</filter>
<filter id="filter4_d_78_122" x="76" y="103" width="230" height="81" filterUnits="userSpaceOnUse" color-interpolation-filters="sRGB">
<feFlood flood-opacity="0" result="BackgroundImageFix"/>
<feColorMatrix in="SourceAlpha" type="matrix" values="0 0 0 0 0 0 0 0 0 0 0 0 0 0 0 0 0 0 127 0" result="hardAlpha"/>
<feOffset dy="10"/>
<feGaussianBlur stdDeviation="2"/>
<feComposite in2="hardAlpha" operator="out"/>
<feColorMatrix type="matrix" values="0 0 0 0 0 0 0 0 0 0 0 0 0 0 0 0 0 0 0.25 0"/>
<feBlend mode="normal" in2="BackgroundImageFix" result="effect1_dropShadow_78_122"/>
<feBlend mode="normal" in="SourceGraphic" in2="effect1_dropShadow_78_122" result="shape"/>
</filter>
<filter id="filter5_d_78_122" x="146" y="170" width="370" height="81" filterUnits="userSpaceOnUse" color-interpolation-filters="sRGB">
<feFlood flood-opacity="0" result="BackgroundImageFix"/>
<feColorMatrix in="SourceAlpha" type="matrix" values="0 0 0 0 0 0 0 0 0 0 0 0 0 0 0 0 0 0 127 0" result="hardAlpha"/>
<feOffset dy="10"/>
<feGaussianBlur stdDeviation="2"/>
<feComposite in2="hardAlpha" operator="out"/>
<feColorMatrix type="matrix" values="0 0 0 0 0 0 0 0 0 0 0 0 0 0 0 0 0 0 0.25 0"/>
<feBlend mode="normal" in2="BackgroundImageFix" result="effect1_dropShadow_78_122"/>
<feBlend mode="normal" in="SourceGraphic" in2="effect1_dropShadow_78_122" result="shape"/>
</filter>
</defs>
</svg>
