<svg width="187" height="68" viewBox="0 0 187 68" fill="none" xmlns="http://www.w3.org/2000/svg">
<rect y="35.1981" width="40" height="40" rx="2" transform="rotate(-42.8399 0 35.1981)" fill="#132F95"/>
<rect x="26" y="53.1981" width="20" height="20" rx="1" transform="rotate(-42.8399 26 53.1981)" fill="#1A44DF"/>
<path d="M73.56 40.32C71.2667 40.32 69.4267 39.5867 68.04 38.12C66.68 36.6267 66 34.6667 66 32.24V12.48C66 12.3467 66.04 12.24 66.12 12.16C66.2267 12.0533 66.3467 12 66.48 12H70.16C70.2933 12 70.4 12.0533 70.48 12.16C70.5867 12.24 70.64 12.3467 70.64 12.48V32.72C70.64 33.7867 70.9067 34.6533 71.44 35.32C71.9733 35.9867 72.68 36.32 73.56 36.32C74.44 36.32 75.1467 35.9867 75.68 35.32C76.2133 34.6533 76.48 33.7867 76.48 32.72V12.48C76.48 12.3467 76.52 12.24 76.6 12.16C76.7067 12.0533 76.8267 12 76.96 12H80.64C80.7733 12 80.88 12.0533 80.96 12.16C81.0667 12.24 81.12 12.3467 81.12 12.48V32.24C81.12 34.6667 80.4267 36.6267 79.04 38.12C77.6533 39.5867 75.8267 40.32 73.56 40.32ZM104.27 12.48C104.27 12.3467 104.31 12.24 104.39 12.16C104.497 12.0533 104.617 12 104.75 12H108.39C108.523 12 108.63 12.0533 108.71 12.16C108.817 12.24 108.87 12.3467 108.87 12.48V39.52C108.87 39.6533 108.817 39.7733 108.71 39.88C108.63 39.96 108.523 40 108.39 40H104.19C103.923 40 103.75 39.8667 103.67 39.6L97.71 22.64C97.6833 22.56 97.63 22.5333 97.55 22.56C97.4967 22.56 97.47 22.6 97.47 22.68L97.51 39.52C97.51 39.6533 97.4567 39.7733 97.35 39.88C97.27 39.96 97.1633 40 97.03 40H93.39C93.2567 40 93.1367 39.96 93.03 39.88C92.95 39.7733 92.91 39.6533 92.91 39.52V12.48C92.91 12.3467 92.95 12.24 93.03 12.16C93.1367 12.0533 93.2567 12 93.39 12H97.51C97.7767 12 97.95 12.1333 98.03 12.4L104.03 29.24C104.057 29.32 104.097 29.36 104.15 29.36C104.23 29.3333 104.27 29.28 104.27 29.2V12.48ZM135.143 15.52C135.143 15.6533 135.09 15.7733 134.983 15.88C134.903 15.96 134.797 16 134.663 16H126.023C125.89 16 125.823 16.0667 125.823 16.2V23.76C125.823 23.8933 125.89 23.96 126.023 23.96H131.143C131.277 23.96 131.383 24.0133 131.463 24.12C131.57 24.2 131.623 24.3067 131.623 24.44V27.52C131.623 27.6533 131.57 27.7733 131.463 27.88C131.383 27.96 131.277 28 131.143 28H126.023C125.89 28 125.823 28.0667 125.823 28.2V35.8C125.823 35.9333 125.89 36 126.023 36H134.663C134.797 36 134.903 36.0533 134.983 36.16C135.09 36.24 135.143 36.3467 135.143 36.48V39.52C135.143 39.6533 135.09 39.7733 134.983 39.88C134.903 39.96 134.797 40 134.663 40H121.663C121.53 40 121.41 39.96 121.303 39.88C121.223 39.7733 121.183 39.6533 121.183 39.52V12.48C121.183 12.3467 121.223 12.24 121.303 12.16C121.41 12.0533 121.53 12 121.663 12H134.663C134.797 12 134.903 12.0533 134.983 12.16C135.09 12.24 135.143 12.3467 135.143 12.48V15.52ZM153.166 40.32C150.953 40.32 149.166 39.6533 147.806 38.32C146.446 36.9867 145.766 35.24 145.766 33.08V32.04C145.766 31.9067 145.806 31.8 145.886 31.72C145.993 31.6133 146.113 31.56 146.246 31.56H149.886C150.02 31.56 150.126 31.6133 150.206 31.72C150.313 31.8 150.366 31.9067 150.366 32.04V32.84C150.366 33.88 150.62 34.72 151.126 35.36C151.66 36 152.34 36.32 153.166 36.32C153.993 36.32 154.673 36.0267 155.206 35.44C155.74 34.8267 156.006 34.0267 156.006 33.04C156.006 32.3467 155.86 31.7467 155.566 31.24C155.273 30.7333 154.86 30.2533 154.326 29.8C153.793 29.3467 152.94 28.6933 151.766 27.84C150.433 26.88 149.353 26.0267 148.526 25.28C147.726 24.5333 147.046 23.64 146.486 22.6C145.953 21.5333 145.686 20.3067 145.686 18.92C145.686 16.7067 146.353 14.9467 147.686 13.64C149.02 12.3333 150.78 11.68 152.966 11.68C155.18 11.68 156.966 12.3733 158.326 13.76C159.686 15.12 160.366 16.9333 160.366 19.2V20.16C160.366 20.2933 160.313 20.4133 160.206 20.52C160.126 20.6 160.02 20.64 159.886 20.64H156.286C156.153 20.64 156.033 20.6 155.926 20.52C155.846 20.4133 155.806 20.2933 155.806 20.16V19.12C155.806 18.08 155.54 17.2533 155.006 16.64C154.5 16 153.82 15.68 152.966 15.68C152.166 15.68 151.513 15.9733 151.006 16.56C150.5 17.12 150.246 17.9067 150.246 18.92C150.246 19.88 150.513 20.6933 151.046 21.36C151.606 22.0267 152.686 22.9467 154.286 24.12C155.913 25.32 157.14 26.3067 157.966 27.08C158.793 27.8267 159.433 28.6533 159.886 29.56C160.34 30.4667 160.566 31.5467 160.566 32.8C160.566 35.0667 159.886 36.8933 158.526 38.28C157.166 39.64 155.38 40.32 153.166 40.32Z" fill="#132F95"/>
<path d="M69.736 62.192C68.36 62.192 67.256 61.752 66.424 60.872C65.608 59.976 65.2 58.8 65.2 57.344V45.488C65.2 45.408 65.224 45.344 65.272 45.296C65.336 45.232 65.408 45.2 65.488 45.2H67.696C67.776 45.2 67.84 45.232 67.888 45.296C67.952 45.344 67.984 45.408 67.984 45.488V57.632C67.984 58.272 68.144 58.792 68.464 59.192C68.784 59.592 69.208 59.792 69.736 59.792C70.264 59.792 70.688 59.592 71.008 59.192C71.328 58.792 71.488 58.272 71.488 57.632V45.488C71.488 45.408 71.512 45.344 71.56 45.296C71.624 45.232 71.696 45.2 71.776 45.2H73.984C74.064 45.2 74.128 45.232 74.176 45.296C74.24 45.344 74.272 45.408 74.272 45.488V57.344C74.272 58.8 73.856 59.976 73.024 60.872C72.192 61.752 71.096 62.192 69.736 62.192ZM83.362 45.488C83.362 45.408 83.386 45.344 83.434 45.296C83.498 45.232 83.57 45.2 83.65 45.2H85.834C85.914 45.2 85.978 45.232 86.026 45.296C86.09 45.344 86.122 45.408 86.122 45.488V61.712C86.122 61.792 86.09 61.864 86.026 61.928C85.978 61.976 85.914 62 85.834 62H83.314C83.154 62 83.05 61.92 83.002 61.76L79.426 51.584C79.41 51.536 79.378 51.52 79.33 51.536C79.298 51.536 79.282 51.56 79.282 51.608L79.306 61.712C79.306 61.792 79.274 61.864 79.21 61.928C79.162 61.976 79.098 62 79.018 62H76.834C76.754 62 76.682 61.976 76.618 61.928C76.57 61.864 76.546 61.792 76.546 61.712V45.488C76.546 45.408 76.57 45.344 76.618 45.296C76.682 45.232 76.754 45.2 76.834 45.2H79.306C79.466 45.2 79.57 45.28 79.618 45.44L83.218 55.544C83.234 55.592 83.258 55.616 83.29 55.616C83.338 55.6 83.362 55.568 83.362 55.52V45.488ZM88.9981 62C88.9181 62 88.8461 61.976 88.7821 61.928C88.7341 61.864 88.7101 61.792 88.7101 61.712V45.488C88.7101 45.408 88.7341 45.344 88.7821 45.296C88.8461 45.232 88.9181 45.2 88.9981 45.2H91.2061C91.2861 45.2 91.3501 45.232 91.3981 45.296C91.4621 45.344 91.4941 45.408 91.4941 45.488V61.712C91.4941 61.792 91.4621 61.864 91.3981 61.928C91.3501 61.976 91.2861 62 91.2061 62H88.9981ZM97.1973 62C97.0213 62 96.9173 61.912 96.8853 61.736L93.4533 45.512L93.4293 45.416C93.4293 45.272 93.5173 45.2 93.6933 45.2H96.1173C96.3093 45.2 96.4133 45.288 96.4293 45.464L98.4213 57.008C98.4373 57.056 98.4613 57.08 98.4933 57.08C98.5253 57.08 98.5493 57.056 98.5653 57.008L100.509 45.464C100.525 45.288 100.629 45.2 100.821 45.2H103.173C103.381 45.2 103.461 45.304 103.413 45.512L99.9573 61.736C99.9253 61.912 99.8213 62 99.6453 62H97.1973ZM113.75 47.312C113.75 47.392 113.718 47.464 113.654 47.528C113.606 47.576 113.542 47.6 113.462 47.6H108.278C108.198 47.6 108.158 47.64 108.158 47.72V52.256C108.158 52.336 108.198 52.376 108.278 52.376H111.35C111.43 52.376 111.494 52.408 111.542 52.472C111.606 52.52 111.638 52.584 111.638 52.664V54.512C111.638 54.592 111.606 54.664 111.542 54.728C111.494 54.776 111.43 54.8 111.35 54.8H108.278C108.198 54.8 108.158 54.84 108.158 54.92V59.48C108.158 59.56 108.198 59.6 108.278 59.6H113.462C113.542 59.6 113.606 59.632 113.654 59.696C113.718 59.744 113.75 59.808 113.75 59.888V61.712C113.75 61.792 113.718 61.864 113.654 61.928C113.606 61.976 113.542 62 113.462 62H105.662C105.582 62 105.51 61.976 105.446 61.928C105.398 61.864 105.374 61.792 105.374 61.712V45.488C105.374 45.408 105.398 45.344 105.446 45.296C105.51 45.232 105.582 45.2 105.662 45.2H113.462C113.542 45.2 113.606 45.232 113.654 45.296C113.718 45.344 113.75 45.408 113.75 45.488V47.312ZM122.452 62C122.292 62 122.188 61.92 122.14 61.76L120.1 54.872C120.068 54.808 120.028 54.776 119.98 54.776H118.708C118.628 54.776 118.588 54.816 118.588 54.896V61.712C118.588 61.792 118.556 61.864 118.492 61.928C118.444 61.976 118.38 62 118.3 62H116.092C116.012 62 115.94 61.976 115.876 61.928C115.828 61.864 115.804 61.792 115.804 61.712V45.488C115.804 45.408 115.828 45.344 115.876 45.296C115.94 45.232 116.012 45.2 116.092 45.2H120.604C121.452 45.2 122.196 45.408 122.836 45.824C123.492 46.224 123.996 46.8 124.348 47.552C124.716 48.288 124.9 49.136 124.9 50.096C124.9 51.088 124.708 51.944 124.324 52.664C123.94 53.384 123.404 53.928 122.716 54.296C122.652 54.312 122.628 54.36 122.644 54.44L124.996 61.664C125.012 61.696 125.02 61.736 125.02 61.784C125.02 61.928 124.932 62 124.756 62H122.452ZM118.708 47.6C118.628 47.6 118.588 47.64 118.588 47.72V52.496C118.588 52.576 118.628 52.616 118.708 52.616H120.172C120.748 52.616 121.212 52.392 121.564 51.944C121.932 51.496 122.116 50.888 122.116 50.12C122.116 49.352 121.932 48.744 121.564 48.296C121.212 47.832 120.748 47.6 120.172 47.6H118.708ZM130.92 62.192C129.592 62.192 128.52 61.792 127.704 60.992C126.888 60.192 126.48 59.144 126.48 57.848V57.224C126.48 57.144 126.504 57.08 126.552 57.032C126.616 56.968 126.688 56.936 126.768 56.936H128.952C129.032 56.936 129.096 56.968 129.144 57.032C129.208 57.08 129.24 57.144 129.24 57.224V57.704C129.24 58.328 129.392 58.832 129.696 59.216C130.016 59.6 130.424 59.792 130.92 59.792C131.416 59.792 131.824 59.616 132.144 59.264C132.464 58.896 132.624 58.416 132.624 57.824C132.624 57.408 132.536 57.048 132.36 56.744C132.184 56.44 131.936 56.152 131.616 55.88C131.296 55.608 130.784 55.216 130.08 54.704C129.28 54.128 128.632 53.616 128.136 53.168C127.656 52.72 127.248 52.184 126.912 51.56C126.592 50.92 126.432 50.184 126.432 49.352C126.432 48.024 126.832 46.968 127.632 46.184C128.432 45.4 129.488 45.008 130.8 45.008C132.128 45.008 133.2 45.424 134.016 46.256C134.832 47.072 135.24 48.16 135.24 49.52V50.096C135.24 50.176 135.208 50.248 135.144 50.312C135.096 50.36 135.032 50.384 134.952 50.384H132.792C132.712 50.384 132.64 50.36 132.576 50.312C132.528 50.248 132.504 50.176 132.504 50.096V49.472C132.504 48.848 132.344 48.352 132.024 47.984C131.72 47.6 131.312 47.408 130.8 47.408C130.32 47.408 129.928 47.584 129.624 47.936C129.32 48.272 129.168 48.744 129.168 49.352C129.168 49.928 129.328 50.416 129.648 50.816C129.984 51.216 130.632 51.768 131.592 52.472C132.568 53.192 133.304 53.784 133.8 54.248C134.296 54.696 134.68 55.192 134.952 55.736C135.224 56.28 135.36 56.928 135.36 57.68C135.36 59.04 134.952 60.136 134.136 60.968C133.32 61.784 132.248 62.192 130.92 62.192ZM137.654 62C137.574 62 137.502 61.976 137.438 61.928C137.39 61.864 137.366 61.792 137.366 61.712V45.488C137.366 45.408 137.39 45.344 137.438 45.296C137.502 45.232 137.574 45.2 137.654 45.2H139.862C139.942 45.2 140.006 45.232 140.054 45.296C140.118 45.344 140.15 45.408 140.15 45.488V61.712C140.15 61.792 140.118 61.864 140.054 61.928C140.006 61.976 139.942 62 139.862 62H137.654ZM143.021 62C142.942 62 142.87 61.976 142.806 61.928C142.758 61.864 142.734 61.792 142.734 61.712V45.488C142.734 45.408 142.758 45.344 142.806 45.296C142.87 45.232 142.942 45.2 143.021 45.2H147.126C148.502 45.2 149.598 45.616 150.414 46.448C151.246 47.28 151.662 48.392 151.662 49.784V57.416C151.662 58.808 151.246 59.92 150.414 60.752C149.598 61.584 148.502 62 147.126 62H143.021ZM145.518 59.48C145.518 59.56 145.558 59.6 145.638 59.6L147.078 59.576C147.606 59.576 148.03 59.368 148.35 58.952C148.686 58.52 148.862 57.952 148.878 57.248V49.952C148.878 49.232 148.71 48.664 148.374 48.248C148.054 47.816 147.614 47.6 147.054 47.6H145.638C145.558 47.6 145.518 47.64 145.518 47.72V59.48ZM160.401 62C160.209 62 160.105 61.912 160.089 61.736L159.633 59.216C159.633 59.136 159.585 59.096 159.489 59.096H155.985C155.889 59.096 155.841 59.136 155.841 59.216L155.385 61.736C155.369 61.912 155.265 62 155.073 62H152.889C152.665 62 152.577 61.896 152.625 61.688L156.177 45.464C156.209 45.288 156.313 45.2 156.489 45.2H159.033C159.209 45.2 159.313 45.288 159.345 45.464L162.897 61.688V61.784C162.897 61.928 162.809 62 162.633 62H160.401ZM156.273 56.792C156.257 56.872 156.297 56.912 156.393 56.912H159.057C159.153 56.912 159.193 56.872 159.177 56.792L157.785 49.208C157.769 49.16 157.745 49.136 157.713 49.136C157.681 49.136 157.657 49.16 157.641 49.208L156.273 56.792ZM164.818 62C164.738 62 164.666 61.976 164.602 61.928C164.554 61.864 164.53 61.792 164.53 61.712V45.488C164.53 45.408 164.554 45.344 164.602 45.296C164.666 45.232 164.738 45.2 164.818 45.2H168.922C170.298 45.2 171.394 45.616 172.21 46.448C173.042 47.28 173.458 48.392 173.458 49.784V57.416C173.458 58.808 173.042 59.92 172.21 60.752C171.394 61.584 170.298 62 168.922 62H164.818ZM167.314 59.48C167.314 59.56 167.354 59.6 167.434 59.6L168.874 59.576C169.402 59.576 169.826 59.368 170.146 58.952C170.482 58.52 170.658 57.952 170.674 57.248V49.952C170.674 49.232 170.506 48.664 170.17 48.248C169.85 47.816 169.41 47.6 168.85 47.6H167.434C167.354 47.6 167.314 47.64 167.314 47.72V59.48ZM184.133 47.312C184.133 47.392 184.101 47.464 184.037 47.528C183.989 47.576 183.925 47.6 183.845 47.6H178.661C178.581 47.6 178.541 47.64 178.541 47.72V52.256C178.541 52.336 178.581 52.376 178.661 52.376H181.733C181.813 52.376 181.877 52.408 181.925 52.472C181.989 52.52 182.021 52.584 182.021 52.664V54.512C182.021 54.592 181.989 54.664 181.925 54.728C181.877 54.776 181.813 54.8 181.733 54.8H178.661C178.581 54.8 178.541 54.84 178.541 54.92V59.48C178.541 59.56 178.581 59.6 178.661 59.6H183.845C183.925 59.6 183.989 59.632 184.037 59.696C184.101 59.744 184.133 59.808 184.133 59.888V61.712C184.133 61.792 184.101 61.864 184.037 61.928C183.989 61.976 183.925 62 183.845 62H176.045C175.965 62 175.893 61.976 175.829 61.928C175.781 61.864 175.757 61.792 175.757 61.712V45.488C175.757 45.408 175.781 45.344 175.829 45.296C175.893 45.232 175.965 45.2 176.045 45.2H183.845C183.925 45.2 183.989 45.232 184.037 45.296C184.101 45.344 184.133 45.408 184.133 45.488V47.312Z" fill="#1A44DF"/>
</svg>
