<svg width="335" height="226" viewBox="0 0 335 226" fill="none" xmlns="http://www.w3.org/2000/svg">
<rect y="31" width="335" height="195" rx="20" fill="#F5F5F5"/>
<circle cx="167" cy="50" r="50" fill="#132F95"/>
<path d="M104.509 135.368C104.557 135.256 104.653 135.2 104.797 135.2H106.045C106.205 135.2 106.285 135.28 106.285 135.44V151.76C106.285 151.92 106.205 152 106.045 152H104.821C104.661 152 104.581 151.92 104.581 151.76V138.896C104.581 138.848 104.565 138.824 104.533 138.824C104.517 138.824 104.493 138.84 104.461 138.872L101.965 144.056C101.917 144.168 101.837 144.224 101.725 144.224C101.597 144.224 101.509 144.168 101.461 144.056L98.9649 138.896C98.9329 138.864 98.9009 138.848 98.8689 138.848C98.8529 138.848 98.8449 138.872 98.8449 138.92V151.76C98.8449 151.92 98.7649 152 98.6049 152H97.3809C97.2209 152 97.1409 151.92 97.1409 151.76V135.44C97.1409 135.28 97.2209 135.2 97.3809 135.2H98.6289C98.7729 135.2 98.8689 135.256 98.9169 135.368L101.653 140.912C101.669 140.944 101.693 140.96 101.725 140.96C101.757 140.96 101.781 140.944 101.797 140.912L104.509 135.368ZM112.993 139.664C114.113 139.664 115.009 140.032 115.681 140.768C116.353 141.488 116.689 142.456 116.689 143.672V151.76C116.689 151.92 116.609 152 116.449 152H115.225C115.065 152 114.985 151.92 114.985 151.76V151.04C114.985 151.008 114.969 150.992 114.937 150.992C114.921 150.976 114.897 150.984 114.865 151.016C114.273 151.8 113.385 152.192 112.201 152.192C111.321 152.192 110.553 151.944 109.897 151.448C109.257 150.936 108.937 150.04 108.937 148.76C108.937 147.4 109.329 146.408 110.113 145.784C110.897 145.144 111.929 144.824 113.209 144.824H114.889C114.953 144.824 114.985 144.792 114.985 144.728V143.792C114.985 142.992 114.801 142.352 114.433 141.872C114.065 141.392 113.569 141.152 112.945 141.152C112.465 141.152 112.049 141.312 111.697 141.632C111.361 141.952 111.161 142.36 111.097 142.856C111.097 143.016 111.017 143.096 110.857 143.096L109.513 143.072C109.433 143.072 109.369 143.048 109.321 143C109.289 142.952 109.281 142.896 109.297 142.832C109.377 141.888 109.761 141.128 110.449 140.552C111.137 139.96 111.985 139.664 112.993 139.664ZM112.561 150.704C113.217 150.704 113.785 150.496 114.265 150.08C114.745 149.648 114.985 149.056 114.985 148.304V146.288C114.985 146.224 114.953 146.192 114.889 146.192H113.185C112.417 146.192 111.809 146.4 111.361 146.816C110.913 147.216 110.689 147.816 110.689 148.616C110.689 149.32 110.857 149.848 111.193 150.2C111.545 150.536 112.001 150.704 112.561 150.704ZM123.627 140.888C123.627 141.048 123.547 141.128 123.387 141.128H121.563C121.499 141.128 121.467 141.16 121.467 141.224V148.568C121.467 149.304 121.595 149.816 121.851 150.104C122.107 150.376 122.499 150.504 123.027 150.488H123.267C123.427 150.488 123.507 150.568 123.507 150.728V151.76C123.507 151.92 123.427 152 123.267 152H122.667C121.723 152 121.003 151.8 120.507 151.4C120.027 150.984 119.787 150.208 119.787 149.072V141.224C119.787 141.16 119.755 141.128 119.691 141.128H118.755C118.595 141.128 118.515 141.048 118.515 140.888V140.096C118.515 139.936 118.595 139.856 118.755 139.856H119.691C119.755 139.856 119.787 139.824 119.787 139.76V137.072C119.787 136.912 119.867 136.832 120.027 136.832H121.227C121.387 136.832 121.467 136.912 121.467 137.072V139.76C121.467 139.824 121.499 139.856 121.563 139.856H123.387C123.547 139.856 123.627 139.936 123.627 140.096V140.888ZM133.001 146.336C133.001 146.496 132.921 146.576 132.761 146.576H127.289C127.225 146.576 127.193 146.608 127.193 146.672V148.424C127.193 149.096 127.377 149.648 127.745 150.08C128.129 150.496 128.625 150.704 129.233 150.704C129.745 150.704 130.177 150.552 130.529 150.248C130.897 149.928 131.137 149.52 131.249 149.024C131.297 148.88 131.385 148.808 131.513 148.808L132.713 148.856C132.777 148.856 132.833 148.88 132.881 148.928C132.929 148.976 132.945 149.04 132.929 149.12C132.801 150.064 132.409 150.816 131.753 151.376C131.113 151.92 130.273 152.192 129.233 152.192C128.097 152.192 127.185 151.856 126.497 151.184C125.825 150.512 125.489 149.624 125.489 148.52V143.336C125.489 142.248 125.825 141.368 126.497 140.696C127.185 140.008 128.097 139.664 129.233 139.664C130.385 139.664 131.297 140.008 131.969 140.696C132.657 141.368 133.001 142.248 133.001 143.336V146.336ZM129.233 141.152C128.625 141.152 128.129 141.368 127.745 141.8C127.377 142.216 127.193 142.768 127.193 143.456V145.064C127.193 145.128 127.225 145.16 127.289 145.16H131.225C131.289 145.16 131.321 145.128 131.321 145.064V143.456C131.321 142.768 131.129 142.216 130.745 141.8C130.361 141.368 129.857 141.152 129.233 141.152ZM139.631 139.736C140.031 139.736 140.375 139.824 140.663 140C140.775 140.064 140.815 140.168 140.783 140.312L140.495 141.56C140.479 141.704 140.383 141.752 140.207 141.704C140.015 141.608 139.775 141.56 139.487 141.56C139.359 141.56 139.263 141.568 139.199 141.584C138.623 141.616 138.151 141.92 137.783 142.496C137.414 143.056 137.23 143.744 137.23 144.56V151.76C137.23 151.92 137.151 152 136.991 152H135.767C135.607 152 135.527 151.92 135.527 151.76V140.096C135.527 139.936 135.607 139.856 135.767 139.856H136.991C137.151 139.856 137.23 139.936 137.23 140.096V141.536C137.23 141.584 137.238 141.608 137.255 141.608C137.287 141.608 137.319 141.592 137.351 141.56C137.815 140.344 138.575 139.736 139.631 139.736ZM143.566 137.648C143.166 137.648 142.838 137.52 142.582 137.264C142.342 137.008 142.222 136.688 142.222 136.304C142.222 135.904 142.342 135.584 142.582 135.344C142.838 135.088 143.166 134.96 143.566 134.96C143.95 134.96 144.262 135.088 144.502 135.344C144.758 135.584 144.886 135.904 144.886 136.304C144.886 136.688 144.758 137.008 144.502 137.264C144.262 137.52 143.95 137.648 143.566 137.648ZM142.966 152C142.806 152 142.726 151.92 142.726 151.76V140.096C142.726 139.936 142.806 139.856 142.966 139.856H144.19C144.35 139.856 144.43 139.936 144.43 140.096V151.76C144.43 151.92 144.35 152 144.19 152H142.966ZM151.079 139.664C152.199 139.664 153.095 140.032 153.767 140.768C154.439 141.488 154.775 142.456 154.775 143.672V151.76C154.775 151.92 154.695 152 154.535 152H153.311C153.151 152 153.071 151.92 153.071 151.76V151.04C153.071 151.008 153.055 150.992 153.023 150.992C153.007 150.976 152.983 150.984 152.951 151.016C152.359 151.8 151.471 152.192 150.287 152.192C149.407 152.192 148.639 151.944 147.983 151.448C147.343 150.936 147.023 150.04 147.023 148.76C147.023 147.4 147.415 146.408 148.199 145.784C148.983 145.144 150.015 144.824 151.295 144.824H152.975C153.039 144.824 153.071 144.792 153.071 144.728V143.792C153.071 142.992 152.887 142.352 152.519 141.872C152.151 141.392 151.655 141.152 151.031 141.152C150.551 141.152 150.135 141.312 149.783 141.632C149.447 141.952 149.247 142.36 149.183 142.856C149.183 143.016 149.103 143.096 148.943 143.096L147.599 143.072C147.519 143.072 147.455 143.048 147.407 143C147.375 142.952 147.367 142.896 147.383 142.832C147.463 141.888 147.847 141.128 148.535 140.552C149.223 139.96 150.071 139.664 151.079 139.664ZM150.647 150.704C151.303 150.704 151.871 150.496 152.351 150.08C152.831 149.648 153.071 149.056 153.071 148.304V146.288C153.071 146.224 153.039 146.192 152.975 146.192H151.271C150.503 146.192 149.895 146.4 149.447 146.816C148.999 147.216 148.775 147.816 148.775 148.616C148.775 149.32 148.943 149.848 149.279 150.2C149.631 150.536 150.087 150.704 150.647 150.704ZM157.537 152C157.377 152 157.297 151.92 157.297 151.76V135.44C157.297 135.28 157.377 135.2 157.537 135.2H158.761C158.921 135.2 159.001 135.28 159.001 135.44V151.76C159.001 151.92 158.921 152 158.761 152H157.537ZM170.133 139.664C171.253 139.664 172.149 140.032 172.821 140.768C173.493 141.488 173.829 142.456 173.829 143.672V151.76C173.829 151.92 173.749 152 173.589 152H172.365C172.205 152 172.125 151.92 172.125 151.76V151.04C172.125 151.008 172.109 150.992 172.077 150.992C172.061 150.976 172.037 150.984 172.005 151.016C171.413 151.8 170.525 152.192 169.341 152.192C168.461 152.192 167.693 151.944 167.037 151.448C166.397 150.936 166.077 150.04 166.077 148.76C166.077 147.4 166.469 146.408 167.253 145.784C168.037 145.144 169.069 144.824 170.349 144.824H172.029C172.093 144.824 172.125 144.792 172.125 144.728V143.792C172.125 142.992 171.941 142.352 171.573 141.872C171.205 141.392 170.709 141.152 170.085 141.152C169.605 141.152 169.189 141.312 168.837 141.632C168.501 141.952 168.301 142.36 168.237 142.856C168.237 143.016 168.157 143.096 167.997 143.096L166.653 143.072C166.573 143.072 166.509 143.048 166.461 143C166.429 142.952 166.421 142.896 166.437 142.832C166.517 141.888 166.901 141.128 167.589 140.552C168.277 139.96 169.125 139.664 170.133 139.664ZM169.701 150.704C170.357 150.704 170.925 150.496 171.405 150.08C171.885 149.648 172.125 149.056 172.125 148.304V146.288C172.125 146.224 172.093 146.192 172.029 146.192H170.325C169.557 146.192 168.949 146.4 168.501 146.816C168.053 147.216 167.829 147.816 167.829 148.616C167.829 149.32 167.997 149.848 168.333 150.2C168.685 150.536 169.141 150.704 169.701 150.704ZM180.767 140.888C180.767 141.048 180.687 141.128 180.527 141.128H178.703C178.639 141.128 178.607 141.16 178.607 141.224V148.568C178.607 149.304 178.735 149.816 178.991 150.104C179.247 150.376 179.639 150.504 180.167 150.488H180.407C180.567 150.488 180.647 150.568 180.647 150.728V151.76C180.647 151.92 180.567 152 180.407 152H179.807C178.863 152 178.143 151.8 177.647 151.4C177.167 150.984 176.927 150.208 176.927 149.072V141.224C176.927 141.16 176.895 141.128 176.831 141.128H175.895C175.735 141.128 175.655 141.048 175.655 140.888V140.096C175.655 139.936 175.735 139.856 175.895 139.856H176.831C176.895 139.856 176.927 139.824 176.927 139.76V137.072C176.927 136.912 177.007 136.832 177.167 136.832H178.367C178.527 136.832 178.607 136.912 178.607 137.072V139.76C178.607 139.824 178.639 139.856 178.703 139.856H180.527C180.687 139.856 180.767 139.936 180.767 140.096V140.888ZM188.438 140.096C188.438 139.936 188.518 139.856 188.678 139.856H189.902C190.062 139.856 190.142 139.936 190.142 140.096V151.76C190.142 151.92 190.062 152 189.902 152H188.678C188.518 152 188.438 151.92 188.438 151.76V150.944C188.438 150.896 188.422 150.872 188.39 150.872C188.374 150.872 188.35 150.888 188.318 150.92C187.822 151.752 187.022 152.168 185.918 152.168C184.958 152.168 184.19 151.88 183.614 151.304C183.054 150.712 182.774 149.824 182.774 148.64V140.096C182.774 139.936 182.854 139.856 183.014 139.856H184.238C184.398 139.856 184.478 139.936 184.478 140.096V148.256C184.478 149.056 184.638 149.664 184.958 150.08C185.294 150.48 185.774 150.68 186.398 150.68C187.038 150.68 187.534 150.448 187.886 149.984C188.254 149.52 188.438 148.888 188.438 148.088V140.096ZM196.618 139.664C197.738 139.664 198.634 140.032 199.306 140.768C199.978 141.488 200.314 142.456 200.314 143.672V151.76C200.314 151.92 200.234 152 200.074 152H198.85C198.69 152 198.61 151.92 198.61 151.76V151.04C198.61 151.008 198.594 150.992 198.562 150.992C198.546 150.976 198.522 150.984 198.49 151.016C197.898 151.8 197.01 152.192 195.826 152.192C194.946 152.192 194.178 151.944 193.522 151.448C192.882 150.936 192.562 150.04 192.562 148.76C192.562 147.4 192.954 146.408 193.738 145.784C194.522 145.144 195.554 144.824 196.834 144.824H198.514C198.578 144.824 198.61 144.792 198.61 144.728V143.792C198.61 142.992 198.426 142.352 198.058 141.872C197.69 141.392 197.194 141.152 196.57 141.152C196.09 141.152 195.674 141.312 195.322 141.632C194.986 141.952 194.786 142.36 194.722 142.856C194.722 143.016 194.642 143.096 194.482 143.096L193.138 143.072C193.058 143.072 192.994 143.048 192.946 143C192.914 142.952 192.906 142.896 192.922 142.832C193.002 141.888 193.386 141.128 194.074 140.552C194.762 139.96 195.61 139.664 196.618 139.664ZM196.186 150.704C196.842 150.704 197.41 150.496 197.89 150.08C198.37 149.648 198.61 149.056 198.61 148.304V146.288C198.61 146.224 198.578 146.192 198.514 146.192H196.81C196.042 146.192 195.434 146.4 194.986 146.816C194.538 147.216 194.314 147.816 194.314 148.616C194.314 149.32 194.482 149.848 194.818 150.2C195.17 150.536 195.626 150.704 196.186 150.704ZM203.076 152C202.916 152 202.836 151.92 202.836 151.76V135.44C202.836 135.28 202.916 135.2 203.076 135.2H204.3C204.46 135.2 204.54 135.28 204.54 135.44V151.76C204.54 151.92 204.46 152 204.3 152H203.076ZM208.348 137.648C207.948 137.648 207.62 137.52 207.364 137.264C207.124 137.008 207.004 136.688 207.004 136.304C207.004 135.904 207.124 135.584 207.364 135.344C207.62 135.088 207.948 134.96 208.348 134.96C208.732 134.96 209.044 135.088 209.284 135.344C209.54 135.584 209.668 135.904 209.668 136.304C209.668 136.688 209.54 137.008 209.284 137.264C209.044 137.52 208.732 137.648 208.348 137.648ZM207.748 152C207.588 152 207.508 151.92 207.508 151.76V140.096C207.508 139.936 207.588 139.856 207.748 139.856H208.972C209.132 139.856 209.212 139.936 209.212 140.096V151.76C209.212 151.92 209.132 152 208.972 152H207.748ZM211.876 152C211.716 152 211.636 151.92 211.636 151.76V150.608C211.636 150.496 211.66 150.392 211.708 150.296L216.628 141.536C216.644 141.504 216.644 141.48 216.628 141.464C216.628 141.432 216.612 141.416 216.58 141.416H211.972C211.812 141.416 211.732 141.336 211.732 141.176V140.096C211.732 139.936 211.812 139.856 211.972 139.856H218.452C218.612 139.856 218.692 139.936 218.692 140.096V141.248C218.692 141.36 218.668 141.464 218.62 141.56L213.652 150.32C213.636 150.352 213.636 150.384 213.652 150.416C213.668 150.432 213.692 150.44 213.724 150.44H218.5C218.66 150.44 218.74 150.52 218.74 150.68V151.76C218.74 151.92 218.66 152 218.5 152H211.876ZM224.532 139.664C225.652 139.664 226.548 140.032 227.22 140.768C227.892 141.488 228.228 142.456 228.228 143.672V151.76C228.228 151.92 228.148 152 227.988 152H226.764C226.604 152 226.524 151.92 226.524 151.76V151.04C226.524 151.008 226.508 150.992 226.476 150.992C226.46 150.976 226.436 150.984 226.404 151.016C225.812 151.8 224.924 152.192 223.74 152.192C222.86 152.192 222.092 151.944 221.436 151.448C220.796 150.936 220.476 150.04 220.476 148.76C220.476 147.4 220.868 146.408 221.652 145.784C222.436 145.144 223.468 144.824 224.748 144.824H226.428C226.492 144.824 226.524 144.792 226.524 144.728V143.792C226.524 142.992 226.34 142.352 225.972 141.872C225.604 141.392 225.108 141.152 224.484 141.152C224.004 141.152 223.588 141.312 223.236 141.632C222.9 141.952 222.7 142.36 222.636 142.856C222.636 143.016 222.556 143.096 222.396 143.096L221.052 143.072C220.972 143.072 220.908 143.048 220.86 143C220.828 142.952 220.82 142.896 220.836 142.832C220.916 141.888 221.3 141.128 221.988 140.552C222.676 139.96 223.524 139.664 224.532 139.664ZM224.1 150.704C224.756 150.704 225.324 150.496 225.804 150.08C226.284 149.648 226.524 149.056 226.524 148.304V146.288C226.524 146.224 226.492 146.192 226.428 146.192H224.724C223.956 146.192 223.348 146.4 222.9 146.816C222.452 147.216 222.228 147.816 222.228 148.616C222.228 149.32 222.396 149.848 222.732 150.2C223.084 150.536 223.54 150.704 224.1 150.704ZM236.414 135.44C236.414 135.28 236.494 135.2 236.654 135.2H237.878C238.038 135.2 238.118 135.28 238.118 135.44V151.76C238.118 151.92 238.038 152 237.878 152H236.654C236.494 152 236.414 151.92 236.414 151.76V151.232C236.414 151.2 236.398 151.176 236.366 151.16C236.35 151.144 236.326 151.152 236.294 151.184C235.686 151.856 234.918 152.192 233.99 152.192C232.966 152.192 232.15 151.856 231.542 151.184C230.934 150.496 230.63 149.608 230.63 148.52V143.336C230.63 142.216 230.934 141.328 231.542 140.672C232.15 140 232.966 139.664 233.99 139.664C234.934 139.664 235.702 140.008 236.294 140.696C236.326 140.728 236.35 140.736 236.366 140.72C236.398 140.704 236.414 140.68 236.414 140.648V135.44ZM234.398 150.704C234.99 150.704 235.47 150.496 235.838 150.08C236.222 149.648 236.414 149.096 236.414 148.424V143.456C236.414 142.768 236.222 142.216 235.838 141.8C235.47 141.368 234.99 141.152 234.398 141.152C233.79 141.152 233.286 141.368 232.886 141.8C232.502 142.216 232.31 142.768 232.31 143.456V148.424C232.31 149.096 232.502 149.648 232.886 150.08C233.286 150.496 233.79 150.704 234.398 150.704ZM244.546 152.192C243.394 152.192 242.474 151.856 241.786 151.184C241.114 150.512 240.778 149.624 240.778 148.52V143.36C240.778 142.272 241.122 141.384 241.81 140.696C242.498 140.008 243.41 139.664 244.546 139.664C245.698 139.664 246.618 140.008 247.306 140.696C247.994 141.384 248.338 142.272 248.338 143.36V148.52C248.338 149.624 247.994 150.512 247.306 151.184C246.618 151.856 245.698 152.192 244.546 152.192ZM244.546 150.68C245.154 150.68 245.65 150.472 246.034 150.056C246.434 149.64 246.634 149.088 246.634 148.4V143.456C246.634 142.768 246.434 142.216 246.034 141.8C245.65 141.368 245.154 141.152 244.546 141.152C243.938 141.152 243.442 141.368 243.058 141.8C242.674 142.216 242.482 142.768 242.482 143.456V148.4C242.482 149.088 242.674 149.64 243.058 150.056C243.442 150.472 243.938 150.68 244.546 150.68ZM81.9118 164.176C83.0798 164.176 84.0238 164.608 84.7438 165.472C85.4638 166.32 85.8238 167.44 85.8238 168.832C85.8238 170.208 85.4718 171.32 84.7678 172.168C84.0638 173 83.1358 173.416 81.9838 173.416H79.5118C79.4478 173.416 79.4158 173.448 79.4158 173.512V180.76C79.4158 180.92 79.3358 181 79.1758 181H77.9518C77.7918 181 77.7118 180.92 77.7118 180.76V164.416C77.7118 164.256 77.7918 164.176 77.9518 164.176H81.9118ZM81.6958 172.024C82.4158 172.024 82.9998 171.736 83.4478 171.16C83.8958 170.584 84.1198 169.816 84.1198 168.856C84.1198 167.896 83.8958 167.128 83.4478 166.552C82.9998 165.96 82.4158 165.664 81.6958 165.664H79.5118C79.4478 165.664 79.4158 165.696 79.4158 165.76V171.928C79.4158 171.992 79.4478 172.024 79.5118 172.024H81.6958ZM92.193 168.736C92.593 168.736 92.937 168.824 93.225 169C93.337 169.064 93.377 169.168 93.345 169.312L93.057 170.56C93.041 170.704 92.945 170.752 92.769 170.704C92.577 170.608 92.337 170.56 92.049 170.56C91.921 170.56 91.825 170.568 91.761 170.584C91.185 170.616 90.713 170.92 90.345 171.496C89.977 172.056 89.793 172.744 89.793 173.56V180.76C89.793 180.92 89.713 181 89.553 181H88.329C88.169 181 88.089 180.92 88.089 180.76V169.096C88.089 168.936 88.169 168.856 88.329 168.856H89.553C89.713 168.856 89.793 168.936 89.793 169.096V170.536C89.793 170.584 89.801 170.608 89.817 170.608C89.849 170.608 89.881 170.592 89.913 170.56C90.377 169.344 91.137 168.736 92.193 168.736ZM98.5071 181.192C97.3551 181.192 96.4351 180.856 95.7471 180.184C95.0751 179.512 94.7391 178.624 94.7391 177.52V172.36C94.7391 171.272 95.0831 170.384 95.7711 169.696C96.4591 169.008 97.3711 168.664 98.5071 168.664C99.6591 168.664 100.579 169.008 101.267 169.696C101.955 170.384 102.299 171.272 102.299 172.36V177.52C102.299 178.624 101.955 179.512 101.267 180.184C100.579 180.856 99.6591 181.192 98.5071 181.192ZM98.5071 179.68C99.1151 179.68 99.6111 179.472 99.9951 179.056C100.395 178.64 100.595 178.088 100.595 177.4V172.456C100.595 171.768 100.395 171.216 99.9951 170.8C99.6111 170.368 99.1151 170.152 98.5071 170.152C97.8991 170.152 97.4031 170.368 97.0191 170.8C96.6351 171.216 96.4431 171.768 96.4431 172.456V177.4C96.4431 178.088 96.6351 178.64 97.0191 179.056C97.4031 179.472 97.8991 179.68 98.5071 179.68ZM108.828 165.496C108.22 165.496 107.788 165.704 107.532 166.12C107.276 166.52 107.148 167.152 107.148 168.016V168.76C107.148 168.824 107.18 168.856 107.244 168.856H109.092C109.252 168.856 109.332 168.936 109.332 169.096V169.888C109.332 170.048 109.252 170.128 109.092 170.128H107.244C107.18 170.128 107.148 170.16 107.148 170.224V180.76C107.148 180.92 107.068 181 106.908 181H105.708C105.548 181 105.468 180.92 105.468 180.76V170.224C105.468 170.16 105.436 170.128 105.372 170.128H104.412C104.252 170.128 104.172 170.048 104.172 169.888V169.096C104.172 168.936 104.252 168.856 104.412 168.856H105.372C105.436 168.856 105.468 168.824 105.468 168.76V167.992C105.468 166.6 105.724 165.592 106.236 164.968C106.748 164.344 107.604 164.032 108.804 164.032H109.14C109.3 164.032 109.38 164.112 109.38 164.272L109.356 165.256C109.356 165.416 109.276 165.496 109.116 165.496H108.828ZM118.868 175.336C118.868 175.496 118.788 175.576 118.628 175.576H113.156C113.092 175.576 113.06 175.608 113.06 175.672V177.424C113.06 178.096 113.244 178.648 113.612 179.08C113.996 179.496 114.492 179.704 115.1 179.704C115.612 179.704 116.044 179.552 116.396 179.248C116.764 178.928 117.004 178.52 117.116 178.024C117.164 177.88 117.252 177.808 117.38 177.808L118.58 177.856C118.644 177.856 118.7 177.88 118.748 177.928C118.796 177.976 118.812 178.04 118.796 178.12C118.668 179.064 118.276 179.816 117.62 180.376C116.98 180.92 116.14 181.192 115.1 181.192C113.964 181.192 113.052 180.856 112.364 180.184C111.692 179.512 111.356 178.624 111.356 177.52V172.336C111.356 171.248 111.692 170.368 112.364 169.696C113.052 169.008 113.964 168.664 115.1 168.664C116.252 168.664 117.164 169.008 117.836 169.696C118.524 170.368 118.868 171.248 118.868 172.336V175.336ZM115.1 170.152C114.492 170.152 113.996 170.368 113.612 170.8C113.244 171.216 113.06 171.768 113.06 172.456V174.064C113.06 174.128 113.092 174.16 113.156 174.16H117.092C117.156 174.16 117.188 174.128 117.188 174.064V172.456C117.188 171.768 116.996 171.216 116.612 170.8C116.228 170.368 115.724 170.152 115.1 170.152ZM124.515 181.12C123.411 181.12 122.523 180.84 121.851 180.28C121.195 179.704 120.867 178.944 120.867 178V177.832C120.867 177.672 120.947 177.592 121.107 177.592H122.259C122.419 177.592 122.499 177.672 122.499 177.832V177.976C122.499 178.488 122.683 178.92 123.051 179.272C123.435 179.624 123.931 179.8 124.539 179.8C125.115 179.8 125.579 179.624 125.931 179.272C126.283 178.92 126.459 178.472 126.459 177.928C126.459 177.512 126.347 177.168 126.123 176.896C125.899 176.608 125.635 176.384 125.331 176.224C125.043 176.064 124.603 175.856 124.011 175.6C123.387 175.344 122.867 175.096 122.451 174.856C122.051 174.6 121.699 174.248 121.395 173.8C121.107 173.336 120.963 172.752 120.963 172.048C120.963 171.024 121.275 170.216 121.899 169.624C122.539 169.032 123.395 168.736 124.467 168.736C125.555 168.736 126.419 169.04 127.059 169.648C127.699 170.256 128.019 171.064 128.019 172.072V172.144C128.019 172.304 127.939 172.384 127.779 172.384H126.675C126.515 172.384 126.435 172.304 126.435 172.144V172C126.435 171.456 126.251 171.008 125.883 170.656C125.531 170.304 125.067 170.128 124.491 170.128C123.915 170.128 123.451 170.312 123.099 170.68C122.763 171.032 122.595 171.472 122.595 172C122.595 172.384 122.699 172.712 122.907 172.984C123.115 173.24 123.371 173.456 123.675 173.632C123.979 173.792 124.403 173.992 124.947 174.232C125.603 174.52 126.139 174.792 126.555 175.048C126.987 175.304 127.363 175.664 127.683 176.128C128.003 176.592 128.163 177.168 128.163 177.856C128.163 178.848 127.835 179.64 127.179 180.232C126.523 180.824 125.635 181.12 124.515 181.12ZM132.882 181.12C131.778 181.12 130.89 180.84 130.218 180.28C129.562 179.704 129.234 178.944 129.234 178V177.832C129.234 177.672 129.314 177.592 129.474 177.592H130.626C130.786 177.592 130.866 177.672 130.866 177.832V177.976C130.866 178.488 131.05 178.92 131.418 179.272C131.802 179.624 132.298 179.8 132.906 179.8C133.482 179.8 133.946 179.624 134.298 179.272C134.65 178.92 134.826 178.472 134.826 177.928C134.826 177.512 134.714 177.168 134.49 176.896C134.266 176.608 134.002 176.384 133.698 176.224C133.41 176.064 132.97 175.856 132.378 175.6C131.754 175.344 131.234 175.096 130.818 174.856C130.418 174.6 130.066 174.248 129.762 173.8C129.474 173.336 129.33 172.752 129.33 172.048C129.33 171.024 129.642 170.216 130.266 169.624C130.906 169.032 131.762 168.736 132.834 168.736C133.922 168.736 134.786 169.04 135.426 169.648C136.066 170.256 136.386 171.064 136.386 172.072V172.144C136.386 172.304 136.306 172.384 136.146 172.384H135.042C134.882 172.384 134.802 172.304 134.802 172.144V172C134.802 171.456 134.618 171.008 134.25 170.656C133.898 170.304 133.434 170.128 132.858 170.128C132.282 170.128 131.818 170.312 131.466 170.68C131.13 171.032 130.962 171.472 130.962 172C130.962 172.384 131.066 172.712 131.274 172.984C131.482 173.24 131.738 173.456 132.042 173.632C132.346 173.792 132.77 173.992 133.314 174.232C133.97 174.52 134.506 174.792 134.922 175.048C135.354 175.304 135.73 175.664 136.05 176.128C136.37 176.592 136.53 177.168 136.53 177.856C136.53 178.848 136.202 179.64 135.546 180.232C134.89 180.824 134.002 181.12 132.882 181.12ZM142.195 181.192C141.043 181.192 140.123 180.856 139.435 180.184C138.763 179.512 138.427 178.624 138.427 177.52V172.36C138.427 171.272 138.771 170.384 139.459 169.696C140.147 169.008 141.059 168.664 142.195 168.664C143.347 168.664 144.267 169.008 144.955 169.696C145.643 170.384 145.987 171.272 145.987 172.36V177.52C145.987 178.624 145.643 179.512 144.955 180.184C144.267 180.856 143.347 181.192 142.195 181.192ZM142.195 179.68C142.803 179.68 143.299 179.472 143.683 179.056C144.083 178.64 144.283 178.088 144.283 177.4V172.456C144.283 171.768 144.083 171.216 143.683 170.8C143.299 170.368 142.803 170.152 142.195 170.152C141.587 170.152 141.091 170.368 140.707 170.8C140.323 171.216 140.131 171.768 140.131 172.456V177.4C140.131 178.088 140.323 178.64 140.707 179.056C141.091 179.472 141.587 179.68 142.195 179.68ZM152.756 168.736C153.156 168.736 153.5 168.824 153.788 169C153.9 169.064 153.94 169.168 153.908 169.312L153.62 170.56C153.604 170.704 153.508 170.752 153.332 170.704C153.14 170.608 152.9 170.56 152.612 170.56C152.484 170.56 152.388 170.568 152.324 170.584C151.748 170.616 151.276 170.92 150.908 171.496C150.539 172.056 150.355 172.744 150.355 173.56V180.76C150.355 180.92 150.276 181 150.116 181H148.892C148.732 181 148.652 180.92 148.652 180.76V169.096C148.652 168.936 148.732 168.856 148.892 168.856H150.116C150.276 168.856 150.355 168.936 150.355 169.096V170.536C150.355 170.584 150.363 170.608 150.38 170.608C150.412 170.608 150.444 170.592 150.476 170.56C150.94 169.344 151.7 168.736 152.756 168.736ZM162.814 175.336C162.814 175.496 162.734 175.576 162.574 175.576H157.102C157.038 175.576 157.006 175.608 157.006 175.672V177.424C157.006 178.096 157.19 178.648 157.558 179.08C157.942 179.496 158.438 179.704 159.046 179.704C159.558 179.704 159.99 179.552 160.342 179.248C160.71 178.928 160.95 178.52 161.062 178.024C161.11 177.88 161.198 177.808 161.326 177.808L162.526 177.856C162.59 177.856 162.646 177.88 162.694 177.928C162.742 177.976 162.758 178.04 162.742 178.12C162.614 179.064 162.222 179.816 161.566 180.376C160.926 180.92 160.086 181.192 159.046 181.192C157.91 181.192 156.998 180.856 156.31 180.184C155.638 179.512 155.302 178.624 155.302 177.52V172.336C155.302 171.248 155.638 170.368 156.31 169.696C156.998 169.008 157.91 168.664 159.046 168.664C160.198 168.664 161.11 169.008 161.782 169.696C162.47 170.368 162.814 171.248 162.814 172.336V175.336ZM159.046 170.152C158.438 170.152 157.942 170.368 157.558 170.8C157.19 171.216 157.006 171.768 157.006 172.456V174.064C157.006 174.128 157.038 174.16 157.102 174.16H161.038C161.102 174.16 161.134 174.128 161.134 174.064V172.456C161.134 171.768 160.942 171.216 160.558 170.8C160.174 170.368 159.67 170.152 159.046 170.152ZM168.46 181.12C167.356 181.12 166.468 180.84 165.796 180.28C165.14 179.704 164.812 178.944 164.812 178V177.832C164.812 177.672 164.892 177.592 165.052 177.592H166.204C166.364 177.592 166.444 177.672 166.444 177.832V177.976C166.444 178.488 166.628 178.92 166.996 179.272C167.38 179.624 167.876 179.8 168.484 179.8C169.06 179.8 169.524 179.624 169.876 179.272C170.228 178.92 170.404 178.472 170.404 177.928C170.404 177.512 170.292 177.168 170.068 176.896C169.844 176.608 169.58 176.384 169.276 176.224C168.988 176.064 168.548 175.856 167.956 175.6C167.332 175.344 166.812 175.096 166.396 174.856C165.996 174.6 165.644 174.248 165.34 173.8C165.052 173.336 164.908 172.752 164.908 172.048C164.908 171.024 165.22 170.216 165.844 169.624C166.484 169.032 167.34 168.736 168.412 168.736C169.5 168.736 170.364 169.04 171.004 169.648C171.644 170.256 171.964 171.064 171.964 172.072V172.144C171.964 172.304 171.884 172.384 171.724 172.384H170.62C170.46 172.384 170.38 172.304 170.38 172.144V172C170.38 171.456 170.196 171.008 169.828 170.656C169.476 170.304 169.012 170.128 168.436 170.128C167.86 170.128 167.396 170.312 167.044 170.68C166.708 171.032 166.54 171.472 166.54 172C166.54 172.384 166.644 172.712 166.852 172.984C167.06 173.24 167.316 173.456 167.62 173.632C167.924 173.792 168.348 173.992 168.892 174.232C169.548 174.52 170.084 174.792 170.5 175.048C170.932 175.304 171.308 175.664 171.628 176.128C171.948 176.592 172.108 177.168 172.108 177.856C172.108 178.848 171.78 179.64 171.124 180.232C170.468 180.824 169.58 181.12 168.46 181.12ZM183.177 168.736C183.577 168.736 183.921 168.824 184.209 169C184.321 169.064 184.361 169.168 184.329 169.312L184.041 170.56C184.025 170.704 183.929 170.752 183.753 170.704C183.561 170.608 183.321 170.56 183.033 170.56C182.905 170.56 182.809 170.568 182.745 170.584C182.169 170.616 181.697 170.92 181.329 171.496C180.961 172.056 180.777 172.744 180.777 173.56V180.76C180.777 180.92 180.697 181 180.537 181H179.313C179.153 181 179.073 180.92 179.073 180.76V169.096C179.073 168.936 179.153 168.856 179.313 168.856H180.537C180.697 168.856 180.777 168.936 180.777 169.096V170.536C180.777 170.584 180.785 170.608 180.801 170.608C180.833 170.608 180.865 170.592 180.897 170.56C181.361 169.344 182.121 168.736 183.177 168.736ZM193.235 175.336C193.235 175.496 193.155 175.576 192.995 175.576H187.523C187.459 175.576 187.427 175.608 187.427 175.672V177.424C187.427 178.096 187.611 178.648 187.979 179.08C188.363 179.496 188.859 179.704 189.467 179.704C189.979 179.704 190.411 179.552 190.763 179.248C191.131 178.928 191.371 178.52 191.483 178.024C191.531 177.88 191.619 177.808 191.747 177.808L192.947 177.856C193.011 177.856 193.067 177.88 193.115 177.928C193.163 177.976 193.179 178.04 193.163 178.12C193.035 179.064 192.643 179.816 191.987 180.376C191.347 180.92 190.507 181.192 189.467 181.192C188.331 181.192 187.419 180.856 186.731 180.184C186.059 179.512 185.723 178.624 185.723 177.52V172.336C185.723 171.248 186.059 170.368 186.731 169.696C187.419 169.008 188.331 168.664 189.467 168.664C190.619 168.664 191.531 169.008 192.203 169.696C192.891 170.368 193.235 171.248 193.235 172.336V175.336ZM189.467 170.152C188.859 170.152 188.363 170.368 187.979 170.8C187.611 171.216 187.427 171.768 187.427 172.456V174.064C187.427 174.128 187.459 174.16 187.523 174.16H191.459C191.523 174.16 191.555 174.128 191.555 174.064V172.456C191.555 171.768 191.363 171.216 190.979 170.8C190.595 170.368 190.091 170.152 189.467 170.152ZM200.081 168.688C201.057 168.688 201.809 169.024 202.337 169.696C202.881 170.368 203.153 171.304 203.153 172.504V180.76C203.153 180.92 203.073 181 202.913 181H201.689C201.529 181 201.449 180.92 201.449 180.76V172.648C201.449 171.864 201.273 171.256 200.921 170.824C200.585 170.392 200.113 170.176 199.505 170.176C198.865 170.176 198.361 170.408 197.993 170.872C197.641 171.336 197.465 171.968 197.465 172.768V180.76C197.465 180.92 197.385 181 197.225 181H196.001C195.841 181 195.761 180.92 195.761 180.76V169.096C195.761 168.936 195.841 168.856 196.001 168.856H197.225C197.385 168.856 197.465 168.936 197.465 169.096V169.864C197.465 169.896 197.481 169.92 197.513 169.936C197.545 169.952 197.569 169.936 197.585 169.888C197.873 169.488 198.233 169.192 198.665 169C199.113 168.792 199.585 168.688 200.081 168.688ZM209.437 181.192C208.285 181.192 207.365 180.856 206.677 180.184C206.005 179.512 205.669 178.624 205.669 177.52V172.36C205.669 171.272 206.013 170.384 206.701 169.696C207.389 169.008 208.301 168.664 209.437 168.664C210.589 168.664 211.509 169.008 212.197 169.696C212.885 170.384 213.229 171.272 213.229 172.36V177.52C213.229 178.624 212.885 179.512 212.197 180.184C211.509 180.856 210.589 181.192 209.437 181.192ZM209.437 179.68C210.045 179.68 210.541 179.472 210.925 179.056C211.325 178.64 211.525 178.088 211.525 177.4V172.456C211.525 171.768 211.325 171.216 210.925 170.8C210.541 170.368 210.045 170.152 209.437 170.152C208.829 170.152 208.333 170.368 207.949 170.8C207.565 171.216 207.373 171.768 207.373 172.456V177.4C207.373 178.088 207.565 178.64 207.949 179.056C208.333 179.472 208.829 179.68 209.437 179.68ZM225.614 168.688C226.574 168.688 227.318 169.04 227.846 169.744C228.374 170.448 228.638 171.424 228.638 172.672V180.76C228.638 180.92 228.558 181 228.398 181H227.198C227.038 181 226.958 180.92 226.958 180.76V172.816C226.958 172 226.782 171.36 226.43 170.896C226.094 170.416 225.646 170.176 225.086 170.176C224.478 170.176 223.998 170.408 223.646 170.872C223.294 171.336 223.118 171.968 223.118 172.768V180.76C223.118 180.92 223.038 181 222.878 181H221.654C221.494 181 221.414 180.92 221.414 180.76V172.816C221.414 172 221.238 171.36 220.886 170.896C220.55 170.416 220.11 170.176 219.566 170.176C218.958 170.176 218.47 170.408 218.102 170.872C217.75 171.336 217.574 171.968 217.574 172.768V180.76C217.574 180.92 217.494 181 217.334 181H216.134C215.974 181 215.894 180.92 215.894 180.76V169.096C215.894 168.936 215.974 168.856 216.134 168.856H217.334C217.494 168.856 217.574 168.936 217.574 169.096V169.84C217.574 169.872 217.582 169.896 217.598 169.912C217.63 169.912 217.662 169.896 217.694 169.864C217.998 169.464 218.358 169.168 218.774 168.976C219.19 168.784 219.63 168.688 220.094 168.688C220.702 168.688 221.23 168.84 221.678 169.144C222.126 169.432 222.47 169.848 222.71 170.392C222.726 170.424 222.75 170.44 222.782 170.44C222.814 170.44 222.838 170.416 222.854 170.368C223.142 169.792 223.534 169.368 224.03 169.096C224.526 168.824 225.054 168.688 225.614 168.688ZM235.008 168.664C236.128 168.664 237.024 169.032 237.696 169.768C238.368 170.488 238.704 171.456 238.704 172.672V180.76C238.704 180.92 238.624 181 238.464 181H237.24C237.08 181 237 180.92 237 180.76V180.04C237 180.008 236.984 179.992 236.952 179.992C236.936 179.976 236.912 179.984 236.88 180.016C236.288 180.8 235.4 181.192 234.216 181.192C233.336 181.192 232.568 180.944 231.912 180.448C231.272 179.936 230.952 179.04 230.952 177.76C230.952 176.4 231.344 175.408 232.128 174.784C232.912 174.144 233.944 173.824 235.224 173.824H236.904C236.968 173.824 237 173.792 237 173.728V172.792C237 171.992 236.816 171.352 236.448 170.872C236.08 170.392 235.584 170.152 234.96 170.152C234.48 170.152 234.064 170.312 233.712 170.632C233.376 170.952 233.176 171.36 233.112 171.856C233.112 172.016 233.032 172.096 232.872 172.096L231.528 172.072C231.448 172.072 231.384 172.048 231.336 172C231.304 171.952 231.296 171.896 231.312 171.832C231.392 170.888 231.776 170.128 232.464 169.552C233.152 168.96 234 168.664 235.008 168.664ZM234.576 179.704C235.232 179.704 235.8 179.496 236.28 179.08C236.76 178.648 237 178.056 237 177.304V175.288C237 175.224 236.968 175.192 236.904 175.192H235.2C234.432 175.192 233.824 175.4 233.376 175.816C232.928 176.216 232.704 176.816 232.704 177.616C232.704 178.32 232.872 178.848 233.208 179.2C233.56 179.536 234.016 179.704 234.576 179.704ZM246.89 164.44C246.89 164.28 246.97 164.2 247.13 164.2H248.354C248.514 164.2 248.594 164.28 248.594 164.44V180.76C248.594 180.92 248.514 181 248.354 181H247.13C246.97 181 246.89 180.92 246.89 180.76V180.232C246.89 180.2 246.874 180.176 246.842 180.16C246.826 180.144 246.802 180.152 246.77 180.184C246.162 180.856 245.394 181.192 244.466 181.192C243.442 181.192 242.626 180.856 242.018 180.184C241.41 179.496 241.106 178.608 241.106 177.52V172.336C241.106 171.216 241.41 170.328 242.018 169.672C242.626 169 243.442 168.664 244.466 168.664C245.41 168.664 246.178 169.008 246.77 169.696C246.802 169.728 246.826 169.736 246.842 169.72C246.874 169.704 246.89 169.68 246.89 169.648V164.44ZM244.874 179.704C245.466 179.704 245.946 179.496 246.314 179.08C246.698 178.648 246.89 178.096 246.89 177.424V172.456C246.89 171.768 246.698 171.216 246.314 170.8C245.946 170.368 245.466 170.152 244.874 170.152C244.266 170.152 243.762 170.368 243.362 170.8C242.978 171.216 242.786 171.768 242.786 172.456V177.424C242.786 178.096 242.978 178.648 243.362 179.08C243.762 179.496 244.266 179.704 244.874 179.704ZM255.023 181.192C253.871 181.192 252.951 180.856 252.263 180.184C251.591 179.512 251.255 178.624 251.255 177.52V172.36C251.255 171.272 251.599 170.384 252.287 169.696C252.975 169.008 253.887 168.664 255.023 168.664C256.175 168.664 257.095 169.008 257.783 169.696C258.471 170.384 258.815 171.272 258.815 172.36V177.52C258.815 178.624 258.471 179.512 257.783 180.184C257.095 180.856 256.175 181.192 255.023 181.192ZM255.023 179.68C255.631 179.68 256.127 179.472 256.511 179.056C256.911 178.64 257.111 178.088 257.111 177.4V172.456C257.111 171.768 256.911 171.216 256.511 170.8C256.127 170.368 255.631 170.152 255.023 170.152C254.415 170.152 253.919 170.368 253.535 170.8C253.151 171.216 252.959 171.768 252.959 172.456V177.4C252.959 178.088 253.151 178.64 253.535 179.056C253.919 179.472 254.415 179.68 255.023 179.68ZM264.648 181.12C263.544 181.12 262.656 180.84 261.984 180.28C261.328 179.704 261 178.944 261 178V177.832C261 177.672 261.08 177.592 261.24 177.592H262.392C262.552 177.592 262.632 177.672 262.632 177.832V177.976C262.632 178.488 262.816 178.92 263.184 179.272C263.568 179.624 264.064 179.8 264.672 179.8C265.248 179.8 265.712 179.624 266.064 179.272C266.416 178.92 266.592 178.472 266.592 177.928C266.592 177.512 266.48 177.168 266.256 176.896C266.032 176.608 265.768 176.384 265.464 176.224C265.176 176.064 264.736 175.856 264.144 175.6C263.52 175.344 263 175.096 262.584 174.856C262.184 174.6 261.832 174.248 261.528 173.8C261.24 173.336 261.096 172.752 261.096 172.048C261.096 171.024 261.408 170.216 262.032 169.624C262.672 169.032 263.528 168.736 264.6 168.736C265.688 168.736 266.552 169.04 267.192 169.648C267.832 170.256 268.152 171.064 268.152 172.072V172.144C268.152 172.304 268.072 172.384 267.912 172.384H266.808C266.648 172.384 266.568 172.304 266.568 172.144V172C266.568 171.456 266.384 171.008 266.016 170.656C265.664 170.304 265.2 170.128 264.624 170.128C264.048 170.128 263.584 170.312 263.232 170.68C262.896 171.032 262.728 171.472 262.728 172C262.728 172.384 262.832 172.712 263.04 172.984C263.248 173.24 263.504 173.456 263.808 173.632C264.112 173.792 264.536 173.992 265.08 174.232C265.736 174.52 266.272 174.792 266.688 175.048C267.12 175.304 267.496 175.664 267.816 176.128C268.136 176.592 268.296 177.168 268.296 177.856C268.296 178.848 267.968 179.64 267.312 180.232C266.656 180.824 265.768 181.12 264.648 181.12Z" fill="black"/>
<path d="M185 76.9246L167.5 68.1746L150 76.9246V31H185V76.9246ZM167.5 65.7651L182.845 73.4375V33.1551H152.155V73.4375L167.5 65.7651ZM167.5 42.2371L169.485 46.2414L173.905 46.888L170.707 50.0195L171.483 54.4441L167.5 52.3363L163.517 54.4289L164.293 50.0043L161.095 46.8837L165.515 46.2371L167.5 42.2371ZM169.285 48.3901L168.058 48.2112L167.5 47.0905L166.942 48.2155L165.716 48.3944L166.612 49.2715L166.397 50.4936L167.5 49.9116L168.603 50.4914L168.388 49.2694L169.285 48.3901Z" fill="black"/>
</svg>
