<svg width="335" height="226" viewBox="0 0 335 226" fill="none" xmlns="http://www.w3.org/2000/svg">
<rect y="31" width="335" height="195" rx="20" fill="#F5F5F5"/>
<circle cx="167" cy="50" r="50" fill="#132F95"/>
<path d="M105.507 152.192C104.275 152.192 103.275 151.808 102.507 151.04C101.755 150.272 101.379 149.256 101.379 147.992V139.208C101.379 137.944 101.755 136.928 102.507 136.16C103.275 135.392 104.275 135.008 105.507 135.008C106.755 135.008 107.763 135.392 108.531 136.16C109.299 136.928 109.683 137.944 109.683 139.208V147.992C109.683 149.24 109.299 150.256 108.531 151.04C107.763 151.808 106.755 152.192 105.507 152.192ZM105.507 150.704C106.243 150.704 106.835 150.464 107.283 149.984C107.747 149.488 107.979 148.856 107.979 148.088V139.136C107.979 138.352 107.747 137.72 107.283 137.24C106.835 136.744 106.243 136.496 105.507 136.496C104.787 136.496 104.203 136.744 103.755 137.24C103.307 137.72 103.083 138.352 103.083 139.136V148.088C103.083 148.856 103.307 149.488 103.755 149.984C104.203 150.464 104.787 150.704 105.507 150.704ZM104.691 133.64C104.595 133.64 104.531 133.616 104.499 133.568C104.467 133.504 104.475 133.432 104.523 133.352L106.011 130.736C106.091 130.624 106.187 130.568 106.299 130.568H107.283C107.379 130.568 107.435 130.6 107.451 130.664C107.483 130.712 107.475 130.776 107.427 130.856L105.747 133.472C105.667 133.584 105.571 133.64 105.459 133.64H104.691ZM116.74 140.888C116.74 141.048 116.66 141.128 116.5 141.128H114.676C114.612 141.128 114.58 141.16 114.58 141.224V148.568C114.58 149.304 114.708 149.816 114.964 150.104C115.22 150.376 115.612 150.504 116.14 150.488H116.38C116.54 150.488 116.62 150.568 116.62 150.728V151.76C116.62 151.92 116.54 152 116.38 152H115.78C114.836 152 114.116 151.8 113.62 151.4C113.14 150.984 112.9 150.208 112.9 149.072V141.224C112.9 141.16 112.868 141.128 112.804 141.128H111.868C111.708 141.128 111.628 141.048 111.628 140.888V140.096C111.628 139.936 111.708 139.856 111.868 139.856H112.804C112.868 139.856 112.9 139.824 112.9 139.76V137.072C112.9 136.912 112.98 136.832 113.14 136.832H114.34C114.5 136.832 114.58 136.912 114.58 137.072V139.76C114.58 139.824 114.612 139.856 114.676 139.856H116.5C116.66 139.856 116.74 139.936 116.74 140.096V140.888ZM119.898 137.648C119.498 137.648 119.17 137.52 118.914 137.264C118.674 137.008 118.554 136.688 118.554 136.304C118.554 135.904 118.674 135.584 118.914 135.344C119.17 135.088 119.498 134.96 119.898 134.96C120.282 134.96 120.594 135.088 120.834 135.344C121.09 135.584 121.218 135.904 121.218 136.304C121.218 136.688 121.09 137.008 120.834 137.264C120.594 137.52 120.282 137.648 119.898 137.648ZM119.298 152C119.138 152 119.058 151.92 119.058 151.76V140.096C119.058 139.936 119.138 139.856 119.298 139.856H120.522C120.682 139.856 120.762 139.936 120.762 140.096V151.76C120.762 151.92 120.682 152 120.522 152H119.298ZM133.579 139.688C134.539 139.688 135.283 140.04 135.811 140.744C136.339 141.448 136.603 142.424 136.603 143.672V151.76C136.603 151.92 136.523 152 136.363 152H135.163C135.003 152 134.923 151.92 134.923 151.76V143.816C134.923 143 134.747 142.36 134.395 141.896C134.059 141.416 133.611 141.176 133.051 141.176C132.443 141.176 131.963 141.408 131.611 141.872C131.259 142.336 131.083 142.968 131.083 143.768V151.76C131.083 151.92 131.003 152 130.843 152H129.619C129.459 152 129.379 151.92 129.379 151.76V143.816C129.379 143 129.203 142.36 128.851 141.896C128.515 141.416 128.075 141.176 127.531 141.176C126.923 141.176 126.435 141.408 126.067 141.872C125.715 142.336 125.539 142.968 125.539 143.768V151.76C125.539 151.92 125.459 152 125.299 152H124.099C123.939 152 123.859 151.92 123.859 151.76V140.096C123.859 139.936 123.939 139.856 124.099 139.856H125.299C125.459 139.856 125.539 139.936 125.539 140.096V140.84C125.539 140.872 125.547 140.896 125.563 140.912C125.595 140.912 125.627 140.896 125.659 140.864C125.963 140.464 126.323 140.168 126.739 139.976C127.155 139.784 127.595 139.688 128.059 139.688C128.667 139.688 129.195 139.84 129.643 140.144C130.091 140.432 130.435 140.848 130.675 141.392C130.691 141.424 130.715 141.44 130.747 141.44C130.779 141.44 130.803 141.416 130.819 141.368C131.107 140.792 131.499 140.368 131.995 140.096C132.491 139.824 133.019 139.688 133.579 139.688ZM142.973 139.664C144.093 139.664 144.989 140.032 145.661 140.768C146.333 141.488 146.669 142.456 146.669 143.672V151.76C146.669 151.92 146.589 152 146.429 152H145.205C145.045 152 144.965 151.92 144.965 151.76V151.04C144.965 151.008 144.949 150.992 144.917 150.992C144.901 150.976 144.877 150.984 144.845 151.016C144.253 151.8 143.365 152.192 142.181 152.192C141.301 152.192 140.533 151.944 139.877 151.448C139.237 150.936 138.917 150.04 138.917 148.76C138.917 147.4 139.309 146.408 140.093 145.784C140.877 145.144 141.909 144.824 143.189 144.824H144.869C144.933 144.824 144.965 144.792 144.965 144.728V143.792C144.965 142.992 144.781 142.352 144.413 141.872C144.045 141.392 143.549 141.152 142.925 141.152C142.445 141.152 142.029 141.312 141.677 141.632C141.341 141.952 141.141 142.36 141.077 142.856C141.077 143.016 140.997 143.096 140.837 143.096L139.493 143.072C139.413 143.072 139.349 143.048 139.301 143C139.269 142.952 139.261 142.896 139.277 142.832C139.357 141.888 139.741 141.128 140.429 140.552C141.117 139.96 141.965 139.664 142.973 139.664ZM142.541 150.704C143.197 150.704 143.765 150.496 144.245 150.08C144.725 149.648 144.965 149.056 144.965 148.304V146.288C144.965 146.224 144.933 146.192 144.869 146.192H143.165C142.397 146.192 141.789 146.4 141.341 146.816C140.893 147.216 140.669 147.816 140.669 148.616C140.669 149.32 140.837 149.848 141.173 150.2C141.525 150.536 141.981 150.704 142.541 150.704ZM154.236 152C154.076 152 153.996 151.92 153.996 151.76V135.44C153.996 135.28 154.076 135.2 154.236 135.2H155.46C155.62 135.2 155.7 135.28 155.7 135.44V151.76C155.7 151.92 155.62 152 155.46 152H154.236ZM161.98 152.192C160.828 152.192 159.908 151.856 159.22 151.184C158.548 150.512 158.212 149.624 158.212 148.52V143.36C158.212 142.272 158.556 141.384 159.244 140.696C159.932 140.008 160.844 139.664 161.98 139.664C163.132 139.664 164.052 140.008 164.74 140.696C165.428 141.384 165.772 142.272 165.772 143.36V148.52C165.772 149.624 165.428 150.512 164.74 151.184C164.052 151.856 163.132 152.192 161.98 152.192ZM161.98 150.68C162.588 150.68 163.084 150.472 163.468 150.056C163.868 149.64 164.068 149.088 164.068 148.4V143.456C164.068 142.768 163.868 142.216 163.468 141.8C163.084 141.368 162.588 141.152 161.98 141.152C161.372 141.152 160.876 141.368 160.492 141.8C160.108 142.216 159.916 142.768 159.916 143.456V148.4C159.916 149.088 160.108 149.64 160.492 150.056C160.876 150.472 161.372 150.68 161.98 150.68ZM171.917 152.192C170.781 152.192 169.869 151.856 169.181 151.184C168.509 150.512 168.173 149.624 168.173 148.52V143.336C168.173 142.248 168.517 141.368 169.205 140.696C169.893 140.008 170.797 139.664 171.917 139.664C172.669 139.664 173.333 139.816 173.909 140.12C174.485 140.424 174.925 140.832 175.229 141.344C175.549 141.84 175.709 142.392 175.709 143V143.24C175.709 143.4 175.629 143.48 175.469 143.48L174.245 143.528C174.085 143.528 174.005 143.448 174.005 143.288V143.12C174.005 142.592 173.805 142.136 173.405 141.752C173.021 141.352 172.525 141.152 171.917 141.152C171.309 141.152 170.813 141.368 170.429 141.8C170.061 142.216 169.877 142.768 169.877 143.456V148.4C169.877 149.088 170.061 149.648 170.429 150.08C170.813 150.496 171.309 150.704 171.917 150.704C172.525 150.704 173.021 150.512 173.405 150.128C173.805 149.728 174.005 149.264 174.005 148.736V148.568C174.005 148.408 174.085 148.328 174.245 148.328L175.469 148.352C175.629 148.352 175.709 148.432 175.709 148.592V148.856C175.709 149.816 175.357 150.616 174.653 151.256C173.965 151.88 173.053 152.192 171.917 152.192ZM181.645 139.664C182.765 139.664 183.661 140.032 184.333 140.768C185.005 141.488 185.341 142.456 185.341 143.672V151.76C185.341 151.92 185.261 152 185.101 152H183.877C183.717 152 183.637 151.92 183.637 151.76V151.04C183.637 151.008 183.621 150.992 183.589 150.992C183.573 150.976 183.549 150.984 183.517 151.016C182.925 151.8 182.037 152.192 180.853 152.192C179.973 152.192 179.205 151.944 178.549 151.448C177.909 150.936 177.589 150.04 177.589 148.76C177.589 147.4 177.981 146.408 178.765 145.784C179.549 145.144 180.581 144.824 181.861 144.824H183.541C183.605 144.824 183.637 144.792 183.637 144.728V143.792C183.637 142.992 183.453 142.352 183.085 141.872C182.717 141.392 182.221 141.152 181.597 141.152C181.117 141.152 180.701 141.312 180.349 141.632C180.013 141.952 179.813 142.36 179.749 142.856C179.749 143.016 179.669 143.096 179.509 143.096L178.165 143.072C178.085 143.072 178.021 143.048 177.973 143C177.941 142.952 177.933 142.896 177.949 142.832C178.029 141.888 178.413 141.128 179.101 140.552C179.789 139.96 180.637 139.664 181.645 139.664ZM181.213 150.704C181.869 150.704 182.437 150.496 182.917 150.08C183.397 149.648 183.637 149.056 183.637 148.304V146.288C183.637 146.224 183.605 146.192 183.541 146.192H181.837C181.069 146.192 180.461 146.4 180.013 146.816C179.565 147.216 179.341 147.816 179.341 148.616C179.341 149.32 179.509 149.848 179.845 150.2C180.197 150.536 180.653 150.704 181.213 150.704ZM188.103 152C187.943 152 187.863 151.92 187.863 151.76V135.44C187.863 135.28 187.943 135.2 188.103 135.2H189.327C189.487 135.2 189.567 135.28 189.567 135.44V151.76C189.567 151.92 189.487 152 189.327 152H188.103ZM193.375 137.648C192.975 137.648 192.647 137.52 192.391 137.264C192.151 137.008 192.031 136.688 192.031 136.304C192.031 135.904 192.151 135.584 192.391 135.344C192.647 135.088 192.975 134.96 193.375 134.96C193.759 134.96 194.071 135.088 194.311 135.344C194.567 135.584 194.695 135.904 194.695 136.304C194.695 136.688 194.567 137.008 194.311 137.264C194.071 137.52 193.759 137.648 193.375 137.648ZM192.775 152C192.615 152 192.535 151.92 192.535 151.76V140.096C192.535 139.936 192.615 139.856 192.775 139.856H193.999C194.159 139.856 194.239 139.936 194.239 140.096V151.76C194.239 151.92 194.159 152 193.999 152H192.775ZM196.903 152C196.743 152 196.663 151.92 196.663 151.76V150.608C196.663 150.496 196.687 150.392 196.735 150.296L201.655 141.536C201.671 141.504 201.671 141.48 201.655 141.464C201.655 141.432 201.639 141.416 201.607 141.416H196.999C196.839 141.416 196.759 141.336 196.759 141.176V140.096C196.759 139.936 196.839 139.856 196.999 139.856H203.479C203.639 139.856 203.719 139.936 203.719 140.096V141.248C203.719 141.36 203.695 141.464 203.647 141.56L198.679 150.32C198.663 150.352 198.663 150.384 198.679 150.416C198.695 150.432 198.719 150.44 198.751 150.44H203.527C203.687 150.44 203.767 150.52 203.767 150.68V151.76C203.767 151.92 203.687 152 203.527 152H196.903ZM209.559 139.664C210.679 139.664 211.575 140.032 212.247 140.768C212.919 141.488 213.255 142.456 213.255 143.672V151.76C213.255 151.92 213.175 152 213.015 152H211.791C211.631 152 211.551 151.92 211.551 151.76V151.04C211.551 151.008 211.535 150.992 211.503 150.992C211.487 150.976 211.463 150.984 211.431 151.016C210.839 151.8 209.951 152.192 208.767 152.192C207.887 152.192 207.119 151.944 206.463 151.448C205.823 150.936 205.503 150.04 205.503 148.76C205.503 147.4 205.895 146.408 206.679 145.784C207.463 145.144 208.495 144.824 209.775 144.824H211.455C211.519 144.824 211.551 144.792 211.551 144.728V143.792C211.551 142.992 211.367 142.352 210.999 141.872C210.631 141.392 210.135 141.152 209.511 141.152C209.031 141.152 208.615 141.312 208.263 141.632C207.927 141.952 207.727 142.36 207.663 142.856C207.663 143.016 207.583 143.096 207.423 143.096L206.079 143.072C205.999 143.072 205.935 143.048 205.887 143C205.855 142.952 205.847 142.896 205.863 142.832C205.943 141.888 206.327 141.128 207.015 140.552C207.703 139.96 208.551 139.664 209.559 139.664ZM209.127 150.704C209.783 150.704 210.351 150.496 210.831 150.08C211.311 149.648 211.551 149.056 211.551 148.304V146.288C211.551 146.224 211.519 146.192 211.455 146.192H209.751C208.983 146.192 208.375 146.4 207.927 146.816C207.479 147.216 207.255 147.816 207.255 148.616C207.255 149.32 207.423 149.848 207.759 150.2C208.111 150.536 208.567 150.704 209.127 150.704ZM223.193 143.24C223.193 143.4 223.113 143.48 222.953 143.48L221.729 143.528C221.569 143.528 221.489 143.448 221.489 143.288V143.12C221.489 142.592 221.289 142.136 220.889 141.752C220.505 141.352 220.009 141.152 219.401 141.152C218.793 141.152 218.297 141.368 217.913 141.8C217.545 142.216 217.361 142.768 217.361 143.456V148.4C217.361 149.088 217.545 149.648 217.913 150.08C218.297 150.496 218.793 150.704 219.401 150.704C220.009 150.704 220.505 150.512 220.889 150.128C221.289 149.728 221.489 149.264 221.489 148.736V148.568C221.489 148.408 221.569 148.328 221.729 148.328L222.953 148.352C223.113 148.352 223.193 148.432 223.193 148.592V148.856C223.193 149.688 222.913 150.408 222.353 151.016C221.809 151.608 221.081 151.976 220.169 152.12C220.089 152.152 220.073 152.192 220.121 152.24C220.777 152.912 221.105 153.656 221.105 154.472C221.105 155.176 220.921 155.672 220.553 155.96C220.185 156.264 219.729 156.416 219.185 156.416C218.929 156.416 218.689 156.392 218.465 156.344C218.337 156.328 218.281 156.24 218.297 156.08L218.369 155.552C218.401 155.424 218.481 155.36 218.609 155.36C218.625 155.376 218.657 155.384 218.705 155.384C219.057 155.432 219.345 155.368 219.569 155.192C219.793 155.016 219.905 154.704 219.905 154.256C219.905 153.648 219.553 152.96 218.849 152.192C218.817 152.16 218.777 152.144 218.729 152.144C217.785 152.032 217.033 151.648 216.473 150.992C215.929 150.336 215.657 149.512 215.657 148.52V143.336C215.657 142.248 216.001 141.368 216.689 140.696C217.377 140.008 218.281 139.664 219.401 139.664C220.153 139.664 220.817 139.816 221.393 140.12C221.969 140.424 222.409 140.832 222.713 141.344C223.033 141.84 223.193 142.392 223.193 143V143.24ZM229.129 139.664C230.249 139.664 231.145 140.032 231.817 140.768C232.489 141.488 232.825 142.456 232.825 143.672V151.76C232.825 151.92 232.745 152 232.585 152H231.361C231.201 152 231.121 151.92 231.121 151.76V151.04C231.121 151.008 231.105 150.992 231.073 150.992C231.057 150.976 231.033 150.984 231.001 151.016C230.409 151.8 229.521 152.192 228.337 152.192C227.457 152.192 226.689 151.944 226.033 151.448C225.393 150.936 225.073 150.04 225.073 148.76C225.073 147.4 225.465 146.408 226.249 145.784C227.033 145.144 228.065 144.824 229.345 144.824H231.025C231.089 144.824 231.121 144.792 231.121 144.728V143.792C231.121 142.992 230.937 142.352 230.569 141.872C230.201 141.392 229.705 141.152 229.081 141.152C228.601 141.152 228.185 141.312 227.833 141.632C227.497 141.952 227.297 142.36 227.233 142.856C227.233 143.016 227.153 143.096 226.993 143.096L225.649 143.072C225.569 143.072 225.505 143.048 225.457 143C225.425 142.952 225.417 142.896 225.433 142.832C225.513 141.888 225.897 141.128 226.585 140.552C227.273 139.96 228.121 139.664 229.129 139.664ZM228.697 150.704C229.353 150.704 229.921 150.496 230.401 150.08C230.881 149.648 231.121 149.056 231.121 148.304V146.288C231.121 146.224 231.089 146.192 231.025 146.192H229.321C228.553 146.192 227.945 146.4 227.497 146.816C227.049 147.216 226.825 147.816 226.825 148.616C226.825 149.32 226.993 149.848 227.329 150.2C227.681 150.536 228.137 150.704 228.697 150.704ZM230.545 137.408C230.321 137.408 230.121 137.368 229.945 137.288C229.769 137.192 229.537 137.056 229.249 136.88C229.185 136.832 229.081 136.76 228.937 136.664C228.793 136.568 228.665 136.504 228.553 136.472C228.441 136.424 228.321 136.4 228.193 136.4C227.969 136.4 227.769 136.448 227.593 136.544C227.433 136.624 227.273 136.784 227.113 137.024C227.017 137.168 226.905 137.192 226.777 137.096L226.345 136.784C226.217 136.688 226.185 136.576 226.249 136.448C226.681 135.616 227.289 135.2 228.073 135.2C228.329 135.2 228.561 135.248 228.769 135.344C228.977 135.44 229.209 135.576 229.465 135.752C229.497 135.784 229.585 135.848 229.729 135.944C229.873 136.04 230.009 136.12 230.137 136.184C230.281 136.232 230.417 136.256 230.545 136.256C230.753 136.256 230.937 136.208 231.097 136.112C231.257 136.016 231.417 135.84 231.577 135.584C231.609 135.52 231.657 135.48 231.721 135.464C231.785 135.448 231.849 135.456 231.913 135.488L232.345 135.776C232.409 135.824 232.441 135.888 232.441 135.968C232.441 136.048 232.409 136.144 232.345 136.256C232.121 136.656 231.841 136.952 231.505 137.144C231.169 137.32 230.849 137.408 230.545 137.408ZM238.948 152.192C237.796 152.192 236.876 151.856 236.188 151.184C235.516 150.512 235.18 149.624 235.18 148.52V143.36C235.18 142.272 235.524 141.384 236.212 140.696C236.9 140.008 237.812 139.664 238.948 139.664C240.1 139.664 241.02 140.008 241.708 140.696C242.396 141.384 242.74 142.272 242.74 143.36V148.52C242.74 149.624 242.396 150.512 241.708 151.184C241.02 151.856 240.1 152.192 238.948 152.192ZM238.948 150.68C239.556 150.68 240.052 150.472 240.436 150.056C240.836 149.64 241.036 149.088 241.036 148.4V143.456C241.036 142.768 240.836 142.216 240.436 141.8C240.052 141.368 239.556 141.152 238.948 141.152C238.34 141.152 237.844 141.368 237.46 141.8C237.076 142.216 236.884 142.768 236.884 143.456V148.4C236.884 149.088 237.076 149.64 237.46 150.056C237.844 150.472 238.34 150.68 238.948 150.68Z" fill="black"/>
<path d="M167.5 26C177.16 26.011 184.989 33.8395 185 43.499V43.5C184.902 47.5175 183.928 51.285 182.265 54.6501L182.334 54.4946C180.629 58.0816 178.706 61.1691 176.483 64.0104L176.566 63.9003C173.986 67.2753 171.245 70.2615 168.26 72.9852L168.207 73.0331L167.5 73.6502L166.793 73.031C163.755 70.2594 161.014 67.2732 158.554 64.061L158.434 63.8983C156.294 61.1676 154.371 58.0808 152.796 54.7957L152.666 54.4946C151.072 51.285 150.098 47.5176 150.001 43.5329L150 43.5001C150.011 33.8396 157.839 26.0111 167.499 26H167.5L167.5 26ZM167.5 70.7627C170.142 68.2563 172.561 65.5776 174.763 62.7226L174.883 62.561C178.518 57.7882 182.85 50.6054 182.85 43.4979C182.85 35.0202 175.978 28.1477 167.5 28.1477C159.022 28.1477 152.15 35.0202 152.15 43.4979C152.15 55.5373 164.398 67.841 167.5 70.7628L167.5 70.7627ZM167.5 36.2764C171.489 36.2764 174.724 39.5106 174.724 43.5C174.724 47.4895 171.489 50.7237 167.5 50.7237C163.51 50.7237 160.276 47.4895 160.276 43.5C160.281 39.5126 163.512 36.2813 167.499 36.2764H167.5ZM167.5 48.5738C170.302 48.5738 172.574 46.3022 172.574 43.5C172.574 40.6979 170.302 38.4263 167.5 38.4263C164.698 38.4263 162.426 40.6979 162.426 43.5C162.43 46.3007 164.699 48.5701 167.5 48.5738H167.5Z" fill="black"/>
</svg>
