<svg width="335" height="226" viewBox="0 0 335 226" fill="none" xmlns="http://www.w3.org/2000/svg">
<rect y="31" width="335" height="195" rx="20" fill="#F5F5F5"/>
<circle cx="167" cy="50" r="50" fill="#132F95"/>
<path d="M86.0765 135.2C86.2365 135.2 86.3165 135.28 86.3165 135.44V136.448C86.3165 136.608 86.2365 136.688 86.0765 136.688H82.9085C82.8445 136.688 82.8125 136.72 82.8125 136.784V151.76C82.8125 151.92 82.7325 152 82.5725 152H81.3485C81.1885 152 81.1085 151.92 81.1085 151.76V136.784C81.1085 136.72 81.0765 136.688 81.0125 136.688H78.0365C77.8765 136.688 77.7965 136.608 77.7965 136.448V135.44C77.7965 135.28 77.8765 135.2 78.0365 135.2H86.0765ZM91.6293 139.664C92.7493 139.664 93.6453 140.032 94.3173 140.768C94.9893 141.488 95.3253 142.456 95.3253 143.672V151.76C95.3253 151.92 95.2453 152 95.0853 152H93.8613C93.7013 152 93.6213 151.92 93.6213 151.76V151.04C93.6213 151.008 93.6053 150.992 93.5733 150.992C93.5573 150.976 93.5333 150.984 93.5013 151.016C92.9093 151.8 92.0213 152.192 90.8373 152.192C89.9573 152.192 89.1893 151.944 88.5333 151.448C87.8933 150.936 87.5733 150.04 87.5733 148.76C87.5733 147.4 87.9653 146.408 88.7493 145.784C89.5333 145.144 90.5653 144.824 91.8453 144.824H93.5253C93.5893 144.824 93.6213 144.792 93.6213 144.728V143.792C93.6213 142.992 93.4373 142.352 93.0693 141.872C92.7013 141.392 92.2053 141.152 91.5813 141.152C91.1013 141.152 90.6853 141.312 90.3333 141.632C89.9973 141.952 89.7973 142.36 89.7333 142.856C89.7333 143.016 89.6533 143.096 89.4933 143.096L88.1493 143.072C88.0693 143.072 88.0053 143.048 87.9573 143C87.9253 142.952 87.9173 142.896 87.9333 142.832C88.0133 141.888 88.3973 141.128 89.0853 140.552C89.7733 139.96 90.6213 139.664 91.6293 139.664ZM91.1973 150.704C91.8533 150.704 92.4213 150.496 92.9013 150.08C93.3813 149.648 93.6213 149.056 93.6213 148.304V146.288C93.6213 146.224 93.5893 146.192 93.5253 146.192H91.8213C91.0533 146.192 90.4453 146.4 89.9973 146.816C89.5493 147.216 89.3253 147.816 89.3253 148.616C89.3253 149.32 89.4933 149.848 89.8293 150.2C90.1813 150.536 90.6373 150.704 91.1973 150.704ZM102.119 139.664C103.127 139.664 103.935 140 104.543 140.672C105.167 141.328 105.479 142.216 105.479 143.336V148.52C105.479 149.608 105.175 150.496 104.567 151.184C103.959 151.856 103.143 152.192 102.119 152.192C101.687 152.192 101.271 152.112 100.871 151.952C100.471 151.776 100.119 151.52 99.8153 151.184C99.7833 151.152 99.7513 151.144 99.7193 151.16C99.7033 151.176 99.6953 151.2 99.6953 151.232V151.76C99.6953 151.92 99.6153 152 99.4553 152H98.2313C98.0713 152 97.9913 151.92 97.9913 151.76V135.44C97.9913 135.28 98.0713 135.2 98.2313 135.2H99.4553C99.6153 135.2 99.6953 135.28 99.6953 135.44V140.624C99.6953 140.656 99.7113 140.68 99.7433 140.696C99.7753 140.712 99.8073 140.696 99.8393 140.648C100.127 140.328 100.471 140.088 100.871 139.928C101.271 139.752 101.687 139.664 102.119 139.664ZM103.775 143.456C103.775 142.768 103.583 142.216 103.199 141.8C102.815 141.368 102.311 141.152 101.687 141.152C101.095 141.152 100.615 141.368 100.247 141.8C99.8793 142.216 99.6953 142.768 99.6953 143.456V148.424C99.6953 149.096 99.8793 149.648 100.247 150.08C100.615 150.496 101.095 150.704 101.687 150.704C102.311 150.704 102.815 150.496 103.199 150.08C103.583 149.648 103.775 149.096 103.775 148.424V143.456ZM108.236 152C108.076 152 107.996 151.92 107.996 151.76V135.44C107.996 135.28 108.076 135.2 108.236 135.2H109.46C109.62 135.2 109.7 135.28 109.7 135.44V151.76C109.7 151.92 109.62 152 109.46 152H108.236ZM119.724 146.336C119.724 146.496 119.644 146.576 119.484 146.576H114.012C113.948 146.576 113.916 146.608 113.916 146.672V148.424C113.916 149.096 114.1 149.648 114.468 150.08C114.852 150.496 115.348 150.704 115.956 150.704C116.468 150.704 116.9 150.552 117.252 150.248C117.62 149.928 117.86 149.52 117.972 149.024C118.02 148.88 118.108 148.808 118.236 148.808L119.436 148.856C119.5 148.856 119.556 148.88 119.604 148.928C119.652 148.976 119.668 149.04 119.652 149.12C119.524 150.064 119.132 150.816 118.476 151.376C117.836 151.92 116.996 152.192 115.956 152.192C114.82 152.192 113.908 151.856 113.22 151.184C112.548 150.512 112.212 149.624 112.212 148.52V143.336C112.212 142.248 112.548 141.368 113.22 140.696C113.908 140.008 114.82 139.664 115.956 139.664C117.108 139.664 118.02 140.008 118.692 140.696C119.38 141.368 119.724 142.248 119.724 143.336V146.336ZM115.956 141.152C115.348 141.152 114.852 141.368 114.468 141.8C114.1 142.216 113.916 142.768 113.916 143.456V145.064C113.916 145.128 113.948 145.16 114.012 145.16H117.948C118.012 145.16 118.044 145.128 118.044 145.064V143.456C118.044 142.768 117.852 142.216 117.468 141.8C117.084 141.368 116.58 141.152 115.956 141.152ZM126.427 140.888C126.427 141.048 126.347 141.128 126.187 141.128H124.363C124.299 141.128 124.267 141.16 124.267 141.224V148.568C124.267 149.304 124.395 149.816 124.651 150.104C124.907 150.376 125.299 150.504 125.827 150.488H126.067C126.227 150.488 126.307 150.568 126.307 150.728V151.76C126.307 151.92 126.227 152 126.067 152H125.467C124.523 152 123.803 151.8 123.307 151.4C122.827 150.984 122.587 150.208 122.587 149.072V141.224C122.587 141.16 122.555 141.128 122.491 141.128H121.555C121.395 141.128 121.315 141.048 121.315 140.888V140.096C121.315 139.936 121.395 139.856 121.555 139.856H122.491C122.555 139.856 122.587 139.824 122.587 139.76V137.072C122.587 136.912 122.667 136.832 122.827 136.832H124.027C124.187 136.832 124.267 136.912 124.267 137.072V139.76C124.267 139.824 124.299 139.856 124.363 139.856H126.187C126.347 139.856 126.427 139.936 126.427 140.096V140.888ZM131.722 152.12C130.618 152.12 129.73 151.84 129.058 151.28C128.402 150.704 128.074 149.944 128.074 149V148.832C128.074 148.672 128.154 148.592 128.314 148.592H129.466C129.626 148.592 129.706 148.672 129.706 148.832V148.976C129.706 149.488 129.89 149.92 130.258 150.272C130.642 150.624 131.138 150.8 131.746 150.8C132.322 150.8 132.786 150.624 133.138 150.272C133.49 149.92 133.666 149.472 133.666 148.928C133.666 148.512 133.554 148.168 133.33 147.896C133.106 147.608 132.842 147.384 132.538 147.224C132.25 147.064 131.81 146.856 131.218 146.6C130.594 146.344 130.074 146.096 129.658 145.856C129.258 145.6 128.906 145.248 128.602 144.8C128.314 144.336 128.17 143.752 128.17 143.048C128.17 142.024 128.482 141.216 129.106 140.624C129.746 140.032 130.602 139.736 131.674 139.736C132.762 139.736 133.626 140.04 134.266 140.648C134.906 141.256 135.226 142.064 135.226 143.072V143.144C135.226 143.304 135.146 143.384 134.986 143.384H133.882C133.722 143.384 133.642 143.304 133.642 143.144V143C133.642 142.456 133.458 142.008 133.09 141.656C132.738 141.304 132.274 141.128 131.698 141.128C131.122 141.128 130.658 141.312 130.306 141.68C129.97 142.032 129.802 142.472 129.802 143C129.802 143.384 129.906 143.712 130.114 143.984C130.322 144.24 130.578 144.456 130.882 144.632C131.186 144.792 131.61 144.992 132.154 145.232C132.81 145.52 133.346 145.792 133.762 146.048C134.194 146.304 134.57 146.664 134.89 147.128C135.21 147.592 135.37 148.168 135.37 148.856C135.37 149.848 135.042 150.64 134.386 151.232C133.73 151.824 132.842 152.12 131.722 152.12ZM149.583 146.336C149.583 146.496 149.503 146.576 149.343 146.576H143.871C143.807 146.576 143.775 146.608 143.775 146.672V148.424C143.775 149.096 143.959 149.648 144.327 150.08C144.711 150.496 145.207 150.704 145.815 150.704C146.327 150.704 146.759 150.552 147.111 150.248C147.479 149.928 147.719 149.52 147.831 149.024C147.879 148.88 147.967 148.808 148.095 148.808L149.295 148.856C149.359 148.856 149.415 148.88 149.463 148.928C149.511 148.976 149.527 149.04 149.511 149.12C149.383 150.064 148.991 150.816 148.335 151.376C147.695 151.92 146.855 152.192 145.815 152.192C144.679 152.192 143.767 151.856 143.079 151.184C142.407 150.512 142.071 149.624 142.071 148.52V143.336C142.071 142.248 142.407 141.368 143.079 140.696C143.767 140.008 144.679 139.664 145.815 139.664C146.967 139.664 147.879 140.008 148.551 140.696C149.239 141.368 149.583 142.248 149.583 143.336V146.336ZM145.815 141.152C145.207 141.152 144.711 141.368 144.327 141.8C143.959 142.216 143.775 142.768 143.775 143.456V145.064C143.775 145.128 143.807 145.16 143.871 145.16H147.807C147.871 145.16 147.903 145.128 147.903 145.064V143.456C147.903 142.768 147.711 142.216 147.327 141.8C146.943 141.368 146.439 141.152 145.815 141.152ZM161.829 139.688C162.789 139.688 163.533 140.04 164.061 140.744C164.589 141.448 164.853 142.424 164.853 143.672V151.76C164.853 151.92 164.773 152 164.613 152H163.413C163.253 152 163.173 151.92 163.173 151.76V143.816C163.173 143 162.997 142.36 162.645 141.896C162.309 141.416 161.861 141.176 161.301 141.176C160.693 141.176 160.213 141.408 159.861 141.872C159.509 142.336 159.333 142.968 159.333 143.768V151.76C159.333 151.92 159.253 152 159.093 152H157.869C157.709 152 157.629 151.92 157.629 151.76V143.816C157.629 143 157.453 142.36 157.101 141.896C156.765 141.416 156.325 141.176 155.781 141.176C155.173 141.176 154.685 141.408 154.317 141.872C153.965 142.336 153.789 142.968 153.789 143.768V151.76C153.789 151.92 153.709 152 153.549 152H152.349C152.189 152 152.109 151.92 152.109 151.76V140.096C152.109 139.936 152.189 139.856 152.349 139.856H153.549C153.709 139.856 153.789 139.936 153.789 140.096V140.84C153.789 140.872 153.797 140.896 153.813 140.912C153.845 140.912 153.877 140.896 153.909 140.864C154.213 140.464 154.573 140.168 154.989 139.976C155.405 139.784 155.845 139.688 156.309 139.688C156.917 139.688 157.445 139.84 157.893 140.144C158.341 140.432 158.685 140.848 158.925 141.392C158.941 141.424 158.965 141.44 158.997 141.44C159.029 141.44 159.053 141.416 159.069 141.368C159.357 140.792 159.749 140.368 160.245 140.096C160.741 139.824 161.269 139.688 161.829 139.688ZM175.644 152.12C174.54 152.12 173.652 151.84 172.98 151.28C172.324 150.704 171.996 149.944 171.996 149V148.832C171.996 148.672 172.076 148.592 172.236 148.592H173.388C173.548 148.592 173.628 148.672 173.628 148.832V148.976C173.628 149.488 173.812 149.92 174.18 150.272C174.564 150.624 175.06 150.8 175.668 150.8C176.244 150.8 176.708 150.624 177.06 150.272C177.412 149.92 177.588 149.472 177.588 148.928C177.588 148.512 177.476 148.168 177.252 147.896C177.028 147.608 176.764 147.384 176.46 147.224C176.172 147.064 175.732 146.856 175.14 146.6C174.516 146.344 173.996 146.096 173.58 145.856C173.18 145.6 172.828 145.248 172.524 144.8C172.236 144.336 172.092 143.752 172.092 143.048C172.092 142.024 172.404 141.216 173.028 140.624C173.668 140.032 174.524 139.736 175.596 139.736C176.684 139.736 177.548 140.04 178.188 140.648C178.828 141.256 179.148 142.064 179.148 143.072V143.144C179.148 143.304 179.068 143.384 178.908 143.384H177.804C177.644 143.384 177.564 143.304 177.564 143.144V143C177.564 142.456 177.38 142.008 177.012 141.656C176.66 141.304 176.196 141.128 175.62 141.128C175.044 141.128 174.58 141.312 174.228 141.68C173.892 142.032 173.724 142.472 173.724 143C173.724 143.384 173.828 143.712 174.036 143.984C174.244 144.24 174.5 144.456 174.804 144.632C175.108 144.792 175.532 144.992 176.076 145.232C176.732 145.52 177.268 145.792 177.684 146.048C178.116 146.304 178.492 146.664 178.812 147.128C179.132 147.592 179.292 148.168 179.292 148.856C179.292 149.848 178.964 150.64 178.308 151.232C177.652 151.824 176.764 152.12 175.644 152.12ZM185.004 139.664C186.124 139.664 187.02 140.032 187.692 140.768C188.364 141.488 188.7 142.456 188.7 143.672V151.76C188.7 151.92 188.62 152 188.46 152H187.236C187.076 152 186.996 151.92 186.996 151.76V151.04C186.996 151.008 186.98 150.992 186.948 150.992C186.932 150.976 186.908 150.984 186.876 151.016C186.284 151.8 185.396 152.192 184.212 152.192C183.332 152.192 182.564 151.944 181.908 151.448C181.268 150.936 180.948 150.04 180.948 148.76C180.948 147.4 181.34 146.408 182.124 145.784C182.908 145.144 183.94 144.824 185.22 144.824H186.9C186.964 144.824 186.996 144.792 186.996 144.728V143.792C186.996 142.992 186.812 142.352 186.444 141.872C186.076 141.392 185.58 141.152 184.956 141.152C184.476 141.152 184.06 141.312 183.708 141.632C183.372 141.952 183.172 142.36 183.108 142.856C183.108 143.016 183.028 143.096 182.868 143.096L181.524 143.072C181.444 143.072 181.38 143.048 181.332 143C181.3 142.952 181.292 142.896 181.308 142.832C181.388 141.888 181.772 141.128 182.46 140.552C183.148 139.96 183.996 139.664 185.004 139.664ZM184.572 150.704C185.228 150.704 185.796 150.496 186.276 150.08C186.756 149.648 186.996 149.056 186.996 148.304V146.288C186.996 146.224 186.964 146.192 186.9 146.192H185.196C184.428 146.192 183.82 146.4 183.372 146.816C182.924 147.216 182.7 147.816 182.7 148.616C182.7 149.32 182.868 149.848 183.204 150.2C183.556 150.536 184.012 150.704 184.572 150.704ZM191.462 152C191.302 152 191.222 151.92 191.222 151.76V135.44C191.222 135.28 191.302 135.2 191.462 135.2H192.686C192.846 135.2 192.926 135.28 192.926 135.44V151.76C192.926 151.92 192.846 152 192.686 152H191.462ZM199.254 139.664C200.374 139.664 201.27 140.032 201.942 140.768C202.614 141.488 202.95 142.456 202.95 143.672V151.76C202.95 151.92 202.87 152 202.71 152H201.486C201.326 152 201.246 151.92 201.246 151.76V151.04C201.246 151.008 201.23 150.992 201.198 150.992C201.182 150.976 201.158 150.984 201.126 151.016C200.534 151.8 199.646 152.192 198.462 152.192C197.582 152.192 196.814 151.944 196.158 151.448C195.518 150.936 195.198 150.04 195.198 148.76C195.198 147.4 195.59 146.408 196.374 145.784C197.158 145.144 198.19 144.824 199.47 144.824H201.15C201.214 144.824 201.246 144.792 201.246 144.728V143.792C201.246 142.992 201.062 142.352 200.694 141.872C200.326 141.392 199.83 141.152 199.206 141.152C198.726 141.152 198.31 141.312 197.958 141.632C197.622 141.952 197.422 142.36 197.358 142.856C197.358 143.016 197.278 143.096 197.118 143.096L195.774 143.072C195.694 143.072 195.63 143.048 195.582 143C195.55 142.952 195.542 142.896 195.558 142.832C195.638 141.888 196.022 141.128 196.71 140.552C197.398 139.96 198.246 139.664 199.254 139.664ZM198.822 150.704C199.478 150.704 200.046 150.496 200.526 150.08C201.006 149.648 201.246 149.056 201.246 148.304V146.288C201.246 146.224 201.214 146.192 201.15 146.192H199.446C198.678 146.192 198.07 146.4 197.622 146.816C197.174 147.216 196.95 147.816 196.95 148.616C196.95 149.32 197.118 149.848 197.454 150.2C197.806 150.536 198.262 150.704 198.822 150.704ZM215.941 135.44C215.941 135.28 216.021 135.2 216.181 135.2H217.405C217.565 135.2 217.645 135.28 217.645 135.44V151.76C217.645 151.92 217.565 152 217.405 152H216.181C216.021 152 215.941 151.92 215.941 151.76V151.232C215.941 151.2 215.925 151.176 215.893 151.16C215.877 151.144 215.853 151.152 215.821 151.184C215.213 151.856 214.445 152.192 213.517 152.192C212.493 152.192 211.677 151.856 211.069 151.184C210.461 150.496 210.157 149.608 210.157 148.52V143.336C210.157 142.216 210.461 141.328 211.069 140.672C211.677 140 212.493 139.664 213.517 139.664C214.461 139.664 215.229 140.008 215.821 140.696C215.853 140.728 215.877 140.736 215.893 140.72C215.925 140.704 215.941 140.68 215.941 140.648V135.44ZM213.925 150.704C214.517 150.704 214.997 150.496 215.365 150.08C215.749 149.648 215.941 149.096 215.941 148.424V143.456C215.941 142.768 215.749 142.216 215.365 141.8C214.997 141.368 214.517 141.152 213.925 141.152C213.317 141.152 212.813 141.368 212.413 141.8C212.029 142.216 211.837 142.768 211.837 143.456V148.424C211.837 149.096 212.029 149.648 212.413 150.08C212.813 150.496 213.317 150.704 213.925 150.704ZM227.817 146.336C227.817 146.496 227.737 146.576 227.577 146.576H222.105C222.041 146.576 222.009 146.608 222.009 146.672V148.424C222.009 149.096 222.193 149.648 222.561 150.08C222.945 150.496 223.441 150.704 224.049 150.704C224.561 150.704 224.993 150.552 225.345 150.248C225.713 149.928 225.953 149.52 226.065 149.024C226.113 148.88 226.201 148.808 226.329 148.808L227.529 148.856C227.593 148.856 227.649 148.88 227.697 148.928C227.745 148.976 227.761 149.04 227.745 149.12C227.617 150.064 227.225 150.816 226.569 151.376C225.929 151.92 225.089 152.192 224.049 152.192C222.913 152.192 222.001 151.856 221.313 151.184C220.641 150.512 220.305 149.624 220.305 148.52V143.336C220.305 142.248 220.641 141.368 221.313 140.696C222.001 140.008 222.913 139.664 224.049 139.664C225.201 139.664 226.113 140.008 226.785 140.696C227.473 141.368 227.817 142.248 227.817 143.336V146.336ZM224.049 141.152C223.441 141.152 222.945 141.368 222.561 141.8C222.193 142.216 222.009 142.768 222.009 143.456V145.064C222.009 145.128 222.041 145.16 222.105 145.16H226.041C226.105 145.16 226.137 145.128 226.137 145.064V143.456C226.137 142.768 225.945 142.216 225.561 141.8C225.177 141.368 224.673 141.152 224.049 141.152ZM238.7 139.664C239.82 139.664 240.716 140.032 241.388 140.768C242.06 141.488 242.396 142.456 242.396 143.672V151.76C242.396 151.92 242.316 152 242.156 152H240.932C240.772 152 240.692 151.92 240.692 151.76V151.04C240.692 151.008 240.676 150.992 240.644 150.992C240.628 150.976 240.604 150.984 240.572 151.016C239.98 151.8 239.092 152.192 237.908 152.192C237.028 152.192 236.26 151.944 235.604 151.448C234.964 150.936 234.644 150.04 234.644 148.76C234.644 147.4 235.036 146.408 235.82 145.784C236.604 145.144 237.636 144.824 238.916 144.824H240.596C240.66 144.824 240.692 144.792 240.692 144.728V143.792C240.692 142.992 240.508 142.352 240.14 141.872C239.772 141.392 239.276 141.152 238.652 141.152C238.172 141.152 237.756 141.312 237.404 141.632C237.068 141.952 236.868 142.36 236.804 142.856C236.804 143.016 236.724 143.096 236.564 143.096L235.22 143.072C235.14 143.072 235.076 143.048 235.028 143C234.996 142.952 234.988 142.896 235.004 142.832C235.084 141.888 235.468 141.128 236.156 140.552C236.844 139.96 237.692 139.664 238.7 139.664ZM238.268 150.704C238.924 150.704 239.492 150.496 239.972 150.08C240.452 149.648 240.692 149.056 240.692 148.304V146.288C240.692 146.224 240.66 146.192 240.596 146.192H238.892C238.124 146.192 237.516 146.4 237.068 146.816C236.62 147.216 236.396 147.816 236.396 148.616C236.396 149.32 236.564 149.848 236.9 150.2C237.252 150.536 237.708 150.704 238.268 150.704ZM250.606 140.096C250.606 139.936 250.686 139.856 250.846 139.856H252.07C252.23 139.856 252.31 139.936 252.31 140.096V151.76C252.31 151.92 252.23 152 252.07 152H250.846C250.686 152 250.606 151.92 250.606 151.76V150.944C250.606 150.896 250.59 150.872 250.558 150.872C250.542 150.872 250.518 150.888 250.486 150.92C249.99 151.752 249.19 152.168 248.086 152.168C247.126 152.168 246.358 151.88 245.782 151.304C245.222 150.712 244.942 149.824 244.942 148.64V140.096C244.942 139.936 245.022 139.856 245.182 139.856H246.406C246.566 139.856 246.646 139.936 246.646 140.096V148.256C246.646 149.056 246.806 149.664 247.126 150.08C247.462 150.48 247.942 150.68 248.566 150.68C249.206 150.68 249.702 150.448 250.054 149.984C250.422 149.52 250.606 148.888 250.606 148.088V140.096ZM255.33 152C255.17 152 255.09 151.92 255.09 151.76V135.44C255.09 135.28 255.17 135.2 255.33 135.2H256.554C256.714 135.2 256.794 135.28 256.794 135.44V151.76C256.794 151.92 256.714 152 256.554 152H255.33ZM263.121 139.664C264.241 139.664 265.137 140.032 265.809 140.768C266.481 141.488 266.817 142.456 266.817 143.672V151.76C266.817 151.92 266.737 152 266.577 152H265.353C265.193 152 265.113 151.92 265.113 151.76V151.04C265.113 151.008 265.097 150.992 265.065 150.992C265.049 150.976 265.025 150.984 264.993 151.016C264.401 151.8 263.513 152.192 262.329 152.192C261.449 152.192 260.681 151.944 260.025 151.448C259.385 150.936 259.065 150.04 259.065 148.76C259.065 147.4 259.457 146.408 260.241 145.784C261.025 145.144 262.057 144.824 263.337 144.824H265.017C265.081 144.824 265.113 144.792 265.113 144.728V143.792C265.113 142.992 264.929 142.352 264.561 141.872C264.193 141.392 263.697 141.152 263.073 141.152C262.593 141.152 262.177 141.312 261.825 141.632C261.489 141.952 261.289 142.36 261.225 142.856C261.225 143.016 261.145 143.096 260.985 143.096L259.641 143.072C259.561 143.072 259.497 143.048 259.449 143C259.417 142.952 259.409 142.896 259.425 142.832C259.505 141.888 259.889 141.128 260.577 140.552C261.265 139.96 262.113 139.664 263.121 139.664ZM262.689 150.704C263.345 150.704 263.913 150.496 264.393 150.08C264.873 149.648 265.113 149.056 265.113 148.304V146.288C265.113 146.224 265.081 146.192 265.017 146.192H263.313C262.545 146.192 261.937 146.4 261.489 146.816C261.041 147.216 260.817 147.816 260.817 148.616C260.817 149.32 260.985 149.848 261.321 150.2C261.673 150.536 262.129 150.704 262.689 150.704ZM81.9118 164.176C83.0798 164.176 84.0238 164.608 84.7438 165.472C85.4638 166.32 85.8238 167.44 85.8238 168.832C85.8238 170.208 85.4718 171.32 84.7678 172.168C84.0638 173 83.1358 173.416 81.9838 173.416H79.5118C79.4478 173.416 79.4158 173.448 79.4158 173.512V180.76C79.4158 180.92 79.3358 181 79.1758 181H77.9518C77.7918 181 77.7118 180.92 77.7118 180.76V164.416C77.7118 164.256 77.7918 164.176 77.9518 164.176H81.9118ZM81.6958 172.024C82.4158 172.024 82.9998 171.736 83.4478 171.16C83.8958 170.584 84.1198 169.816 84.1198 168.856C84.1198 167.896 83.8958 167.128 83.4478 166.552C82.9998 165.96 82.4158 165.664 81.6958 165.664H79.5118C79.4478 165.664 79.4158 165.696 79.4158 165.76V171.928C79.4158 171.992 79.4478 172.024 79.5118 172.024H81.6958ZM92.193 168.736C92.593 168.736 92.937 168.824 93.225 169C93.337 169.064 93.377 169.168 93.345 169.312L93.057 170.56C93.041 170.704 92.945 170.752 92.769 170.704C92.577 170.608 92.337 170.56 92.049 170.56C91.921 170.56 91.825 170.568 91.761 170.584C91.185 170.616 90.713 170.92 90.345 171.496C89.977 172.056 89.793 172.744 89.793 173.56V180.76C89.793 180.92 89.713 181 89.553 181H88.329C88.169 181 88.089 180.92 88.089 180.76V169.096C88.089 168.936 88.169 168.856 88.329 168.856H89.553C89.713 168.856 89.793 168.936 89.793 169.096V170.536C89.793 170.584 89.801 170.608 89.817 170.608C89.849 170.608 89.881 170.592 89.913 170.56C90.377 169.344 91.137 168.736 92.193 168.736ZM98.5071 181.192C97.3551 181.192 96.4351 180.856 95.7471 180.184C95.0751 179.512 94.7391 178.624 94.7391 177.52V172.36C94.7391 171.272 95.0831 170.384 95.7711 169.696C96.4591 169.008 97.3711 168.664 98.5071 168.664C99.6591 168.664 100.579 169.008 101.267 169.696C101.955 170.384 102.299 171.272 102.299 172.36V177.52C102.299 178.624 101.955 179.512 101.267 180.184C100.579 180.856 99.6591 181.192 98.5071 181.192ZM98.5071 179.68C99.1151 179.68 99.6111 179.472 99.9951 179.056C100.395 178.64 100.595 178.088 100.595 177.4V172.456C100.595 171.768 100.395 171.216 99.9951 170.8C99.6111 170.368 99.1151 170.152 98.5071 170.152C97.8991 170.152 97.4031 170.368 97.0191 170.8C96.6351 171.216 96.4431 171.768 96.4431 172.456V177.4C96.4431 178.088 96.6351 178.64 97.0191 179.056C97.4031 179.472 97.8991 179.68 98.5071 179.68ZM108.828 165.496C108.22 165.496 107.788 165.704 107.532 166.12C107.276 166.52 107.148 167.152 107.148 168.016V168.76C107.148 168.824 107.18 168.856 107.244 168.856H109.092C109.252 168.856 109.332 168.936 109.332 169.096V169.888C109.332 170.048 109.252 170.128 109.092 170.128H107.244C107.18 170.128 107.148 170.16 107.148 170.224V180.76C107.148 180.92 107.068 181 106.908 181H105.708C105.548 181 105.468 180.92 105.468 180.76V170.224C105.468 170.16 105.436 170.128 105.372 170.128H104.412C104.252 170.128 104.172 170.048 104.172 169.888V169.096C104.172 168.936 104.252 168.856 104.412 168.856H105.372C105.436 168.856 105.468 168.824 105.468 168.76V167.992C105.468 166.6 105.724 165.592 106.236 164.968C106.748 164.344 107.604 164.032 108.804 164.032H109.14C109.3 164.032 109.38 164.112 109.38 164.272L109.356 165.256C109.356 165.416 109.276 165.496 109.116 165.496H108.828ZM118.868 175.336C118.868 175.496 118.788 175.576 118.628 175.576H113.156C113.092 175.576 113.06 175.608 113.06 175.672V177.424C113.06 178.096 113.244 178.648 113.612 179.08C113.996 179.496 114.492 179.704 115.1 179.704C115.612 179.704 116.044 179.552 116.396 179.248C116.764 178.928 117.004 178.52 117.116 178.024C117.164 177.88 117.252 177.808 117.38 177.808L118.58 177.856C118.644 177.856 118.7 177.88 118.748 177.928C118.796 177.976 118.812 178.04 118.796 178.12C118.668 179.064 118.276 179.816 117.62 180.376C116.98 180.92 116.14 181.192 115.1 181.192C113.964 181.192 113.052 180.856 112.364 180.184C111.692 179.512 111.356 178.624 111.356 177.52V172.336C111.356 171.248 111.692 170.368 112.364 169.696C113.052 169.008 113.964 168.664 115.1 168.664C116.252 168.664 117.164 169.008 117.836 169.696C118.524 170.368 118.868 171.248 118.868 172.336V175.336ZM115.1 170.152C114.492 170.152 113.996 170.368 113.612 170.8C113.244 171.216 113.06 171.768 113.06 172.456V174.064C113.06 174.128 113.092 174.16 113.156 174.16H117.092C117.156 174.16 117.188 174.128 117.188 174.064V172.456C117.188 171.768 116.996 171.216 116.612 170.8C116.228 170.368 115.724 170.152 115.1 170.152ZM124.515 181.12C123.411 181.12 122.523 180.84 121.851 180.28C121.195 179.704 120.867 178.944 120.867 178V177.832C120.867 177.672 120.947 177.592 121.107 177.592H122.259C122.419 177.592 122.499 177.672 122.499 177.832V177.976C122.499 178.488 122.683 178.92 123.051 179.272C123.435 179.624 123.931 179.8 124.539 179.8C125.115 179.8 125.579 179.624 125.931 179.272C126.283 178.92 126.459 178.472 126.459 177.928C126.459 177.512 126.347 177.168 126.123 176.896C125.899 176.608 125.635 176.384 125.331 176.224C125.043 176.064 124.603 175.856 124.011 175.6C123.387 175.344 122.867 175.096 122.451 174.856C122.051 174.6 121.699 174.248 121.395 173.8C121.107 173.336 120.963 172.752 120.963 172.048C120.963 171.024 121.275 170.216 121.899 169.624C122.539 169.032 123.395 168.736 124.467 168.736C125.555 168.736 126.419 169.04 127.059 169.648C127.699 170.256 128.019 171.064 128.019 172.072V172.144C128.019 172.304 127.939 172.384 127.779 172.384H126.675C126.515 172.384 126.435 172.304 126.435 172.144V172C126.435 171.456 126.251 171.008 125.883 170.656C125.531 170.304 125.067 170.128 124.491 170.128C123.915 170.128 123.451 170.312 123.099 170.68C122.763 171.032 122.595 171.472 122.595 172C122.595 172.384 122.699 172.712 122.907 172.984C123.115 173.24 123.371 173.456 123.675 173.632C123.979 173.792 124.403 173.992 124.947 174.232C125.603 174.52 126.139 174.792 126.555 175.048C126.987 175.304 127.363 175.664 127.683 176.128C128.003 176.592 128.163 177.168 128.163 177.856C128.163 178.848 127.835 179.64 127.179 180.232C126.523 180.824 125.635 181.12 124.515 181.12ZM132.882 181.12C131.778 181.12 130.89 180.84 130.218 180.28C129.562 179.704 129.234 178.944 129.234 178V177.832C129.234 177.672 129.314 177.592 129.474 177.592H130.626C130.786 177.592 130.866 177.672 130.866 177.832V177.976C130.866 178.488 131.05 178.92 131.418 179.272C131.802 179.624 132.298 179.8 132.906 179.8C133.482 179.8 133.946 179.624 134.298 179.272C134.65 178.92 134.826 178.472 134.826 177.928C134.826 177.512 134.714 177.168 134.49 176.896C134.266 176.608 134.002 176.384 133.698 176.224C133.41 176.064 132.97 175.856 132.378 175.6C131.754 175.344 131.234 175.096 130.818 174.856C130.418 174.6 130.066 174.248 129.762 173.8C129.474 173.336 129.33 172.752 129.33 172.048C129.33 171.024 129.642 170.216 130.266 169.624C130.906 169.032 131.762 168.736 132.834 168.736C133.922 168.736 134.786 169.04 135.426 169.648C136.066 170.256 136.386 171.064 136.386 172.072V172.144C136.386 172.304 136.306 172.384 136.146 172.384H135.042C134.882 172.384 134.802 172.304 134.802 172.144V172C134.802 171.456 134.618 171.008 134.25 170.656C133.898 170.304 133.434 170.128 132.858 170.128C132.282 170.128 131.818 170.312 131.466 170.68C131.13 171.032 130.962 171.472 130.962 172C130.962 172.384 131.066 172.712 131.274 172.984C131.482 173.24 131.738 173.456 132.042 173.632C132.346 173.792 132.77 173.992 133.314 174.232C133.97 174.52 134.506 174.792 134.922 175.048C135.354 175.304 135.73 175.664 136.05 176.128C136.37 176.592 136.53 177.168 136.53 177.856C136.53 178.848 136.202 179.64 135.546 180.232C134.89 180.824 134.002 181.12 132.882 181.12ZM142.195 181.192C141.043 181.192 140.123 180.856 139.435 180.184C138.763 179.512 138.427 178.624 138.427 177.52V172.36C138.427 171.272 138.771 170.384 139.459 169.696C140.147 169.008 141.059 168.664 142.195 168.664C143.347 168.664 144.267 169.008 144.955 169.696C145.643 170.384 145.987 171.272 145.987 172.36V177.52C145.987 178.624 145.643 179.512 144.955 180.184C144.267 180.856 143.347 181.192 142.195 181.192ZM142.195 179.68C142.803 179.68 143.299 179.472 143.683 179.056C144.083 178.64 144.283 178.088 144.283 177.4V172.456C144.283 171.768 144.083 171.216 143.683 170.8C143.299 170.368 142.803 170.152 142.195 170.152C141.587 170.152 141.091 170.368 140.707 170.8C140.323 171.216 140.131 171.768 140.131 172.456V177.4C140.131 178.088 140.323 178.64 140.707 179.056C141.091 179.472 141.587 179.68 142.195 179.68ZM152.756 168.736C153.156 168.736 153.5 168.824 153.788 169C153.9 169.064 153.94 169.168 153.908 169.312L153.62 170.56C153.604 170.704 153.508 170.752 153.332 170.704C153.14 170.608 152.9 170.56 152.612 170.56C152.484 170.56 152.388 170.568 152.324 170.584C151.748 170.616 151.276 170.92 150.908 171.496C150.539 172.056 150.355 172.744 150.355 173.56V180.76C150.355 180.92 150.276 181 150.116 181H148.892C148.732 181 148.652 180.92 148.652 180.76V169.096C148.652 168.936 148.732 168.856 148.892 168.856H150.116C150.276 168.856 150.355 168.936 150.355 169.096V170.536C150.355 170.584 150.363 170.608 150.38 170.608C150.412 170.608 150.444 170.592 150.476 170.56C150.94 169.344 151.7 168.736 152.756 168.736ZM162.814 175.336C162.814 175.496 162.734 175.576 162.574 175.576H157.102C157.038 175.576 157.006 175.608 157.006 175.672V177.424C157.006 178.096 157.19 178.648 157.558 179.08C157.942 179.496 158.438 179.704 159.046 179.704C159.558 179.704 159.99 179.552 160.342 179.248C160.71 178.928 160.95 178.52 161.062 178.024C161.11 177.88 161.198 177.808 161.326 177.808L162.526 177.856C162.59 177.856 162.646 177.88 162.694 177.928C162.742 177.976 162.758 178.04 162.742 178.12C162.614 179.064 162.222 179.816 161.566 180.376C160.926 180.92 160.086 181.192 159.046 181.192C157.91 181.192 156.998 180.856 156.31 180.184C155.638 179.512 155.302 178.624 155.302 177.52V172.336C155.302 171.248 155.638 170.368 156.31 169.696C156.998 169.008 157.91 168.664 159.046 168.664C160.198 168.664 161.11 169.008 161.782 169.696C162.47 170.368 162.814 171.248 162.814 172.336V175.336ZM159.046 170.152C158.438 170.152 157.942 170.368 157.558 170.8C157.19 171.216 157.006 171.768 157.006 172.456V174.064C157.006 174.128 157.038 174.16 157.102 174.16H161.038C161.102 174.16 161.134 174.128 161.134 174.064V172.456C161.134 171.768 160.942 171.216 160.558 170.8C160.174 170.368 159.67 170.152 159.046 170.152ZM168.46 181.12C167.356 181.12 166.468 180.84 165.796 180.28C165.14 179.704 164.812 178.944 164.812 178V177.832C164.812 177.672 164.892 177.592 165.052 177.592H166.204C166.364 177.592 166.444 177.672 166.444 177.832V177.976C166.444 178.488 166.628 178.92 166.996 179.272C167.38 179.624 167.876 179.8 168.484 179.8C169.06 179.8 169.524 179.624 169.876 179.272C170.228 178.92 170.404 178.472 170.404 177.928C170.404 177.512 170.292 177.168 170.068 176.896C169.844 176.608 169.58 176.384 169.276 176.224C168.988 176.064 168.548 175.856 167.956 175.6C167.332 175.344 166.812 175.096 166.396 174.856C165.996 174.6 165.644 174.248 165.34 173.8C165.052 173.336 164.908 172.752 164.908 172.048C164.908 171.024 165.22 170.216 165.844 169.624C166.484 169.032 167.34 168.736 168.412 168.736C169.5 168.736 170.364 169.04 171.004 169.648C171.644 170.256 171.964 171.064 171.964 172.072V172.144C171.964 172.304 171.884 172.384 171.724 172.384H170.62C170.46 172.384 170.38 172.304 170.38 172.144V172C170.38 171.456 170.196 171.008 169.828 170.656C169.476 170.304 169.012 170.128 168.436 170.128C167.86 170.128 167.396 170.312 167.044 170.68C166.708 171.032 166.54 171.472 166.54 172C166.54 172.384 166.644 172.712 166.852 172.984C167.06 173.24 167.316 173.456 167.62 173.632C167.924 173.792 168.348 173.992 168.892 174.232C169.548 174.52 170.084 174.792 170.5 175.048C170.932 175.304 171.308 175.664 171.628 176.128C171.948 176.592 172.108 177.168 172.108 177.856C172.108 178.848 171.78 179.64 171.124 180.232C170.468 180.824 169.58 181.12 168.46 181.12ZM183.177 168.736C183.577 168.736 183.921 168.824 184.209 169C184.321 169.064 184.361 169.168 184.329 169.312L184.041 170.56C184.025 170.704 183.929 170.752 183.753 170.704C183.561 170.608 183.321 170.56 183.033 170.56C182.905 170.56 182.809 170.568 182.745 170.584C182.169 170.616 181.697 170.92 181.329 171.496C180.961 172.056 180.777 172.744 180.777 173.56V180.76C180.777 180.92 180.697 181 180.537 181H179.313C179.153 181 179.073 180.92 179.073 180.76V169.096C179.073 168.936 179.153 168.856 179.313 168.856H180.537C180.697 168.856 180.777 168.936 180.777 169.096V170.536C180.777 170.584 180.785 170.608 180.801 170.608C180.833 170.608 180.865 170.592 180.897 170.56C181.361 169.344 182.121 168.736 183.177 168.736ZM193.235 175.336C193.235 175.496 193.155 175.576 192.995 175.576H187.523C187.459 175.576 187.427 175.608 187.427 175.672V177.424C187.427 178.096 187.611 178.648 187.979 179.08C188.363 179.496 188.859 179.704 189.467 179.704C189.979 179.704 190.411 179.552 190.763 179.248C191.131 178.928 191.371 178.52 191.483 178.024C191.531 177.88 191.619 177.808 191.747 177.808L192.947 177.856C193.011 177.856 193.067 177.88 193.115 177.928C193.163 177.976 193.179 178.04 193.163 178.12C193.035 179.064 192.643 179.816 191.987 180.376C191.347 180.92 190.507 181.192 189.467 181.192C188.331 181.192 187.419 180.856 186.731 180.184C186.059 179.512 185.723 178.624 185.723 177.52V172.336C185.723 171.248 186.059 170.368 186.731 169.696C187.419 169.008 188.331 168.664 189.467 168.664C190.619 168.664 191.531 169.008 192.203 169.696C192.891 170.368 193.235 171.248 193.235 172.336V175.336ZM189.467 170.152C188.859 170.152 188.363 170.368 187.979 170.8C187.611 171.216 187.427 171.768 187.427 172.456V174.064C187.427 174.128 187.459 174.16 187.523 174.16H191.459C191.523 174.16 191.555 174.128 191.555 174.064V172.456C191.555 171.768 191.363 171.216 190.979 170.8C190.595 170.368 190.091 170.152 189.467 170.152ZM200.081 168.688C201.057 168.688 201.809 169.024 202.337 169.696C202.881 170.368 203.153 171.304 203.153 172.504V180.76C203.153 180.92 203.073 181 202.913 181H201.689C201.529 181 201.449 180.92 201.449 180.76V172.648C201.449 171.864 201.273 171.256 200.921 170.824C200.585 170.392 200.113 170.176 199.505 170.176C198.865 170.176 198.361 170.408 197.993 170.872C197.641 171.336 197.465 171.968 197.465 172.768V180.76C197.465 180.92 197.385 181 197.225 181H196.001C195.841 181 195.761 180.92 195.761 180.76V169.096C195.761 168.936 195.841 168.856 196.001 168.856H197.225C197.385 168.856 197.465 168.936 197.465 169.096V169.864C197.465 169.896 197.481 169.92 197.513 169.936C197.545 169.952 197.569 169.936 197.585 169.888C197.873 169.488 198.233 169.192 198.665 169C199.113 168.792 199.585 168.688 200.081 168.688ZM209.437 181.192C208.285 181.192 207.365 180.856 206.677 180.184C206.005 179.512 205.669 178.624 205.669 177.52V172.36C205.669 171.272 206.013 170.384 206.701 169.696C207.389 169.008 208.301 168.664 209.437 168.664C210.589 168.664 211.509 169.008 212.197 169.696C212.885 170.384 213.229 171.272 213.229 172.36V177.52C213.229 178.624 212.885 179.512 212.197 180.184C211.509 180.856 210.589 181.192 209.437 181.192ZM209.437 179.68C210.045 179.68 210.541 179.472 210.925 179.056C211.325 178.64 211.525 178.088 211.525 177.4V172.456C211.525 171.768 211.325 171.216 210.925 170.8C210.541 170.368 210.045 170.152 209.437 170.152C208.829 170.152 208.333 170.368 207.949 170.8C207.565 171.216 207.373 171.768 207.373 172.456V177.4C207.373 178.088 207.565 178.64 207.949 179.056C208.333 179.472 208.829 179.68 209.437 179.68ZM225.614 168.688C226.574 168.688 227.318 169.04 227.846 169.744C228.374 170.448 228.638 171.424 228.638 172.672V180.76C228.638 180.92 228.558 181 228.398 181H227.198C227.038 181 226.958 180.92 226.958 180.76V172.816C226.958 172 226.782 171.36 226.43 170.896C226.094 170.416 225.646 170.176 225.086 170.176C224.478 170.176 223.998 170.408 223.646 170.872C223.294 171.336 223.118 171.968 223.118 172.768V180.76C223.118 180.92 223.038 181 222.878 181H221.654C221.494 181 221.414 180.92 221.414 180.76V172.816C221.414 172 221.238 171.36 220.886 170.896C220.55 170.416 220.11 170.176 219.566 170.176C218.958 170.176 218.47 170.408 218.102 170.872C217.75 171.336 217.574 171.968 217.574 172.768V180.76C217.574 180.92 217.494 181 217.334 181H216.134C215.974 181 215.894 180.92 215.894 180.76V169.096C215.894 168.936 215.974 168.856 216.134 168.856H217.334C217.494 168.856 217.574 168.936 217.574 169.096V169.84C217.574 169.872 217.582 169.896 217.598 169.912C217.63 169.912 217.662 169.896 217.694 169.864C217.998 169.464 218.358 169.168 218.774 168.976C219.19 168.784 219.63 168.688 220.094 168.688C220.702 168.688 221.23 168.84 221.678 169.144C222.126 169.432 222.47 169.848 222.71 170.392C222.726 170.424 222.75 170.44 222.782 170.44C222.814 170.44 222.838 170.416 222.854 170.368C223.142 169.792 223.534 169.368 224.03 169.096C224.526 168.824 225.054 168.688 225.614 168.688ZM235.008 168.664C236.128 168.664 237.024 169.032 237.696 169.768C238.368 170.488 238.704 171.456 238.704 172.672V180.76C238.704 180.92 238.624 181 238.464 181H237.24C237.08 181 237 180.92 237 180.76V180.04C237 180.008 236.984 179.992 236.952 179.992C236.936 179.976 236.912 179.984 236.88 180.016C236.288 180.8 235.4 181.192 234.216 181.192C233.336 181.192 232.568 180.944 231.912 180.448C231.272 179.936 230.952 179.04 230.952 177.76C230.952 176.4 231.344 175.408 232.128 174.784C232.912 174.144 233.944 173.824 235.224 173.824H236.904C236.968 173.824 237 173.792 237 173.728V172.792C237 171.992 236.816 171.352 236.448 170.872C236.08 170.392 235.584 170.152 234.96 170.152C234.48 170.152 234.064 170.312 233.712 170.632C233.376 170.952 233.176 171.36 233.112 171.856C233.112 172.016 233.032 172.096 232.872 172.096L231.528 172.072C231.448 172.072 231.384 172.048 231.336 172C231.304 171.952 231.296 171.896 231.312 171.832C231.392 170.888 231.776 170.128 232.464 169.552C233.152 168.96 234 168.664 235.008 168.664ZM234.576 179.704C235.232 179.704 235.8 179.496 236.28 179.08C236.76 178.648 237 178.056 237 177.304V175.288C237 175.224 236.968 175.192 236.904 175.192H235.2C234.432 175.192 233.824 175.4 233.376 175.816C232.928 176.216 232.704 176.816 232.704 177.616C232.704 178.32 232.872 178.848 233.208 179.2C233.56 179.536 234.016 179.704 234.576 179.704ZM246.89 164.44C246.89 164.28 246.97 164.2 247.13 164.2H248.354C248.514 164.2 248.594 164.28 248.594 164.44V180.76C248.594 180.92 248.514 181 248.354 181H247.13C246.97 181 246.89 180.92 246.89 180.76V180.232C246.89 180.2 246.874 180.176 246.842 180.16C246.826 180.144 246.802 180.152 246.77 180.184C246.162 180.856 245.394 181.192 244.466 181.192C243.442 181.192 242.626 180.856 242.018 180.184C241.41 179.496 241.106 178.608 241.106 177.52V172.336C241.106 171.216 241.41 170.328 242.018 169.672C242.626 169 243.442 168.664 244.466 168.664C245.41 168.664 246.178 169.008 246.77 169.696C246.802 169.728 246.826 169.736 246.842 169.72C246.874 169.704 246.89 169.68 246.89 169.648V164.44ZM244.874 179.704C245.466 179.704 245.946 179.496 246.314 179.08C246.698 178.648 246.89 178.096 246.89 177.424V172.456C246.89 171.768 246.698 171.216 246.314 170.8C245.946 170.368 245.466 170.152 244.874 170.152C244.266 170.152 243.762 170.368 243.362 170.8C242.978 171.216 242.786 171.768 242.786 172.456V177.424C242.786 178.096 242.978 178.648 243.362 179.08C243.762 179.496 244.266 179.704 244.874 179.704ZM255.023 181.192C253.871 181.192 252.951 180.856 252.263 180.184C251.591 179.512 251.255 178.624 251.255 177.52V172.36C251.255 171.272 251.599 170.384 252.287 169.696C252.975 169.008 253.887 168.664 255.023 168.664C256.175 168.664 257.095 169.008 257.783 169.696C258.471 170.384 258.815 171.272 258.815 172.36V177.52C258.815 178.624 258.471 179.512 257.783 180.184C257.095 180.856 256.175 181.192 255.023 181.192ZM255.023 179.68C255.631 179.68 256.127 179.472 256.511 179.056C256.911 178.64 257.111 178.088 257.111 177.4V172.456C257.111 171.768 256.911 171.216 256.511 170.8C256.127 170.368 255.631 170.152 255.023 170.152C254.415 170.152 253.919 170.368 253.535 170.8C253.151 171.216 252.959 171.768 252.959 172.456V177.4C252.959 178.088 253.151 178.64 253.535 179.056C253.919 179.472 254.415 179.68 255.023 179.68ZM264.648 181.12C263.544 181.12 262.656 180.84 261.984 180.28C261.328 179.704 261 178.944 261 178V177.832C261 177.672 261.08 177.592 261.24 177.592H262.392C262.552 177.592 262.632 177.672 262.632 177.832V177.976C262.632 178.488 262.816 178.92 263.184 179.272C263.568 179.624 264.064 179.8 264.672 179.8C265.248 179.8 265.712 179.624 266.064 179.272C266.416 178.92 266.592 178.472 266.592 177.928C266.592 177.512 266.48 177.168 266.256 176.896C266.032 176.608 265.768 176.384 265.464 176.224C265.176 176.064 264.736 175.856 264.144 175.6C263.52 175.344 263 175.096 262.584 174.856C262.184 174.6 261.832 174.248 261.528 173.8C261.24 173.336 261.096 172.752 261.096 172.048C261.096 171.024 261.408 170.216 262.032 169.624C262.672 169.032 263.528 168.736 264.6 168.736C265.688 168.736 266.552 169.04 267.192 169.648C267.832 170.256 268.152 171.064 268.152 172.072V172.144C268.152 172.304 268.072 172.384 267.912 172.384H266.808C266.648 172.384 266.568 172.304 266.568 172.144V172C266.568 171.456 266.384 171.008 266.016 170.656C265.664 170.304 265.2 170.128 264.624 170.128C264.048 170.128 263.584 170.312 263.232 170.68C262.896 171.032 262.728 171.472 262.728 172C262.728 172.384 262.832 172.712 263.04 172.984C263.248 173.24 263.504 173.456 263.808 173.632C264.112 173.792 264.536 173.992 265.08 174.232C265.736 174.52 266.272 174.792 266.688 175.048C267.12 175.304 267.496 175.664 267.816 176.128C268.136 176.592 268.296 177.168 268.296 177.856C268.296 178.848 267.968 179.64 267.312 180.232C266.656 180.824 265.768 181.12 264.648 181.12Z" fill="black"/>
<path d="M168 28C177.816 28.0013 185.773 35.959 185.773 45.7751C185.773 45.7936 185.773 45.812 185.773 45.8304V45.8276C185.773 45.8432 185.773 45.8615 185.773 45.88C185.773 50.6573 183.866 54.9893 180.772 58.1563L180.775 58.1528C178.705 60.3203 177.432 63.2633 177.432 66.5038C177.432 66.5532 177.432 66.6024 177.433 66.6516V66.6441V67.7358H158.566V66.6441L158.566 66.5928C158.566 63.2897 157.274 60.2883 155.167 58.0665L155.172 58.0721C152.113 54.8848 150.23 50.5488 150.23 45.7729C150.23 39.1585 153.843 33.388 159.203 30.3276L159.29 30.2817C161.797 28.8487 164.8 28.0027 167.999 28H168L168 28ZM175.28 65.5546C175.518 62.0809 176.966 58.9849 179.202 56.6475L179.196 56.6529C181.913 53.8788 183.59 50.0768 183.59 45.8832C183.59 45.8621 183.59 45.841 183.59 45.82V45.8231L183.59 45.7742C183.59 37.1644 176.61 30.1847 168 30.1847C159.39 30.1847 152.411 37.1644 152.411 45.7743C152.411 49.9692 154.067 53.7771 156.762 56.5793L156.758 56.5743C158.998 58.9354 160.457 62.0569 160.711 65.5134L160.714 65.5612L175.28 65.5546ZM169.092 40.1267V51.0634H161.788L169.092 40.1267ZM166.908 48.8799V47.3275L165.871 48.8799H166.908ZM166.908 57.7752V46.8057H174.207L166.908 57.7752ZM169.092 48.9891V50.5525L170.133 48.9891H169.092ZM158.568 65.5611H177.432V70.8232C177.429 73.7279 175.075 76.0815 172.171 76.0852H163.83C160.925 76.0815 158.572 73.7278 158.568 70.8236V70.8232L158.568 65.5611ZM175.249 67.7446H160.751V70.8232C160.754 72.5225 162.13 73.8993 163.829 73.9018H172.17C173.87 73.8994 175.246 72.5225 175.249 70.8235V70.8232L175.249 67.7446ZM147.148 46.9149H143V44.7315H147.148V46.9149ZM153.415 30.2337H149.244V28.0503H153.415L153.415 30.2337ZM153.415 63.5743H149.244V61.3909H153.415L153.415 63.5743ZM193 46.915H188.852V44.7315H193V46.915ZM186.755 63.5743H182.585V61.3909H186.755V63.5743ZM186.755 30.2337H182.585V28.0503H186.755V30.2337Z" fill="black"/>
</svg>
